M48
; DRILL file KiCad 10.0.0 date 2026-04-16T20:40:07
; FORMAT={-:-/ absolute / metric / decimal}
; #@! TF.CreationDate,2026-04-16T20:40:07+02:00
; #@! TF.GenerationSoftware,Kicad,Pcbnew,10.0.0
; #@! TF.FileFunction,Plated,1,2,PTH
FMAT,2
METRIC
; #@! TA.AperFunction,Plated,PTH,ComponentDrill
T1C0.200
; #@! TA.AperFunction,Plated,PTH,ViaDrill
T2C0.400
%
G90
G05
T1
X111.885Y-67.3
X111.885Y-68.7
X112.585Y-66.6
X112.585Y-67.975
X112.585Y-69.4
X113.285Y-67.3
X113.285Y-68.7
X113.985Y-66.6
X113.985Y-67.975
X113.985Y-69.4
X114.685Y-67.3
X114.685Y-68.7
T2
X29.5Y-64.5
X30.0Y-39.5
X30.0Y-45.0
X30.0Y-51.0
X30.0Y-57.0
X30.0Y-90.0
X30.0Y-95.5
X30.0Y-100.0
X30.0Y-110.0
X30.0Y-115.0
X30.5Y-20.5
X33.0Y-16.0
X34.5Y-115.0
X35.0Y-45.0
X35.0Y-51.0
X35.0Y-70.0
X35.0Y-90.0
X35.0Y-110.0
X38.0Y-64.0
X39.0Y-15.5
X40.0Y-59.5
X40.0Y-110.0
X40.0Y-115.0
X40.5Y-90.0
X44.5Y-70.0
X45.5Y-90.0
X46.0Y-74.5
X47.0Y-16.0
X48.5Y-115.0
X50.0Y-60.5
X50.0Y-65.0
X50.0Y-70.0
X51.0Y-40.5
X52.0Y-19.5
X54.5Y-38.0
X55.0Y-65.0
X55.0Y-70.0
X56.0Y-88.0
X58.0Y-42.5
X58.5Y-97.0
X58.5Y-101.5
X60.0Y-65.0
X60.5Y-86.0
X61.719Y-35.0
X63.48Y-95.25
X63.5Y-115.0
X63.98Y-91.25
X64.0Y-81.5
X64.0Y-101.0
X64.5Y-105.0
X65.0Y-60.0
X65.0Y-65.5
X66.219Y-35.0
X67.5Y-55.5
X70.0Y-115.0
X70.219Y-30.5
X70.98Y-67.75
X70.98Y-73.25
X71.219Y-30.0
X72.5Y-88.0
X76.0Y-73.0
X76.0Y-115.0
X78.5Y-81.0
X79.0Y-87.0
X80.5Y-92.0
X80.719Y-27.5
X81.0Y-15.5
X82.0Y-115.0
X82.5Y-38.5
X82.5Y-42.5
X83.219Y-27.5
X84.5Y-69.5
X84.98Y-44.25
X85.0Y-24.5
X85.0Y-75.0
X85.48Y-48.25
X86.0Y-103.5
X88.0Y-31.5
X88.0Y-110.5
X88.0Y-115.0
X88.23Y-33.5
X89.0Y-25.5
X89.0Y-64.5
X90.0Y-75.0
X90.48Y-44.75
X91.0Y-17.0
X91.0Y-102.0
X91.5Y-33.5
X91.5Y-52.5
X92.5Y-26.5
X92.719Y-89.5
X92.719Y-98.5
X93.0Y-60.0
X93.219Y-94.0
X93.48Y-39.75
X93.48Y-41.75
X93.5Y-69.0
X93.719Y-98.0
X94.719Y-97.5
X95.0Y-24.5
X95.219Y-96.0
X96.0Y-38.0
X96.5Y-50.0
X96.719Y-90.0
X97.719Y-88.0
X98.719Y-77.0
X99.219Y-78.0
X99.719Y-79.0
X100.0Y-86.5
X100.5Y-32.0
X100.5Y-114.0
X101.0Y-50.0
X101.5Y-20.0
X102.5Y-83.5
X102.719Y-94.0
X104.0Y-88.5
X104.219Y-44.0
X104.219Y-101.0
X104.719Y-41.5
X105.219Y-99.5
X105.5Y-69.0
X106.719Y-53.5
X106.719Y-81.5
X106.719Y-87.5
X107.219Y-97.0
X107.719Y-53.5
X108.719Y-80.0
X108.969Y-68.75
X109.0Y-20.5
X109.5Y-114.0
X109.719Y-97.5
X110.0Y-66.0
X110.219Y-71.5
X110.719Y-97.5
X111.219Y-62.5
X112.719Y-41.5
X112.719Y-96.5
X113.0Y-39.0
X113.5Y-31.5
X113.719Y-94.5
X114.5Y-57.5
X114.5Y-111.5
X114.719Y-65.0
X115.0Y-50.0
X115.0Y-98.5
X115.5Y-86.5
X118.0Y-71.0
X118.5Y-17.0
X119.0Y-24.0
X119.0Y-31.5
X119.0Y-38.5
X119.0Y-45.0
X119.5Y-65.0
X121.219Y-76.0
X121.219Y-81.0
M30
