%TF.GenerationSoftware,KiCad,Pcbnew,10.0.0*%
%TF.CreationDate,2026-04-16T20:40:07+02:00*%
%TF.ProjectId,Ohmsprint,4f686d73-7072-4696-9e74-2e6b69636164,rev?*%
%TF.SameCoordinates,Original*%
%TF.FileFunction,Drillmap*%
%TF.FilePolarity,Positive*%
%FSLAX45Y45*%
G04 Gerber Fmt 4.5, Leading zero omitted, Abs format (unit mm)*
G04 Created by KiCad (PCBNEW 10.0.0) date 2026-04-16 20:40:07*
%MOMM*%
%LPD*%
G01*
G04 APERTURE LIST*
%ADD10C,0.050000*%
%ADD11C,0.200000*%
%ADD12C,0.100000*%
G04 APERTURE END LIST*
D10*
X2701060Y-1400000D02*
X12900000Y-1400000D01*
X12900000Y-11700000D01*
X2701060Y-11700000D01*
X2701060Y-1400000D01*
D11*
D12*
X11178500Y-6720000D02*
X11198500Y-6740000D01*
X11198500Y-6720000D02*
X11178500Y-6740000D01*
X11178500Y-6860000D02*
X11198500Y-6880000D01*
X11198500Y-6860000D02*
X11178500Y-6880000D01*
X11248500Y-6650000D02*
X11268500Y-6670000D01*
X11268500Y-6650000D02*
X11248500Y-6670000D01*
X11248500Y-6787500D02*
X11268500Y-6807500D01*
X11268500Y-6787500D02*
X11248500Y-6807500D01*
X11248500Y-6930000D02*
X11268500Y-6950000D01*
X11268500Y-6930000D02*
X11248500Y-6950000D01*
X11318500Y-6720000D02*
X11338500Y-6740000D01*
X11338500Y-6720000D02*
X11318500Y-6740000D01*
X11318500Y-6860000D02*
X11338500Y-6880000D01*
X11338500Y-6860000D02*
X11318500Y-6880000D01*
X11388500Y-6650000D02*
X11408500Y-6670000D01*
X11408500Y-6650000D02*
X11388500Y-6670000D01*
X11388500Y-6787500D02*
X11408500Y-6807500D01*
X11408500Y-6787500D02*
X11388500Y-6807500D01*
X11388500Y-6930000D02*
X11408500Y-6950000D01*
X11408500Y-6930000D02*
X11388500Y-6950000D01*
X11458500Y-6720000D02*
X11478500Y-6740000D01*
X11478500Y-6720000D02*
X11458500Y-6740000D01*
X11458500Y-6860000D02*
X11478500Y-6880000D01*
X11478500Y-6860000D02*
X11458500Y-6880000D01*
X2970000Y-6450000D02*
G75*
G02*
X2930000Y-6450000I-20000J0D01*
G01*
X2930000Y-6450000D02*
G75*
G02*
X2970000Y-6450000I20000J0D01*
G01*
X3020000Y-3950000D02*
G75*
G02*
X2980000Y-3950000I-20000J0D01*
G01*
X2980000Y-3950000D02*
G75*
G02*
X3020000Y-3950000I20000J0D01*
G01*
X3020000Y-4500000D02*
G75*
G02*
X2980000Y-4500000I-20000J0D01*
G01*
X2980000Y-4500000D02*
G75*
G02*
X3020000Y-4500000I20000J0D01*
G01*
X3020000Y-5100000D02*
G75*
G02*
X2980000Y-5100000I-20000J0D01*
G01*
X2980000Y-5100000D02*
G75*
G02*
X3020000Y-5100000I20000J0D01*
G01*
X3020000Y-5700000D02*
G75*
G02*
X2980000Y-5700000I-20000J0D01*
G01*
X2980000Y-5700000D02*
G75*
G02*
X3020000Y-5700000I20000J0D01*
G01*
X3020000Y-9000000D02*
G75*
G02*
X2980000Y-9000000I-20000J0D01*
G01*
X2980000Y-9000000D02*
G75*
G02*
X3020000Y-9000000I20000J0D01*
G01*
X3020000Y-9550000D02*
G75*
G02*
X2980000Y-9550000I-20000J0D01*
G01*
X2980000Y-9550000D02*
G75*
G02*
X3020000Y-9550000I20000J0D01*
G01*
X3020000Y-10000000D02*
G75*
G02*
X2980000Y-10000000I-20000J0D01*
G01*
X2980000Y-10000000D02*
G75*
G02*
X3020000Y-10000000I20000J0D01*
G01*
X3020000Y-11000000D02*
G75*
G02*
X2980000Y-11000000I-20000J0D01*
G01*
X2980000Y-11000000D02*
G75*
G02*
X3020000Y-11000000I20000J0D01*
G01*
X3020000Y-11500000D02*
G75*
G02*
X2980000Y-11500000I-20000J0D01*
G01*
X2980000Y-11500000D02*
G75*
G02*
X3020000Y-11500000I20000J0D01*
G01*
X3070000Y-2050000D02*
G75*
G02*
X3030000Y-2050000I-20000J0D01*
G01*
X3030000Y-2050000D02*
G75*
G02*
X3070000Y-2050000I20000J0D01*
G01*
X3320000Y-1600000D02*
G75*
G02*
X3280000Y-1600000I-20000J0D01*
G01*
X3280000Y-1600000D02*
G75*
G02*
X3320000Y-1600000I20000J0D01*
G01*
X3470000Y-11500000D02*
G75*
G02*
X3430000Y-11500000I-20000J0D01*
G01*
X3430000Y-11500000D02*
G75*
G02*
X3470000Y-11500000I20000J0D01*
G01*
X3520000Y-4500000D02*
G75*
G02*
X3480000Y-4500000I-20000J0D01*
G01*
X3480000Y-4500000D02*
G75*
G02*
X3520000Y-4500000I20000J0D01*
G01*
X3520000Y-5100000D02*
G75*
G02*
X3480000Y-5100000I-20000J0D01*
G01*
X3480000Y-5100000D02*
G75*
G02*
X3520000Y-5100000I20000J0D01*
G01*
X3520000Y-7000000D02*
G75*
G02*
X3480000Y-7000000I-20000J0D01*
G01*
X3480000Y-7000000D02*
G75*
G02*
X3520000Y-7000000I20000J0D01*
G01*
X3520000Y-9000000D02*
G75*
G02*
X3480000Y-9000000I-20000J0D01*
G01*
X3480000Y-9000000D02*
G75*
G02*
X3520000Y-9000000I20000J0D01*
G01*
X3520000Y-11000000D02*
G75*
G02*
X3480000Y-11000000I-20000J0D01*
G01*
X3480000Y-11000000D02*
G75*
G02*
X3520000Y-11000000I20000J0D01*
G01*
X3820000Y-6400000D02*
G75*
G02*
X3780000Y-6400000I-20000J0D01*
G01*
X3780000Y-6400000D02*
G75*
G02*
X3820000Y-6400000I20000J0D01*
G01*
X3920000Y-1550000D02*
G75*
G02*
X3880000Y-1550000I-20000J0D01*
G01*
X3880000Y-1550000D02*
G75*
G02*
X3920000Y-1550000I20000J0D01*
G01*
X4020000Y-5950000D02*
G75*
G02*
X3980000Y-5950000I-20000J0D01*
G01*
X3980000Y-5950000D02*
G75*
G02*
X4020000Y-5950000I20000J0D01*
G01*
X4020000Y-11000000D02*
G75*
G02*
X3980000Y-11000000I-20000J0D01*
G01*
X3980000Y-11000000D02*
G75*
G02*
X4020000Y-11000000I20000J0D01*
G01*
X4020000Y-11500000D02*
G75*
G02*
X3980000Y-11500000I-20000J0D01*
G01*
X3980000Y-11500000D02*
G75*
G02*
X4020000Y-11500000I20000J0D01*
G01*
X4070000Y-9000000D02*
G75*
G02*
X4030000Y-9000000I-20000J0D01*
G01*
X4030000Y-9000000D02*
G75*
G02*
X4070000Y-9000000I20000J0D01*
G01*
X4470000Y-7000000D02*
G75*
G02*
X4430000Y-7000000I-20000J0D01*
G01*
X4430000Y-7000000D02*
G75*
G02*
X4470000Y-7000000I20000J0D01*
G01*
X4570000Y-9000000D02*
G75*
G02*
X4530000Y-9000000I-20000J0D01*
G01*
X4530000Y-9000000D02*
G75*
G02*
X4570000Y-9000000I20000J0D01*
G01*
X4620000Y-7450000D02*
G75*
G02*
X4580000Y-7450000I-20000J0D01*
G01*
X4580000Y-7450000D02*
G75*
G02*
X4620000Y-7450000I20000J0D01*
G01*
X4720000Y-1600000D02*
G75*
G02*
X4680000Y-1600000I-20000J0D01*
G01*
X4680000Y-1600000D02*
G75*
G02*
X4720000Y-1600000I20000J0D01*
G01*
X4870000Y-11500000D02*
G75*
G02*
X4830000Y-11500000I-20000J0D01*
G01*
X4830000Y-11500000D02*
G75*
G02*
X4870000Y-11500000I20000J0D01*
G01*
X5020000Y-6050000D02*
G75*
G02*
X4980000Y-6050000I-20000J0D01*
G01*
X4980000Y-6050000D02*
G75*
G02*
X5020000Y-6050000I20000J0D01*
G01*
X5020000Y-6500000D02*
G75*
G02*
X4980000Y-6500000I-20000J0D01*
G01*
X4980000Y-6500000D02*
G75*
G02*
X5020000Y-6500000I20000J0D01*
G01*
X5020000Y-7000000D02*
G75*
G02*
X4980000Y-7000000I-20000J0D01*
G01*
X4980000Y-7000000D02*
G75*
G02*
X5020000Y-7000000I20000J0D01*
G01*
X5120000Y-4050000D02*
G75*
G02*
X5080000Y-4050000I-20000J0D01*
G01*
X5080000Y-4050000D02*
G75*
G02*
X5120000Y-4050000I20000J0D01*
G01*
X5220000Y-1950000D02*
G75*
G02*
X5180000Y-1950000I-20000J0D01*
G01*
X5180000Y-1950000D02*
G75*
G02*
X5220000Y-1950000I20000J0D01*
G01*
X5470000Y-3800000D02*
G75*
G02*
X5430000Y-3800000I-20000J0D01*
G01*
X5430000Y-3800000D02*
G75*
G02*
X5470000Y-3800000I20000J0D01*
G01*
X5520000Y-6500000D02*
G75*
G02*
X5480000Y-6500000I-20000J0D01*
G01*
X5480000Y-6500000D02*
G75*
G02*
X5520000Y-6500000I20000J0D01*
G01*
X5520000Y-7000000D02*
G75*
G02*
X5480000Y-7000000I-20000J0D01*
G01*
X5480000Y-7000000D02*
G75*
G02*
X5520000Y-7000000I20000J0D01*
G01*
X5620000Y-8800000D02*
G75*
G02*
X5580000Y-8800000I-20000J0D01*
G01*
X5580000Y-8800000D02*
G75*
G02*
X5620000Y-8800000I20000J0D01*
G01*
X5820000Y-4250000D02*
G75*
G02*
X5780000Y-4250000I-20000J0D01*
G01*
X5780000Y-4250000D02*
G75*
G02*
X5820000Y-4250000I20000J0D01*
G01*
X5870000Y-9700000D02*
G75*
G02*
X5830000Y-9700000I-20000J0D01*
G01*
X5830000Y-9700000D02*
G75*
G02*
X5870000Y-9700000I20000J0D01*
G01*
X5870000Y-10150000D02*
G75*
G02*
X5830000Y-10150000I-20000J0D01*
G01*
X5830000Y-10150000D02*
G75*
G02*
X5870000Y-10150000I20000J0D01*
G01*
X6020000Y-6500000D02*
G75*
G02*
X5980000Y-6500000I-20000J0D01*
G01*
X5980000Y-6500000D02*
G75*
G02*
X6020000Y-6500000I20000J0D01*
G01*
X6070000Y-8600000D02*
G75*
G02*
X6030000Y-8600000I-20000J0D01*
G01*
X6030000Y-8600000D02*
G75*
G02*
X6070000Y-8600000I20000J0D01*
G01*
X6191940Y-3500000D02*
G75*
G02*
X6151940Y-3500000I-20000J0D01*
G01*
X6151940Y-3500000D02*
G75*
G02*
X6191940Y-3500000I20000J0D01*
G01*
X6368000Y-9525000D02*
G75*
G02*
X6328000Y-9525000I-20000J0D01*
G01*
X6328000Y-9525000D02*
G75*
G02*
X6368000Y-9525000I20000J0D01*
G01*
X6370000Y-11500000D02*
G75*
G02*
X6330000Y-11500000I-20000J0D01*
G01*
X6330000Y-11500000D02*
G75*
G02*
X6370000Y-11500000I20000J0D01*
G01*
X6418000Y-9125000D02*
G75*
G02*
X6378000Y-9125000I-20000J0D01*
G01*
X6378000Y-9125000D02*
G75*
G02*
X6418000Y-9125000I20000J0D01*
G01*
X6420000Y-8150000D02*
G75*
G02*
X6380000Y-8150000I-20000J0D01*
G01*
X6380000Y-8150000D02*
G75*
G02*
X6420000Y-8150000I20000J0D01*
G01*
X6420000Y-10100000D02*
G75*
G02*
X6380000Y-10100000I-20000J0D01*
G01*
X6380000Y-10100000D02*
G75*
G02*
X6420000Y-10100000I20000J0D01*
G01*
X6470000Y-10500000D02*
G75*
G02*
X6430000Y-10500000I-20000J0D01*
G01*
X6430000Y-10500000D02*
G75*
G02*
X6470000Y-10500000I20000J0D01*
G01*
X6520000Y-6000000D02*
G75*
G02*
X6480000Y-6000000I-20000J0D01*
G01*
X6480000Y-6000000D02*
G75*
G02*
X6520000Y-6000000I20000J0D01*
G01*
X6520000Y-6550000D02*
G75*
G02*
X6480000Y-6550000I-20000J0D01*
G01*
X6480000Y-6550000D02*
G75*
G02*
X6520000Y-6550000I20000J0D01*
G01*
X6641940Y-3500000D02*
G75*
G02*
X6601940Y-3500000I-20000J0D01*
G01*
X6601940Y-3500000D02*
G75*
G02*
X6641940Y-3500000I20000J0D01*
G01*
X6770000Y-5550000D02*
G75*
G02*
X6730000Y-5550000I-20000J0D01*
G01*
X6730000Y-5550000D02*
G75*
G02*
X6770000Y-5550000I20000J0D01*
G01*
X7020000Y-11500000D02*
G75*
G02*
X6980000Y-11500000I-20000J0D01*
G01*
X6980000Y-11500000D02*
G75*
G02*
X7020000Y-11500000I20000J0D01*
G01*
X7041940Y-3050000D02*
G75*
G02*
X7001940Y-3050000I-20000J0D01*
G01*
X7001940Y-3050000D02*
G75*
G02*
X7041940Y-3050000I20000J0D01*
G01*
X7118000Y-6775000D02*
G75*
G02*
X7078000Y-6775000I-20000J0D01*
G01*
X7078000Y-6775000D02*
G75*
G02*
X7118000Y-6775000I20000J0D01*
G01*
X7118000Y-7325000D02*
G75*
G02*
X7078000Y-7325000I-20000J0D01*
G01*
X7078000Y-7325000D02*
G75*
G02*
X7118000Y-7325000I20000J0D01*
G01*
X7141940Y-3000000D02*
G75*
G02*
X7101940Y-3000000I-20000J0D01*
G01*
X7101940Y-3000000D02*
G75*
G02*
X7141940Y-3000000I20000J0D01*
G01*
X7270000Y-8800000D02*
G75*
G02*
X7230000Y-8800000I-20000J0D01*
G01*
X7230000Y-8800000D02*
G75*
G02*
X7270000Y-8800000I20000J0D01*
G01*
X7620000Y-7300000D02*
G75*
G02*
X7580000Y-7300000I-20000J0D01*
G01*
X7580000Y-7300000D02*
G75*
G02*
X7620000Y-7300000I20000J0D01*
G01*
X7620000Y-11500000D02*
G75*
G02*
X7580000Y-11500000I-20000J0D01*
G01*
X7580000Y-11500000D02*
G75*
G02*
X7620000Y-11500000I20000J0D01*
G01*
X7870000Y-8100000D02*
G75*
G02*
X7830000Y-8100000I-20000J0D01*
G01*
X7830000Y-8100000D02*
G75*
G02*
X7870000Y-8100000I20000J0D01*
G01*
X7920000Y-8700000D02*
G75*
G02*
X7880000Y-8700000I-20000J0D01*
G01*
X7880000Y-8700000D02*
G75*
G02*
X7920000Y-8700000I20000J0D01*
G01*
X8070000Y-9200000D02*
G75*
G02*
X8030000Y-9200000I-20000J0D01*
G01*
X8030000Y-9200000D02*
G75*
G02*
X8070000Y-9200000I20000J0D01*
G01*
X8091940Y-2750000D02*
G75*
G02*
X8051940Y-2750000I-20000J0D01*
G01*
X8051940Y-2750000D02*
G75*
G02*
X8091940Y-2750000I20000J0D01*
G01*
X8120000Y-1550000D02*
G75*
G02*
X8080000Y-1550000I-20000J0D01*
G01*
X8080000Y-1550000D02*
G75*
G02*
X8120000Y-1550000I20000J0D01*
G01*
X8220000Y-11500000D02*
G75*
G02*
X8180000Y-11500000I-20000J0D01*
G01*
X8180000Y-11500000D02*
G75*
G02*
X8220000Y-11500000I20000J0D01*
G01*
X8270000Y-3850000D02*
G75*
G02*
X8230000Y-3850000I-20000J0D01*
G01*
X8230000Y-3850000D02*
G75*
G02*
X8270000Y-3850000I20000J0D01*
G01*
X8270000Y-4250000D02*
G75*
G02*
X8230000Y-4250000I-20000J0D01*
G01*
X8230000Y-4250000D02*
G75*
G02*
X8270000Y-4250000I20000J0D01*
G01*
X8341940Y-2750000D02*
G75*
G02*
X8301940Y-2750000I-20000J0D01*
G01*
X8301940Y-2750000D02*
G75*
G02*
X8341940Y-2750000I20000J0D01*
G01*
X8470000Y-6950000D02*
G75*
G02*
X8430000Y-6950000I-20000J0D01*
G01*
X8430000Y-6950000D02*
G75*
G02*
X8470000Y-6950000I20000J0D01*
G01*
X8518000Y-4425000D02*
G75*
G02*
X8478000Y-4425000I-20000J0D01*
G01*
X8478000Y-4425000D02*
G75*
G02*
X8518000Y-4425000I20000J0D01*
G01*
X8520000Y-2450000D02*
G75*
G02*
X8480000Y-2450000I-20000J0D01*
G01*
X8480000Y-2450000D02*
G75*
G02*
X8520000Y-2450000I20000J0D01*
G01*
X8520000Y-7500000D02*
G75*
G02*
X8480000Y-7500000I-20000J0D01*
G01*
X8480000Y-7500000D02*
G75*
G02*
X8520000Y-7500000I20000J0D01*
G01*
X8568000Y-4825000D02*
G75*
G02*
X8528000Y-4825000I-20000J0D01*
G01*
X8528000Y-4825000D02*
G75*
G02*
X8568000Y-4825000I20000J0D01*
G01*
X8620000Y-10350000D02*
G75*
G02*
X8580000Y-10350000I-20000J0D01*
G01*
X8580000Y-10350000D02*
G75*
G02*
X8620000Y-10350000I20000J0D01*
G01*
X8820000Y-3150000D02*
G75*
G02*
X8780000Y-3150000I-20000J0D01*
G01*
X8780000Y-3150000D02*
G75*
G02*
X8820000Y-3150000I20000J0D01*
G01*
X8820000Y-11050000D02*
G75*
G02*
X8780000Y-11050000I-20000J0D01*
G01*
X8780000Y-11050000D02*
G75*
G02*
X8820000Y-11050000I20000J0D01*
G01*
X8820000Y-11500000D02*
G75*
G02*
X8780000Y-11500000I-20000J0D01*
G01*
X8780000Y-11500000D02*
G75*
G02*
X8820000Y-11500000I20000J0D01*
G01*
X8843000Y-3350000D02*
G75*
G02*
X8803000Y-3350000I-20000J0D01*
G01*
X8803000Y-3350000D02*
G75*
G02*
X8843000Y-3350000I20000J0D01*
G01*
X8920000Y-2550000D02*
G75*
G02*
X8880000Y-2550000I-20000J0D01*
G01*
X8880000Y-2550000D02*
G75*
G02*
X8920000Y-2550000I20000J0D01*
G01*
X8920000Y-6450000D02*
G75*
G02*
X8880000Y-6450000I-20000J0D01*
G01*
X8880000Y-6450000D02*
G75*
G02*
X8920000Y-6450000I20000J0D01*
G01*
X9020000Y-7500000D02*
G75*
G02*
X8980000Y-7500000I-20000J0D01*
G01*
X8980000Y-7500000D02*
G75*
G02*
X9020000Y-7500000I20000J0D01*
G01*
X9068000Y-4475000D02*
G75*
G02*
X9028000Y-4475000I-20000J0D01*
G01*
X9028000Y-4475000D02*
G75*
G02*
X9068000Y-4475000I20000J0D01*
G01*
X9120000Y-1700000D02*
G75*
G02*
X9080000Y-1700000I-20000J0D01*
G01*
X9080000Y-1700000D02*
G75*
G02*
X9120000Y-1700000I20000J0D01*
G01*
X9120000Y-10200000D02*
G75*
G02*
X9080000Y-10200000I-20000J0D01*
G01*
X9080000Y-10200000D02*
G75*
G02*
X9120000Y-10200000I20000J0D01*
G01*
X9170000Y-3350000D02*
G75*
G02*
X9130000Y-3350000I-20000J0D01*
G01*
X9130000Y-3350000D02*
G75*
G02*
X9170000Y-3350000I20000J0D01*
G01*
X9170000Y-5250000D02*
G75*
G02*
X9130000Y-5250000I-20000J0D01*
G01*
X9130000Y-5250000D02*
G75*
G02*
X9170000Y-5250000I20000J0D01*
G01*
X9270000Y-2650000D02*
G75*
G02*
X9230000Y-2650000I-20000J0D01*
G01*
X9230000Y-2650000D02*
G75*
G02*
X9270000Y-2650000I20000J0D01*
G01*
X9291940Y-8950000D02*
G75*
G02*
X9251940Y-8950000I-20000J0D01*
G01*
X9251940Y-8950000D02*
G75*
G02*
X9291940Y-8950000I20000J0D01*
G01*
X9291940Y-9850000D02*
G75*
G02*
X9251940Y-9850000I-20000J0D01*
G01*
X9251940Y-9850000D02*
G75*
G02*
X9291940Y-9850000I20000J0D01*
G01*
X9320000Y-6000000D02*
G75*
G02*
X9280000Y-6000000I-20000J0D01*
G01*
X9280000Y-6000000D02*
G75*
G02*
X9320000Y-6000000I20000J0D01*
G01*
X9341940Y-9400000D02*
G75*
G02*
X9301940Y-9400000I-20000J0D01*
G01*
X9301940Y-9400000D02*
G75*
G02*
X9341940Y-9400000I20000J0D01*
G01*
X9368000Y-3975000D02*
G75*
G02*
X9328000Y-3975000I-20000J0D01*
G01*
X9328000Y-3975000D02*
G75*
G02*
X9368000Y-3975000I20000J0D01*
G01*
X9368000Y-4175000D02*
G75*
G02*
X9328000Y-4175000I-20000J0D01*
G01*
X9328000Y-4175000D02*
G75*
G02*
X9368000Y-4175000I20000J0D01*
G01*
X9370000Y-6900000D02*
G75*
G02*
X9330000Y-6900000I-20000J0D01*
G01*
X9330000Y-6900000D02*
G75*
G02*
X9370000Y-6900000I20000J0D01*
G01*
X9391940Y-9800000D02*
G75*
G02*
X9351940Y-9800000I-20000J0D01*
G01*
X9351940Y-9800000D02*
G75*
G02*
X9391940Y-9800000I20000J0D01*
G01*
X9491940Y-9750000D02*
G75*
G02*
X9451940Y-9750000I-20000J0D01*
G01*
X9451940Y-9750000D02*
G75*
G02*
X9491940Y-9750000I20000J0D01*
G01*
X9520000Y-2450000D02*
G75*
G02*
X9480000Y-2450000I-20000J0D01*
G01*
X9480000Y-2450000D02*
G75*
G02*
X9520000Y-2450000I20000J0D01*
G01*
X9541940Y-9600000D02*
G75*
G02*
X9501940Y-9600000I-20000J0D01*
G01*
X9501940Y-9600000D02*
G75*
G02*
X9541940Y-9600000I20000J0D01*
G01*
X9620000Y-3800000D02*
G75*
G02*
X9580000Y-3800000I-20000J0D01*
G01*
X9580000Y-3800000D02*
G75*
G02*
X9620000Y-3800000I20000J0D01*
G01*
X9670000Y-5000000D02*
G75*
G02*
X9630000Y-5000000I-20000J0D01*
G01*
X9630000Y-5000000D02*
G75*
G02*
X9670000Y-5000000I20000J0D01*
G01*
X9691940Y-9000000D02*
G75*
G02*
X9651940Y-9000000I-20000J0D01*
G01*
X9651940Y-9000000D02*
G75*
G02*
X9691940Y-9000000I20000J0D01*
G01*
X9791940Y-8800000D02*
G75*
G02*
X9751940Y-8800000I-20000J0D01*
G01*
X9751940Y-8800000D02*
G75*
G02*
X9791940Y-8800000I20000J0D01*
G01*
X9891940Y-7700000D02*
G75*
G02*
X9851940Y-7700000I-20000J0D01*
G01*
X9851940Y-7700000D02*
G75*
G02*
X9891940Y-7700000I20000J0D01*
G01*
X9941940Y-7800000D02*
G75*
G02*
X9901940Y-7800000I-20000J0D01*
G01*
X9901940Y-7800000D02*
G75*
G02*
X9941940Y-7800000I20000J0D01*
G01*
X9991940Y-7900000D02*
G75*
G02*
X9951940Y-7900000I-20000J0D01*
G01*
X9951940Y-7900000D02*
G75*
G02*
X9991940Y-7900000I20000J0D01*
G01*
X10020000Y-8650000D02*
G75*
G02*
X9980000Y-8650000I-20000J0D01*
G01*
X9980000Y-8650000D02*
G75*
G02*
X10020000Y-8650000I20000J0D01*
G01*
X10070000Y-3200000D02*
G75*
G02*
X10030000Y-3200000I-20000J0D01*
G01*
X10030000Y-3200000D02*
G75*
G02*
X10070000Y-3200000I20000J0D01*
G01*
X10070000Y-11400000D02*
G75*
G02*
X10030000Y-11400000I-20000J0D01*
G01*
X10030000Y-11400000D02*
G75*
G02*
X10070000Y-11400000I20000J0D01*
G01*
X10120000Y-5000000D02*
G75*
G02*
X10080000Y-5000000I-20000J0D01*
G01*
X10080000Y-5000000D02*
G75*
G02*
X10120000Y-5000000I20000J0D01*
G01*
X10170000Y-2000000D02*
G75*
G02*
X10130000Y-2000000I-20000J0D01*
G01*
X10130000Y-2000000D02*
G75*
G02*
X10170000Y-2000000I20000J0D01*
G01*
X10270000Y-8350000D02*
G75*
G02*
X10230000Y-8350000I-20000J0D01*
G01*
X10230000Y-8350000D02*
G75*
G02*
X10270000Y-8350000I20000J0D01*
G01*
X10291940Y-9400000D02*
G75*
G02*
X10251940Y-9400000I-20000J0D01*
G01*
X10251940Y-9400000D02*
G75*
G02*
X10291940Y-9400000I20000J0D01*
G01*
X10420000Y-8850000D02*
G75*
G02*
X10380000Y-8850000I-20000J0D01*
G01*
X10380000Y-8850000D02*
G75*
G02*
X10420000Y-8850000I20000J0D01*
G01*
X10441940Y-4400000D02*
G75*
G02*
X10401940Y-4400000I-20000J0D01*
G01*
X10401940Y-4400000D02*
G75*
G02*
X10441940Y-4400000I20000J0D01*
G01*
X10441940Y-10100000D02*
G75*
G02*
X10401940Y-10100000I-20000J0D01*
G01*
X10401940Y-10100000D02*
G75*
G02*
X10441940Y-10100000I20000J0D01*
G01*
X10491940Y-4150000D02*
G75*
G02*
X10451940Y-4150000I-20000J0D01*
G01*
X10451940Y-4150000D02*
G75*
G02*
X10491940Y-4150000I20000J0D01*
G01*
X10541940Y-9950000D02*
G75*
G02*
X10501940Y-9950000I-20000J0D01*
G01*
X10501940Y-9950000D02*
G75*
G02*
X10541940Y-9950000I20000J0D01*
G01*
X10570000Y-6900000D02*
G75*
G02*
X10530000Y-6900000I-20000J0D01*
G01*
X10530000Y-6900000D02*
G75*
G02*
X10570000Y-6900000I20000J0D01*
G01*
X10691940Y-5350000D02*
G75*
G02*
X10651940Y-5350000I-20000J0D01*
G01*
X10651940Y-5350000D02*
G75*
G02*
X10691940Y-5350000I20000J0D01*
G01*
X10691940Y-8150000D02*
G75*
G02*
X10651940Y-8150000I-20000J0D01*
G01*
X10651940Y-8150000D02*
G75*
G02*
X10691940Y-8150000I20000J0D01*
G01*
X10691940Y-8750000D02*
G75*
G02*
X10651940Y-8750000I-20000J0D01*
G01*
X10651940Y-8750000D02*
G75*
G02*
X10691940Y-8750000I20000J0D01*
G01*
X10741940Y-9700000D02*
G75*
G02*
X10701940Y-9700000I-20000J0D01*
G01*
X10701940Y-9700000D02*
G75*
G02*
X10741940Y-9700000I20000J0D01*
G01*
X10791940Y-5350000D02*
G75*
G02*
X10751940Y-5350000I-20000J0D01*
G01*
X10751940Y-5350000D02*
G75*
G02*
X10791940Y-5350000I20000J0D01*
G01*
X10891940Y-8000000D02*
G75*
G02*
X10851940Y-8000000I-20000J0D01*
G01*
X10851940Y-8000000D02*
G75*
G02*
X10891940Y-8000000I20000J0D01*
G01*
X10916940Y-6875000D02*
G75*
G02*
X10876940Y-6875000I-20000J0D01*
G01*
X10876940Y-6875000D02*
G75*
G02*
X10916940Y-6875000I20000J0D01*
G01*
X10920000Y-2050000D02*
G75*
G02*
X10880000Y-2050000I-20000J0D01*
G01*
X10880000Y-2050000D02*
G75*
G02*
X10920000Y-2050000I20000J0D01*
G01*
X10970000Y-11400000D02*
G75*
G02*
X10930000Y-11400000I-20000J0D01*
G01*
X10930000Y-11400000D02*
G75*
G02*
X10970000Y-11400000I20000J0D01*
G01*
X10991940Y-9750000D02*
G75*
G02*
X10951940Y-9750000I-20000J0D01*
G01*
X10951940Y-9750000D02*
G75*
G02*
X10991940Y-9750000I20000J0D01*
G01*
X11020000Y-6600000D02*
G75*
G02*
X10980000Y-6600000I-20000J0D01*
G01*
X10980000Y-6600000D02*
G75*
G02*
X11020000Y-6600000I20000J0D01*
G01*
X11041940Y-7150000D02*
G75*
G02*
X11001940Y-7150000I-20000J0D01*
G01*
X11001940Y-7150000D02*
G75*
G02*
X11041940Y-7150000I20000J0D01*
G01*
X11091940Y-9750000D02*
G75*
G02*
X11051940Y-9750000I-20000J0D01*
G01*
X11051940Y-9750000D02*
G75*
G02*
X11091940Y-9750000I20000J0D01*
G01*
X11141940Y-6250000D02*
G75*
G02*
X11101940Y-6250000I-20000J0D01*
G01*
X11101940Y-6250000D02*
G75*
G02*
X11141940Y-6250000I20000J0D01*
G01*
X11291940Y-4150000D02*
G75*
G02*
X11251940Y-4150000I-20000J0D01*
G01*
X11251940Y-4150000D02*
G75*
G02*
X11291940Y-4150000I20000J0D01*
G01*
X11291940Y-9650000D02*
G75*
G02*
X11251940Y-9650000I-20000J0D01*
G01*
X11251940Y-9650000D02*
G75*
G02*
X11291940Y-9650000I20000J0D01*
G01*
X11320000Y-3900000D02*
G75*
G02*
X11280000Y-3900000I-20000J0D01*
G01*
X11280000Y-3900000D02*
G75*
G02*
X11320000Y-3900000I20000J0D01*
G01*
X11370000Y-3150000D02*
G75*
G02*
X11330000Y-3150000I-20000J0D01*
G01*
X11330000Y-3150000D02*
G75*
G02*
X11370000Y-3150000I20000J0D01*
G01*
X11391940Y-9450000D02*
G75*
G02*
X11351940Y-9450000I-20000J0D01*
G01*
X11351940Y-9450000D02*
G75*
G02*
X11391940Y-9450000I20000J0D01*
G01*
X11470000Y-5750000D02*
G75*
G02*
X11430000Y-5750000I-20000J0D01*
G01*
X11430000Y-5750000D02*
G75*
G02*
X11470000Y-5750000I20000J0D01*
G01*
X11470000Y-11150000D02*
G75*
G02*
X11430000Y-11150000I-20000J0D01*
G01*
X11430000Y-11150000D02*
G75*
G02*
X11470000Y-11150000I20000J0D01*
G01*
X11491940Y-6500000D02*
G75*
G02*
X11451940Y-6500000I-20000J0D01*
G01*
X11451940Y-6500000D02*
G75*
G02*
X11491940Y-6500000I20000J0D01*
G01*
X11520000Y-5000000D02*
G75*
G02*
X11480000Y-5000000I-20000J0D01*
G01*
X11480000Y-5000000D02*
G75*
G02*
X11520000Y-5000000I20000J0D01*
G01*
X11520000Y-9850000D02*
G75*
G02*
X11480000Y-9850000I-20000J0D01*
G01*
X11480000Y-9850000D02*
G75*
G02*
X11520000Y-9850000I20000J0D01*
G01*
X11570000Y-8650000D02*
G75*
G02*
X11530000Y-8650000I-20000J0D01*
G01*
X11530000Y-8650000D02*
G75*
G02*
X11570000Y-8650000I20000J0D01*
G01*
X11820000Y-7100000D02*
G75*
G02*
X11780000Y-7100000I-20000J0D01*
G01*
X11780000Y-7100000D02*
G75*
G02*
X11820000Y-7100000I20000J0D01*
G01*
X11870000Y-1700000D02*
G75*
G02*
X11830000Y-1700000I-20000J0D01*
G01*
X11830000Y-1700000D02*
G75*
G02*
X11870000Y-1700000I20000J0D01*
G01*
X11920000Y-2400000D02*
G75*
G02*
X11880000Y-2400000I-20000J0D01*
G01*
X11880000Y-2400000D02*
G75*
G02*
X11920000Y-2400000I20000J0D01*
G01*
X11920000Y-3150000D02*
G75*
G02*
X11880000Y-3150000I-20000J0D01*
G01*
X11880000Y-3150000D02*
G75*
G02*
X11920000Y-3150000I20000J0D01*
G01*
X11920000Y-3850000D02*
G75*
G02*
X11880000Y-3850000I-20000J0D01*
G01*
X11880000Y-3850000D02*
G75*
G02*
X11920000Y-3850000I20000J0D01*
G01*
X11920000Y-4500000D02*
G75*
G02*
X11880000Y-4500000I-20000J0D01*
G01*
X11880000Y-4500000D02*
G75*
G02*
X11920000Y-4500000I20000J0D01*
G01*
X11970000Y-6500000D02*
G75*
G02*
X11930000Y-6500000I-20000J0D01*
G01*
X11930000Y-6500000D02*
G75*
G02*
X11970000Y-6500000I20000J0D01*
G01*
X12141940Y-7600000D02*
G75*
G02*
X12101940Y-7600000I-20000J0D01*
G01*
X12101940Y-7600000D02*
G75*
G02*
X12141940Y-7600000I20000J0D01*
G01*
X12141940Y-8100000D02*
G75*
G02*
X12101940Y-8100000I-20000J0D01*
G01*
X12101940Y-8100000D02*
G75*
G02*
X12141940Y-8100000I20000J0D01*
G01*
D11*
X2959337Y-12013984D02*
X2959337Y-11813984D01*
X2959337Y-11813984D02*
X3006956Y-11813984D01*
X3006956Y-11813984D02*
X3035528Y-11823507D01*
X3035528Y-11823507D02*
X3054575Y-11842555D01*
X3054575Y-11842555D02*
X3064099Y-11861603D01*
X3064099Y-11861603D02*
X3073623Y-11899698D01*
X3073623Y-11899698D02*
X3073623Y-11928269D01*
X3073623Y-11928269D02*
X3064099Y-11966365D01*
X3064099Y-11966365D02*
X3054575Y-11985412D01*
X3054575Y-11985412D02*
X3035528Y-12004460D01*
X3035528Y-12004460D02*
X3006956Y-12013984D01*
X3006956Y-12013984D02*
X2959337Y-12013984D01*
X3159337Y-12013984D02*
X3159337Y-11880650D01*
X3159337Y-11918746D02*
X3168861Y-11899698D01*
X3168861Y-11899698D02*
X3178385Y-11890174D01*
X3178385Y-11890174D02*
X3197432Y-11880650D01*
X3197432Y-11880650D02*
X3216480Y-11880650D01*
X3283147Y-12013984D02*
X3283147Y-11880650D01*
X3283147Y-11813984D02*
X3273623Y-11823507D01*
X3273623Y-11823507D02*
X3283147Y-11833031D01*
X3283147Y-11833031D02*
X3292670Y-11823507D01*
X3292670Y-11823507D02*
X3283147Y-11813984D01*
X3283147Y-11813984D02*
X3283147Y-11833031D01*
X3406956Y-12013984D02*
X3387909Y-12004460D01*
X3387909Y-12004460D02*
X3378385Y-11985412D01*
X3378385Y-11985412D02*
X3378385Y-11813984D01*
X3511718Y-12013984D02*
X3492670Y-12004460D01*
X3492670Y-12004460D02*
X3483147Y-11985412D01*
X3483147Y-11985412D02*
X3483147Y-11813984D01*
X3740290Y-12013984D02*
X3740290Y-11813984D01*
X3740290Y-11813984D02*
X3806956Y-11956841D01*
X3806956Y-11956841D02*
X3873623Y-11813984D01*
X3873623Y-11813984D02*
X3873623Y-12013984D01*
X4054575Y-12013984D02*
X4054575Y-11909222D01*
X4054575Y-11909222D02*
X4045051Y-11890174D01*
X4045051Y-11890174D02*
X4026004Y-11880650D01*
X4026004Y-11880650D02*
X3987909Y-11880650D01*
X3987909Y-11880650D02*
X3968861Y-11890174D01*
X4054575Y-12004460D02*
X4035528Y-12013984D01*
X4035528Y-12013984D02*
X3987909Y-12013984D01*
X3987909Y-12013984D02*
X3968861Y-12004460D01*
X3968861Y-12004460D02*
X3959337Y-11985412D01*
X3959337Y-11985412D02*
X3959337Y-11966365D01*
X3959337Y-11966365D02*
X3968861Y-11947317D01*
X3968861Y-11947317D02*
X3987909Y-11937793D01*
X3987909Y-11937793D02*
X4035528Y-11937793D01*
X4035528Y-11937793D02*
X4054575Y-11928269D01*
X4149813Y-11880650D02*
X4149813Y-12080650D01*
X4149813Y-11890174D02*
X4168861Y-11880650D01*
X4168861Y-11880650D02*
X4206956Y-11880650D01*
X4206956Y-11880650D02*
X4226004Y-11890174D01*
X4226004Y-11890174D02*
X4235528Y-11899698D01*
X4235528Y-11899698D02*
X4245052Y-11918746D01*
X4245052Y-11918746D02*
X4245052Y-11975888D01*
X4245052Y-11975888D02*
X4235528Y-11994936D01*
X4235528Y-11994936D02*
X4226004Y-12004460D01*
X4226004Y-12004460D02*
X4206956Y-12013984D01*
X4206956Y-12013984D02*
X4168861Y-12013984D01*
X4168861Y-12013984D02*
X4149813Y-12004460D01*
X4330766Y-11994936D02*
X4340290Y-12004460D01*
X4340290Y-12004460D02*
X4330766Y-12013984D01*
X4330766Y-12013984D02*
X4321242Y-12004460D01*
X4321242Y-12004460D02*
X4330766Y-11994936D01*
X4330766Y-11994936D02*
X4330766Y-12013984D01*
X4330766Y-11890174D02*
X4340290Y-11899698D01*
X4340290Y-11899698D02*
X4330766Y-11909222D01*
X4330766Y-11909222D02*
X4321242Y-11899698D01*
X4321242Y-11899698D02*
X4330766Y-11890174D01*
X4330766Y-11890174D02*
X4330766Y-11909222D01*
D12*
X2678560Y-12332500D02*
X2698560Y-12352500D01*
X2698560Y-12332500D02*
X2678560Y-12352500D01*
D11*
X2997432Y-12233984D02*
X3016480Y-12233984D01*
X3016480Y-12233984D02*
X3035528Y-12243507D01*
X3035528Y-12243507D02*
X3045051Y-12253031D01*
X3045051Y-12253031D02*
X3054575Y-12272079D01*
X3054575Y-12272079D02*
X3064099Y-12310174D01*
X3064099Y-12310174D02*
X3064099Y-12357793D01*
X3064099Y-12357793D02*
X3054575Y-12395888D01*
X3054575Y-12395888D02*
X3045051Y-12414936D01*
X3045051Y-12414936D02*
X3035528Y-12424460D01*
X3035528Y-12424460D02*
X3016480Y-12433984D01*
X3016480Y-12433984D02*
X2997432Y-12433984D01*
X2997432Y-12433984D02*
X2978385Y-12424460D01*
X2978385Y-12424460D02*
X2968861Y-12414936D01*
X2968861Y-12414936D02*
X2959337Y-12395888D01*
X2959337Y-12395888D02*
X2949813Y-12357793D01*
X2949813Y-12357793D02*
X2949813Y-12310174D01*
X2949813Y-12310174D02*
X2959337Y-12272079D01*
X2959337Y-12272079D02*
X2968861Y-12253031D01*
X2968861Y-12253031D02*
X2978385Y-12243507D01*
X2978385Y-12243507D02*
X2997432Y-12233984D01*
X3149813Y-12414936D02*
X3159337Y-12424460D01*
X3159337Y-12424460D02*
X3149813Y-12433984D01*
X3149813Y-12433984D02*
X3140290Y-12424460D01*
X3140290Y-12424460D02*
X3149813Y-12414936D01*
X3149813Y-12414936D02*
X3149813Y-12433984D01*
X3235528Y-12253031D02*
X3245051Y-12243507D01*
X3245051Y-12243507D02*
X3264099Y-12233984D01*
X3264099Y-12233984D02*
X3311718Y-12233984D01*
X3311718Y-12233984D02*
X3330766Y-12243507D01*
X3330766Y-12243507D02*
X3340290Y-12253031D01*
X3340290Y-12253031D02*
X3349813Y-12272079D01*
X3349813Y-12272079D02*
X3349813Y-12291126D01*
X3349813Y-12291126D02*
X3340290Y-12319698D01*
X3340290Y-12319698D02*
X3226004Y-12433984D01*
X3226004Y-12433984D02*
X3349813Y-12433984D01*
X3473623Y-12233984D02*
X3492671Y-12233984D01*
X3492671Y-12233984D02*
X3511718Y-12243507D01*
X3511718Y-12243507D02*
X3521242Y-12253031D01*
X3521242Y-12253031D02*
X3530766Y-12272079D01*
X3530766Y-12272079D02*
X3540290Y-12310174D01*
X3540290Y-12310174D02*
X3540290Y-12357793D01*
X3540290Y-12357793D02*
X3530766Y-12395888D01*
X3530766Y-12395888D02*
X3521242Y-12414936D01*
X3521242Y-12414936D02*
X3511718Y-12424460D01*
X3511718Y-12424460D02*
X3492671Y-12433984D01*
X3492671Y-12433984D02*
X3473623Y-12433984D01*
X3473623Y-12433984D02*
X3454575Y-12424460D01*
X3454575Y-12424460D02*
X3445051Y-12414936D01*
X3445051Y-12414936D02*
X3435528Y-12395888D01*
X3435528Y-12395888D02*
X3426004Y-12357793D01*
X3426004Y-12357793D02*
X3426004Y-12310174D01*
X3426004Y-12310174D02*
X3435528Y-12272079D01*
X3435528Y-12272079D02*
X3445051Y-12253031D01*
X3445051Y-12253031D02*
X3454575Y-12243507D01*
X3454575Y-12243507D02*
X3473623Y-12233984D01*
X3664099Y-12233984D02*
X3683147Y-12233984D01*
X3683147Y-12233984D02*
X3702194Y-12243507D01*
X3702194Y-12243507D02*
X3711718Y-12253031D01*
X3711718Y-12253031D02*
X3721242Y-12272079D01*
X3721242Y-12272079D02*
X3730766Y-12310174D01*
X3730766Y-12310174D02*
X3730766Y-12357793D01*
X3730766Y-12357793D02*
X3721242Y-12395888D01*
X3721242Y-12395888D02*
X3711718Y-12414936D01*
X3711718Y-12414936D02*
X3702194Y-12424460D01*
X3702194Y-12424460D02*
X3683147Y-12433984D01*
X3683147Y-12433984D02*
X3664099Y-12433984D01*
X3664099Y-12433984D02*
X3645051Y-12424460D01*
X3645051Y-12424460D02*
X3635528Y-12414936D01*
X3635528Y-12414936D02*
X3626004Y-12395888D01*
X3626004Y-12395888D02*
X3616480Y-12357793D01*
X3616480Y-12357793D02*
X3616480Y-12310174D01*
X3616480Y-12310174D02*
X3626004Y-12272079D01*
X3626004Y-12272079D02*
X3635528Y-12253031D01*
X3635528Y-12253031D02*
X3645051Y-12243507D01*
X3645051Y-12243507D02*
X3664099Y-12233984D01*
X3816480Y-12433984D02*
X3816480Y-12300650D01*
X3816480Y-12319698D02*
X3826004Y-12310174D01*
X3826004Y-12310174D02*
X3845051Y-12300650D01*
X3845051Y-12300650D02*
X3873623Y-12300650D01*
X3873623Y-12300650D02*
X3892671Y-12310174D01*
X3892671Y-12310174D02*
X3902194Y-12329222D01*
X3902194Y-12329222D02*
X3902194Y-12433984D01*
X3902194Y-12329222D02*
X3911718Y-12310174D01*
X3911718Y-12310174D02*
X3930766Y-12300650D01*
X3930766Y-12300650D02*
X3959337Y-12300650D01*
X3959337Y-12300650D02*
X3978385Y-12310174D01*
X3978385Y-12310174D02*
X3987909Y-12329222D01*
X3987909Y-12329222D02*
X3987909Y-12433984D01*
X4083147Y-12433984D02*
X4083147Y-12300650D01*
X4083147Y-12319698D02*
X4092671Y-12310174D01*
X4092671Y-12310174D02*
X4111718Y-12300650D01*
X4111718Y-12300650D02*
X4140290Y-12300650D01*
X4140290Y-12300650D02*
X4159337Y-12310174D01*
X4159337Y-12310174D02*
X4168861Y-12329222D01*
X4168861Y-12329222D02*
X4168861Y-12433984D01*
X4168861Y-12329222D02*
X4178385Y-12310174D01*
X4178385Y-12310174D02*
X4197433Y-12300650D01*
X4197433Y-12300650D02*
X4226004Y-12300650D01*
X4226004Y-12300650D02*
X4245052Y-12310174D01*
X4245052Y-12310174D02*
X4254575Y-12329222D01*
X4254575Y-12329222D02*
X4254575Y-12433984D01*
X4645052Y-12224460D02*
X4473623Y-12481603D01*
X4902195Y-12233984D02*
X4921242Y-12233984D01*
X4921242Y-12233984D02*
X4940290Y-12243507D01*
X4940290Y-12243507D02*
X4949814Y-12253031D01*
X4949814Y-12253031D02*
X4959337Y-12272079D01*
X4959337Y-12272079D02*
X4968861Y-12310174D01*
X4968861Y-12310174D02*
X4968861Y-12357793D01*
X4968861Y-12357793D02*
X4959337Y-12395888D01*
X4959337Y-12395888D02*
X4949814Y-12414936D01*
X4949814Y-12414936D02*
X4940290Y-12424460D01*
X4940290Y-12424460D02*
X4921242Y-12433984D01*
X4921242Y-12433984D02*
X4902195Y-12433984D01*
X4902195Y-12433984D02*
X4883147Y-12424460D01*
X4883147Y-12424460D02*
X4873623Y-12414936D01*
X4873623Y-12414936D02*
X4864099Y-12395888D01*
X4864099Y-12395888D02*
X4854576Y-12357793D01*
X4854576Y-12357793D02*
X4854576Y-12310174D01*
X4854576Y-12310174D02*
X4864099Y-12272079D01*
X4864099Y-12272079D02*
X4873623Y-12253031D01*
X4873623Y-12253031D02*
X4883147Y-12243507D01*
X4883147Y-12243507D02*
X4902195Y-12233984D01*
X5054576Y-12414936D02*
X5064099Y-12424460D01*
X5064099Y-12424460D02*
X5054576Y-12433984D01*
X5054576Y-12433984D02*
X5045052Y-12424460D01*
X5045052Y-12424460D02*
X5054576Y-12414936D01*
X5054576Y-12414936D02*
X5054576Y-12433984D01*
X5187909Y-12233984D02*
X5206957Y-12233984D01*
X5206957Y-12233984D02*
X5226004Y-12243507D01*
X5226004Y-12243507D02*
X5235528Y-12253031D01*
X5235528Y-12253031D02*
X5245052Y-12272079D01*
X5245052Y-12272079D02*
X5254576Y-12310174D01*
X5254576Y-12310174D02*
X5254576Y-12357793D01*
X5254576Y-12357793D02*
X5245052Y-12395888D01*
X5245052Y-12395888D02*
X5235528Y-12414936D01*
X5235528Y-12414936D02*
X5226004Y-12424460D01*
X5226004Y-12424460D02*
X5206957Y-12433984D01*
X5206957Y-12433984D02*
X5187909Y-12433984D01*
X5187909Y-12433984D02*
X5168861Y-12424460D01*
X5168861Y-12424460D02*
X5159337Y-12414936D01*
X5159337Y-12414936D02*
X5149814Y-12395888D01*
X5149814Y-12395888D02*
X5140290Y-12357793D01*
X5140290Y-12357793D02*
X5140290Y-12310174D01*
X5140290Y-12310174D02*
X5149814Y-12272079D01*
X5149814Y-12272079D02*
X5159337Y-12253031D01*
X5159337Y-12253031D02*
X5168861Y-12243507D01*
X5168861Y-12243507D02*
X5187909Y-12233984D01*
X5378385Y-12233984D02*
X5397433Y-12233984D01*
X5397433Y-12233984D02*
X5416480Y-12243507D01*
X5416480Y-12243507D02*
X5426004Y-12253031D01*
X5426004Y-12253031D02*
X5435528Y-12272079D01*
X5435528Y-12272079D02*
X5445052Y-12310174D01*
X5445052Y-12310174D02*
X5445052Y-12357793D01*
X5445052Y-12357793D02*
X5435528Y-12395888D01*
X5435528Y-12395888D02*
X5426004Y-12414936D01*
X5426004Y-12414936D02*
X5416480Y-12424460D01*
X5416480Y-12424460D02*
X5397433Y-12433984D01*
X5397433Y-12433984D02*
X5378385Y-12433984D01*
X5378385Y-12433984D02*
X5359337Y-12424460D01*
X5359337Y-12424460D02*
X5349814Y-12414936D01*
X5349814Y-12414936D02*
X5340290Y-12395888D01*
X5340290Y-12395888D02*
X5330766Y-12357793D01*
X5330766Y-12357793D02*
X5330766Y-12310174D01*
X5330766Y-12310174D02*
X5340290Y-12272079D01*
X5340290Y-12272079D02*
X5349814Y-12253031D01*
X5349814Y-12253031D02*
X5359337Y-12243507D01*
X5359337Y-12243507D02*
X5378385Y-12233984D01*
X5511718Y-12233984D02*
X5645052Y-12233984D01*
X5645052Y-12233984D02*
X5559337Y-12433984D01*
X5730766Y-12433984D02*
X5768861Y-12433984D01*
X5768861Y-12433984D02*
X5787909Y-12424460D01*
X5787909Y-12424460D02*
X5797433Y-12414936D01*
X5797433Y-12414936D02*
X5816480Y-12386365D01*
X5816480Y-12386365D02*
X5826004Y-12348269D01*
X5826004Y-12348269D02*
X5826004Y-12272079D01*
X5826004Y-12272079D02*
X5816480Y-12253031D01*
X5816480Y-12253031D02*
X5806956Y-12243507D01*
X5806956Y-12243507D02*
X5787909Y-12233984D01*
X5787909Y-12233984D02*
X5749814Y-12233984D01*
X5749814Y-12233984D02*
X5730766Y-12243507D01*
X5730766Y-12243507D02*
X5721242Y-12253031D01*
X5721242Y-12253031D02*
X5711718Y-12272079D01*
X5711718Y-12272079D02*
X5711718Y-12319698D01*
X5711718Y-12319698D02*
X5721242Y-12338746D01*
X5721242Y-12338746D02*
X5730766Y-12348269D01*
X5730766Y-12348269D02*
X5749814Y-12357793D01*
X5749814Y-12357793D02*
X5787909Y-12357793D01*
X5787909Y-12357793D02*
X5806956Y-12348269D01*
X5806956Y-12348269D02*
X5816480Y-12338746D01*
X5816480Y-12338746D02*
X5826004Y-12319698D01*
X5902195Y-12233984D02*
X5902195Y-12272079D01*
X5978385Y-12233984D02*
X5978385Y-12272079D01*
X6273623Y-12510174D02*
X6264099Y-12500650D01*
X6264099Y-12500650D02*
X6245052Y-12472079D01*
X6245052Y-12472079D02*
X6235528Y-12453031D01*
X6235528Y-12453031D02*
X6226004Y-12424460D01*
X6226004Y-12424460D02*
X6216480Y-12376841D01*
X6216480Y-12376841D02*
X6216480Y-12338746D01*
X6216480Y-12338746D02*
X6226004Y-12291126D01*
X6226004Y-12291126D02*
X6235528Y-12262555D01*
X6235528Y-12262555D02*
X6245052Y-12243507D01*
X6245052Y-12243507D02*
X6264099Y-12214936D01*
X6264099Y-12214936D02*
X6273623Y-12205412D01*
X6454576Y-12433984D02*
X6340290Y-12433984D01*
X6397433Y-12433984D02*
X6397433Y-12233984D01*
X6397433Y-12233984D02*
X6378385Y-12262555D01*
X6378385Y-12262555D02*
X6359337Y-12281603D01*
X6359337Y-12281603D02*
X6340290Y-12291126D01*
X6530766Y-12253031D02*
X6540290Y-12243507D01*
X6540290Y-12243507D02*
X6559337Y-12233984D01*
X6559337Y-12233984D02*
X6606957Y-12233984D01*
X6606957Y-12233984D02*
X6626004Y-12243507D01*
X6626004Y-12243507D02*
X6635528Y-12253031D01*
X6635528Y-12253031D02*
X6645052Y-12272079D01*
X6645052Y-12272079D02*
X6645052Y-12291126D01*
X6645052Y-12291126D02*
X6635528Y-12319698D01*
X6635528Y-12319698D02*
X6521242Y-12433984D01*
X6521242Y-12433984D02*
X6645052Y-12433984D01*
X6883147Y-12433984D02*
X6883147Y-12233984D01*
X6968861Y-12433984D02*
X6968861Y-12329222D01*
X6968861Y-12329222D02*
X6959338Y-12310174D01*
X6959338Y-12310174D02*
X6940290Y-12300650D01*
X6940290Y-12300650D02*
X6911718Y-12300650D01*
X6911718Y-12300650D02*
X6892671Y-12310174D01*
X6892671Y-12310174D02*
X6883147Y-12319698D01*
X7092671Y-12433984D02*
X7073623Y-12424460D01*
X7073623Y-12424460D02*
X7064099Y-12414936D01*
X7064099Y-12414936D02*
X7054576Y-12395888D01*
X7054576Y-12395888D02*
X7054576Y-12338746D01*
X7054576Y-12338746D02*
X7064099Y-12319698D01*
X7064099Y-12319698D02*
X7073623Y-12310174D01*
X7073623Y-12310174D02*
X7092671Y-12300650D01*
X7092671Y-12300650D02*
X7121242Y-12300650D01*
X7121242Y-12300650D02*
X7140290Y-12310174D01*
X7140290Y-12310174D02*
X7149814Y-12319698D01*
X7149814Y-12319698D02*
X7159338Y-12338746D01*
X7159338Y-12338746D02*
X7159338Y-12395888D01*
X7159338Y-12395888D02*
X7149814Y-12414936D01*
X7149814Y-12414936D02*
X7140290Y-12424460D01*
X7140290Y-12424460D02*
X7121242Y-12433984D01*
X7121242Y-12433984D02*
X7092671Y-12433984D01*
X7273623Y-12433984D02*
X7254576Y-12424460D01*
X7254576Y-12424460D02*
X7245052Y-12405412D01*
X7245052Y-12405412D02*
X7245052Y-12233984D01*
X7426004Y-12424460D02*
X7406957Y-12433984D01*
X7406957Y-12433984D02*
X7368861Y-12433984D01*
X7368861Y-12433984D02*
X7349814Y-12424460D01*
X7349814Y-12424460D02*
X7340290Y-12405412D01*
X7340290Y-12405412D02*
X7340290Y-12329222D01*
X7340290Y-12329222D02*
X7349814Y-12310174D01*
X7349814Y-12310174D02*
X7368861Y-12300650D01*
X7368861Y-12300650D02*
X7406957Y-12300650D01*
X7406957Y-12300650D02*
X7426004Y-12310174D01*
X7426004Y-12310174D02*
X7435528Y-12329222D01*
X7435528Y-12329222D02*
X7435528Y-12348269D01*
X7435528Y-12348269D02*
X7340290Y-12367317D01*
X7511719Y-12424460D02*
X7530766Y-12433984D01*
X7530766Y-12433984D02*
X7568861Y-12433984D01*
X7568861Y-12433984D02*
X7587909Y-12424460D01*
X7587909Y-12424460D02*
X7597433Y-12405412D01*
X7597433Y-12405412D02*
X7597433Y-12395888D01*
X7597433Y-12395888D02*
X7587909Y-12376841D01*
X7587909Y-12376841D02*
X7568861Y-12367317D01*
X7568861Y-12367317D02*
X7540290Y-12367317D01*
X7540290Y-12367317D02*
X7521242Y-12357793D01*
X7521242Y-12357793D02*
X7511719Y-12338746D01*
X7511719Y-12338746D02*
X7511719Y-12329222D01*
X7511719Y-12329222D02*
X7521242Y-12310174D01*
X7521242Y-12310174D02*
X7540290Y-12300650D01*
X7540290Y-12300650D02*
X7568861Y-12300650D01*
X7568861Y-12300650D02*
X7587909Y-12310174D01*
X7664100Y-12510174D02*
X7673623Y-12500650D01*
X7673623Y-12500650D02*
X7692671Y-12472079D01*
X7692671Y-12472079D02*
X7702195Y-12453031D01*
X7702195Y-12453031D02*
X7711719Y-12424460D01*
X7711719Y-12424460D02*
X7721242Y-12376841D01*
X7721242Y-12376841D02*
X7721242Y-12338746D01*
X7721242Y-12338746D02*
X7711719Y-12291126D01*
X7711719Y-12291126D02*
X7702195Y-12262555D01*
X7702195Y-12262555D02*
X7692671Y-12243507D01*
X7692671Y-12243507D02*
X7673623Y-12214936D01*
X7673623Y-12214936D02*
X7664100Y-12205412D01*
D12*
X2698560Y-12606500D02*
G75*
G02*
X2658560Y-12606500I-20000J0D01*
G01*
X2658560Y-12606500D02*
G75*
G02*
X2698560Y-12606500I20000J0D01*
G01*
D11*
X2997432Y-12497984D02*
X3016480Y-12497984D01*
X3016480Y-12497984D02*
X3035528Y-12507507D01*
X3035528Y-12507507D02*
X3045051Y-12517031D01*
X3045051Y-12517031D02*
X3054575Y-12536079D01*
X3054575Y-12536079D02*
X3064099Y-12574174D01*
X3064099Y-12574174D02*
X3064099Y-12621793D01*
X3064099Y-12621793D02*
X3054575Y-12659888D01*
X3054575Y-12659888D02*
X3045051Y-12678936D01*
X3045051Y-12678936D02*
X3035528Y-12688460D01*
X3035528Y-12688460D02*
X3016480Y-12697984D01*
X3016480Y-12697984D02*
X2997432Y-12697984D01*
X2997432Y-12697984D02*
X2978385Y-12688460D01*
X2978385Y-12688460D02*
X2968861Y-12678936D01*
X2968861Y-12678936D02*
X2959337Y-12659888D01*
X2959337Y-12659888D02*
X2949813Y-12621793D01*
X2949813Y-12621793D02*
X2949813Y-12574174D01*
X2949813Y-12574174D02*
X2959337Y-12536079D01*
X2959337Y-12536079D02*
X2968861Y-12517031D01*
X2968861Y-12517031D02*
X2978385Y-12507507D01*
X2978385Y-12507507D02*
X2997432Y-12497984D01*
X3149813Y-12678936D02*
X3159337Y-12688460D01*
X3159337Y-12688460D02*
X3149813Y-12697984D01*
X3149813Y-12697984D02*
X3140290Y-12688460D01*
X3140290Y-12688460D02*
X3149813Y-12678936D01*
X3149813Y-12678936D02*
X3149813Y-12697984D01*
X3330766Y-12564650D02*
X3330766Y-12697984D01*
X3283147Y-12488460D02*
X3235528Y-12631317D01*
X3235528Y-12631317D02*
X3359337Y-12631317D01*
X3473623Y-12497984D02*
X3492671Y-12497984D01*
X3492671Y-12497984D02*
X3511718Y-12507507D01*
X3511718Y-12507507D02*
X3521242Y-12517031D01*
X3521242Y-12517031D02*
X3530766Y-12536079D01*
X3530766Y-12536079D02*
X3540290Y-12574174D01*
X3540290Y-12574174D02*
X3540290Y-12621793D01*
X3540290Y-12621793D02*
X3530766Y-12659888D01*
X3530766Y-12659888D02*
X3521242Y-12678936D01*
X3521242Y-12678936D02*
X3511718Y-12688460D01*
X3511718Y-12688460D02*
X3492671Y-12697984D01*
X3492671Y-12697984D02*
X3473623Y-12697984D01*
X3473623Y-12697984D02*
X3454575Y-12688460D01*
X3454575Y-12688460D02*
X3445051Y-12678936D01*
X3445051Y-12678936D02*
X3435528Y-12659888D01*
X3435528Y-12659888D02*
X3426004Y-12621793D01*
X3426004Y-12621793D02*
X3426004Y-12574174D01*
X3426004Y-12574174D02*
X3435528Y-12536079D01*
X3435528Y-12536079D02*
X3445051Y-12517031D01*
X3445051Y-12517031D02*
X3454575Y-12507507D01*
X3454575Y-12507507D02*
X3473623Y-12497984D01*
X3664099Y-12497984D02*
X3683147Y-12497984D01*
X3683147Y-12497984D02*
X3702194Y-12507507D01*
X3702194Y-12507507D02*
X3711718Y-12517031D01*
X3711718Y-12517031D02*
X3721242Y-12536079D01*
X3721242Y-12536079D02*
X3730766Y-12574174D01*
X3730766Y-12574174D02*
X3730766Y-12621793D01*
X3730766Y-12621793D02*
X3721242Y-12659888D01*
X3721242Y-12659888D02*
X3711718Y-12678936D01*
X3711718Y-12678936D02*
X3702194Y-12688460D01*
X3702194Y-12688460D02*
X3683147Y-12697984D01*
X3683147Y-12697984D02*
X3664099Y-12697984D01*
X3664099Y-12697984D02*
X3645051Y-12688460D01*
X3645051Y-12688460D02*
X3635528Y-12678936D01*
X3635528Y-12678936D02*
X3626004Y-12659888D01*
X3626004Y-12659888D02*
X3616480Y-12621793D01*
X3616480Y-12621793D02*
X3616480Y-12574174D01*
X3616480Y-12574174D02*
X3626004Y-12536079D01*
X3626004Y-12536079D02*
X3635528Y-12517031D01*
X3635528Y-12517031D02*
X3645051Y-12507507D01*
X3645051Y-12507507D02*
X3664099Y-12497984D01*
X3816480Y-12697984D02*
X3816480Y-12564650D01*
X3816480Y-12583698D02*
X3826004Y-12574174D01*
X3826004Y-12574174D02*
X3845051Y-12564650D01*
X3845051Y-12564650D02*
X3873623Y-12564650D01*
X3873623Y-12564650D02*
X3892671Y-12574174D01*
X3892671Y-12574174D02*
X3902194Y-12593222D01*
X3902194Y-12593222D02*
X3902194Y-12697984D01*
X3902194Y-12593222D02*
X3911718Y-12574174D01*
X3911718Y-12574174D02*
X3930766Y-12564650D01*
X3930766Y-12564650D02*
X3959337Y-12564650D01*
X3959337Y-12564650D02*
X3978385Y-12574174D01*
X3978385Y-12574174D02*
X3987909Y-12593222D01*
X3987909Y-12593222D02*
X3987909Y-12697984D01*
X4083147Y-12697984D02*
X4083147Y-12564650D01*
X4083147Y-12583698D02*
X4092671Y-12574174D01*
X4092671Y-12574174D02*
X4111718Y-12564650D01*
X4111718Y-12564650D02*
X4140290Y-12564650D01*
X4140290Y-12564650D02*
X4159337Y-12574174D01*
X4159337Y-12574174D02*
X4168861Y-12593222D01*
X4168861Y-12593222D02*
X4168861Y-12697984D01*
X4168861Y-12593222D02*
X4178385Y-12574174D01*
X4178385Y-12574174D02*
X4197433Y-12564650D01*
X4197433Y-12564650D02*
X4226004Y-12564650D01*
X4226004Y-12564650D02*
X4245052Y-12574174D01*
X4245052Y-12574174D02*
X4254575Y-12593222D01*
X4254575Y-12593222D02*
X4254575Y-12697984D01*
X4645052Y-12488460D02*
X4473623Y-12745603D01*
X4902195Y-12497984D02*
X4921242Y-12497984D01*
X4921242Y-12497984D02*
X4940290Y-12507507D01*
X4940290Y-12507507D02*
X4949814Y-12517031D01*
X4949814Y-12517031D02*
X4959337Y-12536079D01*
X4959337Y-12536079D02*
X4968861Y-12574174D01*
X4968861Y-12574174D02*
X4968861Y-12621793D01*
X4968861Y-12621793D02*
X4959337Y-12659888D01*
X4959337Y-12659888D02*
X4949814Y-12678936D01*
X4949814Y-12678936D02*
X4940290Y-12688460D01*
X4940290Y-12688460D02*
X4921242Y-12697984D01*
X4921242Y-12697984D02*
X4902195Y-12697984D01*
X4902195Y-12697984D02*
X4883147Y-12688460D01*
X4883147Y-12688460D02*
X4873623Y-12678936D01*
X4873623Y-12678936D02*
X4864099Y-12659888D01*
X4864099Y-12659888D02*
X4854576Y-12621793D01*
X4854576Y-12621793D02*
X4854576Y-12574174D01*
X4854576Y-12574174D02*
X4864099Y-12536079D01*
X4864099Y-12536079D02*
X4873623Y-12517031D01*
X4873623Y-12517031D02*
X4883147Y-12507507D01*
X4883147Y-12507507D02*
X4902195Y-12497984D01*
X5054576Y-12678936D02*
X5064099Y-12688460D01*
X5064099Y-12688460D02*
X5054576Y-12697984D01*
X5054576Y-12697984D02*
X5045052Y-12688460D01*
X5045052Y-12688460D02*
X5054576Y-12678936D01*
X5054576Y-12678936D02*
X5054576Y-12697984D01*
X5187909Y-12497984D02*
X5206957Y-12497984D01*
X5206957Y-12497984D02*
X5226004Y-12507507D01*
X5226004Y-12507507D02*
X5235528Y-12517031D01*
X5235528Y-12517031D02*
X5245052Y-12536079D01*
X5245052Y-12536079D02*
X5254576Y-12574174D01*
X5254576Y-12574174D02*
X5254576Y-12621793D01*
X5254576Y-12621793D02*
X5245052Y-12659888D01*
X5245052Y-12659888D02*
X5235528Y-12678936D01*
X5235528Y-12678936D02*
X5226004Y-12688460D01*
X5226004Y-12688460D02*
X5206957Y-12697984D01*
X5206957Y-12697984D02*
X5187909Y-12697984D01*
X5187909Y-12697984D02*
X5168861Y-12688460D01*
X5168861Y-12688460D02*
X5159337Y-12678936D01*
X5159337Y-12678936D02*
X5149814Y-12659888D01*
X5149814Y-12659888D02*
X5140290Y-12621793D01*
X5140290Y-12621793D02*
X5140290Y-12574174D01*
X5140290Y-12574174D02*
X5149814Y-12536079D01*
X5149814Y-12536079D02*
X5159337Y-12517031D01*
X5159337Y-12517031D02*
X5168861Y-12507507D01*
X5168861Y-12507507D02*
X5187909Y-12497984D01*
X5445052Y-12697984D02*
X5330766Y-12697984D01*
X5387909Y-12697984D02*
X5387909Y-12497984D01*
X5387909Y-12497984D02*
X5368861Y-12526555D01*
X5368861Y-12526555D02*
X5349814Y-12545603D01*
X5349814Y-12545603D02*
X5330766Y-12555126D01*
X5626004Y-12497984D02*
X5530766Y-12497984D01*
X5530766Y-12497984D02*
X5521242Y-12593222D01*
X5521242Y-12593222D02*
X5530766Y-12583698D01*
X5530766Y-12583698D02*
X5549814Y-12574174D01*
X5549814Y-12574174D02*
X5597433Y-12574174D01*
X5597433Y-12574174D02*
X5616480Y-12583698D01*
X5616480Y-12583698D02*
X5626004Y-12593222D01*
X5626004Y-12593222D02*
X5635528Y-12612269D01*
X5635528Y-12612269D02*
X5635528Y-12659888D01*
X5635528Y-12659888D02*
X5626004Y-12678936D01*
X5626004Y-12678936D02*
X5616480Y-12688460D01*
X5616480Y-12688460D02*
X5597433Y-12697984D01*
X5597433Y-12697984D02*
X5549814Y-12697984D01*
X5549814Y-12697984D02*
X5530766Y-12688460D01*
X5530766Y-12688460D02*
X5521242Y-12678936D01*
X5702195Y-12497984D02*
X5835528Y-12497984D01*
X5835528Y-12497984D02*
X5749814Y-12697984D01*
X5902195Y-12497984D02*
X5902195Y-12536079D01*
X5978385Y-12497984D02*
X5978385Y-12536079D01*
X6273623Y-12774174D02*
X6264099Y-12764650D01*
X6264099Y-12764650D02*
X6245052Y-12736079D01*
X6245052Y-12736079D02*
X6235528Y-12717031D01*
X6235528Y-12717031D02*
X6226004Y-12688460D01*
X6226004Y-12688460D02*
X6216480Y-12640841D01*
X6216480Y-12640841D02*
X6216480Y-12602746D01*
X6216480Y-12602746D02*
X6226004Y-12555126D01*
X6226004Y-12555126D02*
X6235528Y-12526555D01*
X6235528Y-12526555D02*
X6245052Y-12507507D01*
X6245052Y-12507507D02*
X6264099Y-12478936D01*
X6264099Y-12478936D02*
X6273623Y-12469412D01*
X6454576Y-12697984D02*
X6340290Y-12697984D01*
X6397433Y-12697984D02*
X6397433Y-12497984D01*
X6397433Y-12497984D02*
X6378385Y-12526555D01*
X6378385Y-12526555D02*
X6359337Y-12545603D01*
X6359337Y-12545603D02*
X6340290Y-12555126D01*
X6635528Y-12497984D02*
X6540290Y-12497984D01*
X6540290Y-12497984D02*
X6530766Y-12593222D01*
X6530766Y-12593222D02*
X6540290Y-12583698D01*
X6540290Y-12583698D02*
X6559337Y-12574174D01*
X6559337Y-12574174D02*
X6606957Y-12574174D01*
X6606957Y-12574174D02*
X6626004Y-12583698D01*
X6626004Y-12583698D02*
X6635528Y-12593222D01*
X6635528Y-12593222D02*
X6645052Y-12612269D01*
X6645052Y-12612269D02*
X6645052Y-12659888D01*
X6645052Y-12659888D02*
X6635528Y-12678936D01*
X6635528Y-12678936D02*
X6626004Y-12688460D01*
X6626004Y-12688460D02*
X6606957Y-12697984D01*
X6606957Y-12697984D02*
X6559337Y-12697984D01*
X6559337Y-12697984D02*
X6540290Y-12688460D01*
X6540290Y-12688460D02*
X6530766Y-12678936D01*
X6826004Y-12497984D02*
X6730766Y-12497984D01*
X6730766Y-12497984D02*
X6721242Y-12593222D01*
X6721242Y-12593222D02*
X6730766Y-12583698D01*
X6730766Y-12583698D02*
X6749814Y-12574174D01*
X6749814Y-12574174D02*
X6797433Y-12574174D01*
X6797433Y-12574174D02*
X6816480Y-12583698D01*
X6816480Y-12583698D02*
X6826004Y-12593222D01*
X6826004Y-12593222D02*
X6835528Y-12612269D01*
X6835528Y-12612269D02*
X6835528Y-12659888D01*
X6835528Y-12659888D02*
X6826004Y-12678936D01*
X6826004Y-12678936D02*
X6816480Y-12688460D01*
X6816480Y-12688460D02*
X6797433Y-12697984D01*
X6797433Y-12697984D02*
X6749814Y-12697984D01*
X6749814Y-12697984D02*
X6730766Y-12688460D01*
X6730766Y-12688460D02*
X6721242Y-12678936D01*
X7073623Y-12697984D02*
X7073623Y-12497984D01*
X7159338Y-12697984D02*
X7159338Y-12593222D01*
X7159338Y-12593222D02*
X7149814Y-12574174D01*
X7149814Y-12574174D02*
X7130766Y-12564650D01*
X7130766Y-12564650D02*
X7102195Y-12564650D01*
X7102195Y-12564650D02*
X7083147Y-12574174D01*
X7083147Y-12574174D02*
X7073623Y-12583698D01*
X7283147Y-12697984D02*
X7264099Y-12688460D01*
X7264099Y-12688460D02*
X7254576Y-12678936D01*
X7254576Y-12678936D02*
X7245052Y-12659888D01*
X7245052Y-12659888D02*
X7245052Y-12602746D01*
X7245052Y-12602746D02*
X7254576Y-12583698D01*
X7254576Y-12583698D02*
X7264099Y-12574174D01*
X7264099Y-12574174D02*
X7283147Y-12564650D01*
X7283147Y-12564650D02*
X7311719Y-12564650D01*
X7311719Y-12564650D02*
X7330766Y-12574174D01*
X7330766Y-12574174D02*
X7340290Y-12583698D01*
X7340290Y-12583698D02*
X7349814Y-12602746D01*
X7349814Y-12602746D02*
X7349814Y-12659888D01*
X7349814Y-12659888D02*
X7340290Y-12678936D01*
X7340290Y-12678936D02*
X7330766Y-12688460D01*
X7330766Y-12688460D02*
X7311719Y-12697984D01*
X7311719Y-12697984D02*
X7283147Y-12697984D01*
X7464099Y-12697984D02*
X7445052Y-12688460D01*
X7445052Y-12688460D02*
X7435528Y-12669412D01*
X7435528Y-12669412D02*
X7435528Y-12497984D01*
X7616480Y-12688460D02*
X7597433Y-12697984D01*
X7597433Y-12697984D02*
X7559338Y-12697984D01*
X7559338Y-12697984D02*
X7540290Y-12688460D01*
X7540290Y-12688460D02*
X7530766Y-12669412D01*
X7530766Y-12669412D02*
X7530766Y-12593222D01*
X7530766Y-12593222D02*
X7540290Y-12574174D01*
X7540290Y-12574174D02*
X7559338Y-12564650D01*
X7559338Y-12564650D02*
X7597433Y-12564650D01*
X7597433Y-12564650D02*
X7616480Y-12574174D01*
X7616480Y-12574174D02*
X7626004Y-12593222D01*
X7626004Y-12593222D02*
X7626004Y-12612269D01*
X7626004Y-12612269D02*
X7530766Y-12631317D01*
X7702195Y-12688460D02*
X7721242Y-12697984D01*
X7721242Y-12697984D02*
X7759338Y-12697984D01*
X7759338Y-12697984D02*
X7778385Y-12688460D01*
X7778385Y-12688460D02*
X7787909Y-12669412D01*
X7787909Y-12669412D02*
X7787909Y-12659888D01*
X7787909Y-12659888D02*
X7778385Y-12640841D01*
X7778385Y-12640841D02*
X7759338Y-12631317D01*
X7759338Y-12631317D02*
X7730766Y-12631317D01*
X7730766Y-12631317D02*
X7711719Y-12621793D01*
X7711719Y-12621793D02*
X7702195Y-12602746D01*
X7702195Y-12602746D02*
X7702195Y-12593222D01*
X7702195Y-12593222D02*
X7711719Y-12574174D01*
X7711719Y-12574174D02*
X7730766Y-12564650D01*
X7730766Y-12564650D02*
X7759338Y-12564650D01*
X7759338Y-12564650D02*
X7778385Y-12574174D01*
X7854576Y-12774174D02*
X7864100Y-12764650D01*
X7864100Y-12764650D02*
X7883147Y-12736079D01*
X7883147Y-12736079D02*
X7892671Y-12717031D01*
X7892671Y-12717031D02*
X7902195Y-12688460D01*
X7902195Y-12688460D02*
X7911719Y-12640841D01*
X7911719Y-12640841D02*
X7911719Y-12602746D01*
X7911719Y-12602746D02*
X7902195Y-12555126D01*
X7902195Y-12555126D02*
X7892671Y-12526555D01*
X7892671Y-12526555D02*
X7883147Y-12507507D01*
X7883147Y-12507507D02*
X7864100Y-12478936D01*
X7864100Y-12478936D02*
X7854576Y-12469412D01*
M02*
