%TF.GenerationSoftware,KiCad,Pcbnew,10.0.0*%
%TF.CreationDate,2026-04-16T20:38:12+02:00*%
%TF.ProjectId,Ohmsprint,4f686d73-7072-4696-9e74-2e6b69636164,rev?*%
%TF.SameCoordinates,Original*%
%TF.FileFunction,Paste,Top*%
%TF.FilePolarity,Positive*%
%FSLAX46Y46*%
G04 Gerber Fmt 4.6, Leading zero omitted, Abs format (unit mm)*
G04 Created by KiCad (PCBNEW 10.0.0) date 2026-04-16 20:38:12*
%MOMM*%
%LPD*%
G01*
G04 APERTURE LIST*
G04 Aperture macros list*
%AMRoundRect*
0 Rectangle with rounded corners*
0 $1 Rounding radius*
0 $2 $3 $4 $5 $6 $7 $8 $9 X,Y pos of 4 corners*
0 Add a 4 corners polygon primitive as box body*
4,1,4,$2,$3,$4,$5,$6,$7,$8,$9,$2,$3,0*
0 Add four circle primitives for the rounded corners*
1,1,$1+$1,$2,$3*
1,1,$1+$1,$4,$5*
1,1,$1+$1,$6,$7*
1,1,$1+$1,$8,$9*
0 Add four rect primitives between the rounded corners*
20,1,$1+$1,$2,$3,$4,$5,0*
20,1,$1+$1,$4,$5,$6,$7,0*
20,1,$1+$1,$6,$7,$8,$9,0*
20,1,$1+$1,$8,$9,$2,$3,0*%
G04 Aperture macros list end*
%ADD10C,0.000000*%
%ADD11R,0.300000X1.200000*%
%ADD12R,1.600000X2.400000*%
%ADD13R,0.800000X1.200000*%
%ADD14R,1.500000X2.000000*%
%ADD15R,2.400000X2.800000*%
%ADD16R,2.550000X2.400000*%
%ADD17R,2.550000X2.900000*%
%ADD18R,0.304800X1.143000*%
%ADD19R,0.609600X1.143000*%
%ADD20R,2.159000X2.006600*%
%ADD21R,0.863600X2.209800*%
%ADD22R,1.295400X1.549400*%
%ADD23R,0.399999X1.050000*%
%ADD24R,0.599999X0.200000*%
%ADD25R,0.900000X1.500000*%
%ADD26R,1.500000X0.900000*%
%ADD27R,0.900000X0.900000*%
%ADD28RoundRect,0.225000X-0.250000X0.225000X-0.250000X-0.225000X0.250000X-0.225000X0.250000X0.225000X0*%
%ADD29RoundRect,0.200000X-0.275000X0.200000X-0.275000X-0.200000X0.275000X-0.200000X0.275000X0.200000X0*%
%ADD30RoundRect,0.225000X0.250000X-0.225000X0.250000X0.225000X-0.250000X0.225000X-0.250000X-0.225000X0*%
%ADD31RoundRect,0.200000X0.200000X0.275000X-0.200000X0.275000X-0.200000X-0.275000X0.200000X-0.275000X0*%
%ADD32RoundRect,0.200000X-0.200000X-0.275000X0.200000X-0.275000X0.200000X0.275000X-0.200000X0.275000X0*%
%ADD33RoundRect,0.250000X-0.325000X-1.100000X0.325000X-1.100000X0.325000X1.100000X-0.325000X1.100000X0*%
%ADD34RoundRect,0.062500X0.117500X0.062500X-0.117500X0.062500X-0.117500X-0.062500X0.117500X-0.062500X0*%
%ADD35RoundRect,0.250000X0.375000X1.075000X-0.375000X1.075000X-0.375000X-1.075000X0.375000X-1.075000X0*%
%ADD36RoundRect,0.243750X0.456250X-0.243750X0.456250X0.243750X-0.456250X0.243750X-0.456250X-0.243750X0*%
%ADD37RoundRect,0.200000X0.275000X-0.200000X0.275000X0.200000X-0.275000X0.200000X-0.275000X-0.200000X0*%
%ADD38RoundRect,0.243750X0.243750X0.456250X-0.243750X0.456250X-0.243750X-0.456250X0.243750X-0.456250X0*%
%ADD39R,0.762000X1.460500*%
%ADD40RoundRect,0.243750X-0.456250X0.243750X-0.456250X-0.243750X0.456250X-0.243750X0.456250X0.243750X0*%
%ADD41RoundRect,0.062500X-0.062500X0.117500X-0.062500X-0.117500X0.062500X-0.117500X0.062500X0.117500X0*%
%ADD42RoundRect,0.150000X0.512500X0.150000X-0.512500X0.150000X-0.512500X-0.150000X0.512500X-0.150000X0*%
%ADD43RoundRect,0.225000X-0.225000X-0.250000X0.225000X-0.250000X0.225000X0.250000X-0.225000X0.250000X0*%
%ADD44RoundRect,0.225000X0.225000X0.250000X-0.225000X0.250000X-0.225000X-0.250000X0.225000X-0.250000X0*%
%ADD45RoundRect,0.250000X-1.075000X0.375000X-1.075000X-0.375000X1.075000X-0.375000X1.075000X0.375000X0*%
%ADD46RoundRect,0.150000X-0.587500X-0.150000X0.587500X-0.150000X0.587500X0.150000X-0.587500X0.150000X0*%
%ADD47RoundRect,0.250000X0.262500X0.450000X-0.262500X0.450000X-0.262500X-0.450000X0.262500X-0.450000X0*%
%ADD48RoundRect,0.250000X-1.050000X-0.550000X1.050000X-0.550000X1.050000X0.550000X-1.050000X0.550000X0*%
%ADD49RoundRect,0.150000X-0.150000X0.825000X-0.150000X-0.825000X0.150000X-0.825000X0.150000X0.825000X0*%
%ADD50RoundRect,0.250000X0.450000X-0.262500X0.450000X0.262500X-0.450000X0.262500X-0.450000X-0.262500X0*%
%ADD51RoundRect,0.250000X0.250000X0.475000X-0.250000X0.475000X-0.250000X-0.475000X0.250000X-0.475000X0*%
%ADD52RoundRect,0.250000X0.325000X1.100000X-0.325000X1.100000X-0.325000X-1.100000X0.325000X-1.100000X0*%
%ADD53RoundRect,0.250000X-1.000000X-0.650000X1.000000X-0.650000X1.000000X0.650000X-1.000000X0.650000X0*%
%ADD54RoundRect,0.150000X-0.512500X-0.150000X0.512500X-0.150000X0.512500X0.150000X-0.512500X0.150000X0*%
%ADD55RoundRect,0.062500X-0.117500X-0.062500X0.117500X-0.062500X0.117500X0.062500X-0.117500X0.062500X0*%
%ADD56RoundRect,0.250000X-0.250000X-0.475000X0.250000X-0.475000X0.250000X0.475000X-0.250000X0.475000X0*%
%ADD57R,0.965200X0.254000*%
%ADD58R,0.254000X0.965200*%
%ADD59R,3.352800X3.352800*%
%ADD60RoundRect,0.250000X0.750000X-2.000000X0.750000X2.000000X-0.750000X2.000000X-0.750000X-2.000000X0*%
%ADD61RoundRect,0.100000X-0.850000X-0.100000X0.850000X-0.100000X0.850000X0.100000X-0.850000X0.100000X0*%
%ADD62RoundRect,0.150000X-0.150000X0.587500X-0.150000X-0.587500X0.150000X-0.587500X0.150000X0.587500X0*%
%ADD63RoundRect,0.249998X-3.650002X-4.550002X3.650002X-4.550002X3.650002X4.550002X-3.650002X4.550002X0*%
G04 APERTURE END LIST*
D10*
%TO.C,J5*%
G36*
X93214377Y-113749593D02*
G01*
X92414377Y-113749593D01*
X92414377Y-112149593D01*
X93214377Y-112149593D01*
X93214377Y-113749593D01*
G37*
G36*
X118514377Y-113749593D02*
G01*
X117714377Y-113749593D01*
X117714377Y-112149593D01*
X118514377Y-112149593D01*
X118514377Y-113749593D01*
G37*
%TO.C,U6*%
G36*
X90380000Y-44650000D02*
G01*
X88903600Y-44650000D01*
X88903600Y-43173600D01*
X90380000Y-43173600D01*
X90380000Y-44650000D01*
G37*
G36*
X90380000Y-46326400D02*
G01*
X88903600Y-46326400D01*
X88903600Y-44850000D01*
X90380000Y-44850000D01*
X90380000Y-46326400D01*
G37*
G36*
X92056400Y-44650000D02*
G01*
X90580000Y-44650000D01*
X90580000Y-43173600D01*
X92056400Y-43173600D01*
X92056400Y-44650000D01*
G37*
G36*
X92056400Y-46326400D02*
G01*
X90580000Y-46326400D01*
X90580000Y-44850000D01*
X92056400Y-44850000D01*
X92056400Y-46326400D01*
G37*
%TD*%
D11*
%TO.C,J5*%
X95714397Y-109850000D03*
X96214395Y-109850000D03*
X96714397Y-109850000D03*
X97214396Y-109850000D03*
X97714395Y-109850000D03*
X98214397Y-109850000D03*
X98714396Y-109850000D03*
X99214397Y-109850000D03*
X99714396Y-109850000D03*
X100214395Y-109850000D03*
X100714397Y-109850000D03*
X101214396Y-109850000D03*
X101714397Y-109850000D03*
X102214396Y-109850000D03*
X102714395Y-109850000D03*
X103214397Y-109850000D03*
X103714396Y-109850000D03*
X104214397Y-109850000D03*
X104714396Y-109850000D03*
X105214395Y-109850000D03*
X105714397Y-109850000D03*
X106214396Y-109850000D03*
X106714397Y-109850000D03*
X107214396Y-109850000D03*
X107714395Y-109850000D03*
X108214397Y-109850000D03*
X108714396Y-109850000D03*
X109214397Y-109850000D03*
X109714396Y-109850000D03*
X110214395Y-109850000D03*
X110714397Y-109850000D03*
X111214396Y-109850000D03*
X111714398Y-109850000D03*
X112214397Y-109850000D03*
X112714396Y-109850000D03*
X113214397Y-109850000D03*
X113714396Y-109850000D03*
X114214395Y-109850000D03*
X114714397Y-109850000D03*
X115214396Y-109850000D03*
D12*
X94014396Y-112549593D03*
X116914358Y-112549593D03*
%TD*%
D13*
%TO.C,J1*%
X109200200Y-24117600D03*
X108100200Y-24117600D03*
X107000200Y-24117600D03*
X105900200Y-24117600D03*
X104800200Y-24117600D03*
X103700200Y-24117600D03*
X102600200Y-24117600D03*
X101500200Y-24117600D03*
D14*
X99030200Y-26317600D03*
X99030200Y-18117600D03*
X112920200Y-18117600D03*
X112920200Y-26317600D03*
%TD*%
D15*
%TO.C,J3*%
X41657500Y-76300000D03*
X41657500Y-82400000D03*
X30257500Y-82400000D03*
X30257500Y-76300000D03*
%TD*%
D16*
%TO.C,J4*%
X32650000Y-102600000D03*
D17*
X40000000Y-95200000D03*
D16*
X40000000Y-104500000D03*
%TD*%
D18*
%TO.C,J6*%
X91229999Y-22362800D03*
X90230001Y-22362800D03*
X88729999Y-22362800D03*
X87730001Y-22362800D03*
D19*
X86280001Y-22362800D03*
X87080000Y-22362800D03*
D18*
X88230000Y-22362800D03*
X89230000Y-22362800D03*
X89730000Y-22362800D03*
X90730000Y-22362800D03*
D19*
X91880000Y-22362800D03*
X92680001Y-22362800D03*
D20*
X84370000Y-17857800D03*
X94590000Y-17857800D03*
X84370000Y-21787800D03*
X94590000Y-21787800D03*
%TD*%
D21*
%TO.C,SW1*%
X76969398Y-16753500D03*
X76969398Y-24246500D03*
X72469396Y-16753500D03*
X72469396Y-24246500D03*
%TD*%
%TO.C,SW2*%
X68469398Y-16753500D03*
X68469398Y-24246500D03*
X63969396Y-16753500D03*
X63969396Y-24246500D03*
%TD*%
D22*
%TO.C,SW3*%
X60219397Y-16500000D03*
X60219397Y-24449996D03*
X55719395Y-16500000D03*
X55719395Y-24449996D03*
%TD*%
D23*
%TO.C,U8*%
X54505002Y-52675001D03*
X55205001Y-52675001D03*
D24*
X55980000Y-52750002D03*
X55980000Y-52250001D03*
X55980000Y-51750001D03*
X55980000Y-51250000D03*
D23*
X55205001Y-51325001D03*
X54505002Y-51325001D03*
D24*
X53680002Y-51250000D03*
X53680002Y-51750001D03*
X53680002Y-52250001D03*
X53680002Y-52750002D03*
%TD*%
D25*
%TO.C,U1*%
X121005000Y-60750000D03*
X119735000Y-60750000D03*
X118465000Y-60750000D03*
X117195000Y-60750000D03*
X115925000Y-60750000D03*
X114655000Y-60750000D03*
X113385000Y-60750000D03*
X112115000Y-60750000D03*
X110845000Y-60750000D03*
X109575000Y-60750000D03*
X108305000Y-60750000D03*
X107035000Y-60750000D03*
X105765000Y-60750000D03*
X104495000Y-60750000D03*
D26*
X103245000Y-63790000D03*
X103245000Y-65060000D03*
X103245000Y-66330000D03*
X103245000Y-67600000D03*
X103245000Y-68870000D03*
X103245000Y-70140000D03*
X103245000Y-71410000D03*
X103245000Y-72680000D03*
X103245000Y-73950000D03*
X103245000Y-75220000D03*
D25*
X104495000Y-78250000D03*
X105765000Y-78250000D03*
X107035000Y-78250000D03*
X108305000Y-78250000D03*
X109575000Y-78250000D03*
X110845000Y-78250000D03*
X112115000Y-78250000D03*
X113385000Y-78250000D03*
X114655000Y-78250000D03*
X115925000Y-78250000D03*
X117195000Y-78250000D03*
X118465000Y-78250000D03*
X119735000Y-78250000D03*
X121005000Y-78250000D03*
D27*
X114685000Y-66600000D03*
X113285000Y-66600000D03*
X111885000Y-66600000D03*
X114685000Y-68000000D03*
X113285000Y-68000000D03*
X111885000Y-68000000D03*
X114685000Y-69400000D03*
X113285000Y-69400000D03*
X111885000Y-69400000D03*
%TD*%
D28*
%TO.C,C42*%
X72520000Y-36890000D03*
X72520000Y-38440000D03*
%TD*%
D29*
%TO.C,R20*%
X49480000Y-102275000D03*
X49480000Y-103925000D03*
%TD*%
D30*
%TO.C,C35*%
X74205000Y-61800000D03*
X74205000Y-60250000D03*
%TD*%
D31*
%TO.C,R24*%
X55755000Y-83250000D03*
X54105000Y-83250000D03*
%TD*%
D32*
%TO.C,R54*%
X106894397Y-100000000D03*
X108544397Y-100000000D03*
%TD*%
D31*
%TO.C,R45*%
X98219397Y-81500000D03*
X96569397Y-81500000D03*
%TD*%
D28*
%TO.C,C10*%
X87980000Y-57025000D03*
X87980000Y-58575000D03*
%TD*%
D32*
%TO.C,R34*%
X66655000Y-112575000D03*
X68305000Y-112575000D03*
%TD*%
D30*
%TO.C,C51*%
X111480000Y-37025000D03*
X111480000Y-35475000D03*
%TD*%
%TO.C,C19*%
X53480000Y-106250000D03*
X53480000Y-104700000D03*
%TD*%
D33*
%TO.C,C12*%
X117030000Y-53750000D03*
X119980000Y-53750000D03*
%TD*%
D32*
%TO.C,R47*%
X71155000Y-107750000D03*
X72805000Y-107750000D03*
%TD*%
%TO.C,R29*%
X75980000Y-62800000D03*
X77630000Y-62800000D03*
%TD*%
D29*
%TO.C,R22*%
X117719397Y-95675000D03*
X117719397Y-97325000D03*
%TD*%
D30*
%TO.C,C22*%
X82980000Y-102500000D03*
X82980000Y-100950000D03*
%TD*%
D32*
%TO.C,R63*%
X111219397Y-106500000D03*
X112869397Y-106500000D03*
%TD*%
D34*
%TO.C,D10*%
X89080000Y-27000000D03*
X89920000Y-27000000D03*
%TD*%
D28*
%TO.C,C40*%
X82980000Y-109450000D03*
X82980000Y-111000000D03*
%TD*%
D35*
%TO.C,L2*%
X74105000Y-57300000D03*
X71305000Y-57300000D03*
%TD*%
D36*
%TO.C,D8*%
X117219397Y-90437500D03*
X117219397Y-88562500D03*
%TD*%
D37*
%TO.C,R49*%
X108505000Y-58400000D03*
X108505000Y-56750000D03*
%TD*%
%TO.C,R52*%
X111219397Y-58400000D03*
X111219397Y-56750000D03*
%TD*%
D29*
%TO.C,R9*%
X117000000Y-82100000D03*
X117000000Y-83750000D03*
%TD*%
D32*
%TO.C,R65*%
X71155000Y-110250000D03*
X72805000Y-110250000D03*
%TD*%
D30*
%TO.C,C47*%
X72469398Y-28800002D03*
X72469398Y-27250002D03*
%TD*%
D38*
%TO.C,D7*%
X80395000Y-34940000D03*
X78520000Y-34940000D03*
%TD*%
D37*
%TO.C,R21*%
X44480000Y-103575000D03*
X44480000Y-101925000D03*
%TD*%
D32*
%TO.C,R7*%
X74520000Y-34940000D03*
X76170000Y-34940000D03*
%TD*%
D39*
%TO.C,U5*%
X43451051Y-47721051D03*
X43451051Y-53778951D03*
X39451049Y-47721051D03*
X39451049Y-53778951D03*
%TD*%
D29*
%TO.C,R17*%
X47980000Y-97925000D03*
X47980000Y-99575000D03*
%TD*%
D37*
%TO.C,R28*%
X91480000Y-40075000D03*
X91480000Y-38425000D03*
%TD*%
D31*
%TO.C,R60*%
X50005001Y-77974998D03*
X48355001Y-77974998D03*
%TD*%
D32*
%TO.C,R43*%
X71155000Y-104250000D03*
X72805000Y-104250000D03*
%TD*%
D29*
%TO.C,R19*%
X50480000Y-97925000D03*
X50480000Y-99575000D03*
%TD*%
D40*
%TO.C,D1*%
X73980000Y-78812500D03*
X73980000Y-80687500D03*
%TD*%
D41*
%TO.C,D2*%
X79480000Y-29590000D03*
X79480000Y-28750000D03*
%TD*%
D31*
%TO.C,R56*%
X55719397Y-27500000D03*
X54069397Y-27500000D03*
%TD*%
%TO.C,R62*%
X119544397Y-101000000D03*
X117894397Y-101000000D03*
%TD*%
D32*
%TO.C,R39*%
X73894397Y-97500000D03*
X75544397Y-97500000D03*
%TD*%
D42*
%TO.C,U3*%
X78980000Y-60750000D03*
X78980000Y-59800000D03*
X78980000Y-58850000D03*
X76705000Y-58850000D03*
X76705000Y-59800000D03*
X76705000Y-60750000D03*
%TD*%
D43*
%TO.C,C16*%
X59930000Y-113250000D03*
X61480000Y-113250000D03*
%TD*%
D32*
%TO.C,R30*%
X80155000Y-62800000D03*
X81805000Y-62800000D03*
%TD*%
D29*
%TO.C,R46*%
X110000000Y-81950000D03*
X110000000Y-83600000D03*
%TD*%
D44*
%TO.C,C48*%
X98494397Y-85000000D03*
X96944397Y-85000000D03*
%TD*%
D45*
%TO.C,L1*%
X72520000Y-40940000D03*
X72520000Y-43740000D03*
%TD*%
D29*
%TO.C,R48*%
X119500000Y-83850000D03*
X119500000Y-85500000D03*
%TD*%
%TO.C,R50*%
X98219397Y-104675000D03*
X98219397Y-106325000D03*
%TD*%
D46*
%TO.C,Q2*%
X100980000Y-44750000D03*
X100980000Y-46650000D03*
X102855000Y-45700000D03*
%TD*%
D47*
%TO.C,R44*%
X51480000Y-51250000D03*
X49655000Y-51250000D03*
%TD*%
D37*
%TO.C,R40*%
X95480000Y-30075000D03*
X95480000Y-28425000D03*
%TD*%
D44*
%TO.C,C38*%
X60755000Y-77750000D03*
X59205000Y-77750000D03*
%TD*%
D29*
%TO.C,R51*%
X96480000Y-44750000D03*
X96480000Y-46400000D03*
%TD*%
D48*
%TO.C,C11*%
X58880000Y-73750000D03*
X62480000Y-73750000D03*
%TD*%
D30*
%TO.C,C18*%
X53480000Y-102475000D03*
X53480000Y-100925000D03*
%TD*%
D46*
%TO.C,Q1*%
X100980000Y-40750000D03*
X100980000Y-42650000D03*
X102855000Y-41700000D03*
%TD*%
D33*
%TO.C,C8*%
X76120000Y-43740000D03*
X79070000Y-43740000D03*
%TD*%
D49*
%TO.C,U7*%
X69885000Y-79275000D03*
X68615000Y-79275000D03*
X67345000Y-79275000D03*
X66075000Y-79275000D03*
X66075000Y-84225000D03*
X67345000Y-84225000D03*
X68615000Y-84225000D03*
X69885000Y-84225000D03*
%TD*%
D32*
%TO.C,R55*%
X53330000Y-47750000D03*
X54980000Y-47750000D03*
%TD*%
D50*
%TO.C,R13*%
X111453794Y-104825000D03*
X111453794Y-103000000D03*
%TD*%
D44*
%TO.C,C45*%
X119480000Y-57525000D03*
X117930000Y-57525000D03*
%TD*%
D51*
%TO.C,C2*%
X68430000Y-87750000D03*
X66530000Y-87750000D03*
%TD*%
%TO.C,C3*%
X78655000Y-56300000D03*
X76755000Y-56300000D03*
%TD*%
D43*
%TO.C,C33*%
X76030000Y-65800000D03*
X77580000Y-65800000D03*
%TD*%
D37*
%TO.C,R37*%
X114719397Y-54500000D03*
X114719397Y-52850000D03*
%TD*%
D32*
%TO.C,R59*%
X56330000Y-54750000D03*
X57980000Y-54750000D03*
%TD*%
D29*
%TO.C,R25*%
X108000000Y-81950000D03*
X108000000Y-83600000D03*
%TD*%
D33*
%TO.C,C4*%
X70155000Y-50250000D03*
X73105000Y-50250000D03*
%TD*%
D52*
%TO.C,C5*%
X67480000Y-50250000D03*
X64530000Y-50250000D03*
%TD*%
D53*
%TO.C,D6*%
X38469397Y-19000000D03*
X42469397Y-19000000D03*
%TD*%
D31*
%TO.C,R61*%
X54005001Y-77974998D03*
X52355001Y-77974998D03*
%TD*%
D29*
%TO.C,R41*%
X114500000Y-82100000D03*
X114500000Y-83750000D03*
%TD*%
D37*
%TO.C,R57*%
X96480000Y-41900000D03*
X96480000Y-40250000D03*
%TD*%
D28*
%TO.C,C44*%
X61719397Y-92725000D03*
X61719397Y-94275000D03*
%TD*%
D43*
%TO.C,C41*%
X54205000Y-80750000D03*
X55755000Y-80750000D03*
%TD*%
D33*
%TO.C,C6*%
X76145000Y-39240000D03*
X79095000Y-39240000D03*
%TD*%
D37*
%TO.C,R18*%
X46980000Y-103575000D03*
X46980000Y-101925000D03*
%TD*%
D29*
%TO.C,R16*%
X44480000Y-98100000D03*
X44480000Y-99750000D03*
%TD*%
D54*
%TO.C,U2*%
X66520000Y-37540000D03*
X66520000Y-38490000D03*
X66520000Y-39440000D03*
X68795000Y-39440000D03*
X68795000Y-38490000D03*
X68795000Y-37540000D03*
%TD*%
D28*
%TO.C,C17*%
X86337800Y-28950000D03*
X86337800Y-30500000D03*
%TD*%
D37*
%TO.C,R8*%
X74005000Y-84177500D03*
X74005000Y-82527500D03*
%TD*%
D55*
%TO.C,D11*%
X93420000Y-28000000D03*
X92580000Y-28000000D03*
%TD*%
D30*
%TO.C,C50*%
X87980000Y-55525000D03*
X87980000Y-53975000D03*
%TD*%
D56*
%TO.C,C1*%
X66795000Y-41750000D03*
X68695000Y-41750000D03*
%TD*%
D32*
%TO.C,R3*%
X57330000Y-47750000D03*
X58980000Y-47750000D03*
%TD*%
D37*
%TO.C,R38*%
X106005000Y-58400000D03*
X106005000Y-56750000D03*
%TD*%
D57*
%TO.C,U6*%
X88155900Y-43250000D03*
X88155900Y-43749999D03*
X88155900Y-44250001D03*
X88155900Y-44750000D03*
X88155900Y-45249999D03*
X88155900Y-45750001D03*
X88155900Y-46250000D03*
D58*
X88980000Y-47074100D03*
X89479999Y-47074100D03*
X89980001Y-47074100D03*
X90480000Y-47074100D03*
X90979999Y-47074100D03*
X91480001Y-47074100D03*
X91980000Y-47074100D03*
D57*
X92804100Y-46250000D03*
X92804100Y-45750001D03*
X92804100Y-45249999D03*
X92804100Y-44750000D03*
X92804100Y-44250001D03*
X92804100Y-43749999D03*
X92804100Y-43250000D03*
D58*
X91980000Y-42425900D03*
X91480001Y-42425900D03*
X90979999Y-42425900D03*
X90480000Y-42425900D03*
X89980001Y-42425900D03*
X89479999Y-42425900D03*
X88980000Y-42425900D03*
D59*
X90480000Y-44750000D03*
%TD*%
D43*
%TO.C,C30*%
X46930000Y-45750000D03*
X48480000Y-45750000D03*
%TD*%
D37*
%TO.C,R58*%
X108980000Y-37350000D03*
X108980000Y-35700000D03*
%TD*%
D60*
%TO.C,Y1*%
X77980000Y-111000000D03*
X77980000Y-102500000D03*
%TD*%
D61*
%TO.C,U4*%
X60980000Y-98025000D03*
X60980000Y-98675000D03*
X60980000Y-99325000D03*
X60980000Y-99975000D03*
X60980000Y-100625000D03*
X60980000Y-101275000D03*
X60980000Y-101925000D03*
X60980000Y-102575000D03*
X60980000Y-103225000D03*
X60980000Y-103875000D03*
X60980000Y-104525000D03*
X60980000Y-105175000D03*
X60980000Y-105825000D03*
X60980000Y-106475000D03*
X67980000Y-106475000D03*
X67980000Y-105825000D03*
X67980000Y-105175000D03*
X67980000Y-104525000D03*
X67980000Y-103875000D03*
X67980000Y-103225000D03*
X67980000Y-102575000D03*
X67980000Y-101925000D03*
X67980000Y-101275000D03*
X67980000Y-100625000D03*
X67980000Y-99975000D03*
X67980000Y-99325000D03*
X67980000Y-98675000D03*
X67980000Y-98025000D03*
%TD*%
D62*
%TO.C,Q3*%
X119719397Y-104500000D03*
X117819397Y-104500000D03*
X118769397Y-106375000D03*
%TD*%
D44*
%TO.C,C26*%
X57730001Y-113250000D03*
X56180001Y-113250000D03*
%TD*%
D29*
%TO.C,R32*%
X83612800Y-32075000D03*
X83612800Y-33725000D03*
%TD*%
%TO.C,R31*%
X83612800Y-28575000D03*
X83612800Y-30225000D03*
%TD*%
D28*
%TO.C,C27*%
X74469398Y-27250002D03*
X74469398Y-28800002D03*
%TD*%
D37*
%TO.C,R36*%
X99219397Y-62825000D03*
X99219397Y-61175000D03*
%TD*%
%TO.C,R26*%
X89480000Y-40075000D03*
X89480000Y-38425000D03*
%TD*%
D50*
%TO.C,R11*%
X107453794Y-104825000D03*
X107453794Y-103000000D03*
%TD*%
D44*
%TO.C,C36*%
X68255000Y-109750000D03*
X66705000Y-109750000D03*
%TD*%
D43*
%TO.C,C39*%
X55205000Y-99250000D03*
X56755000Y-99250000D03*
%TD*%
D32*
%TO.C,R33*%
X87655000Y-50750000D03*
X89305000Y-50750000D03*
%TD*%
D30*
%TO.C,C34*%
X50980000Y-55525000D03*
X50980000Y-53975000D03*
%TD*%
D44*
%TO.C,C49*%
X60519396Y-26974998D03*
X58969396Y-26974998D03*
%TD*%
D63*
%TO.C,C37*%
X34469397Y-30500000D03*
X46969397Y-30500000D03*
%TD*%
D29*
%TO.C,R27*%
X89337800Y-28850000D03*
X89337800Y-30500000D03*
%TD*%
D37*
%TO.C,R1*%
X57980000Y-52900000D03*
X57980000Y-51250000D03*
%TD*%
M02*
