%TF.GenerationSoftware,KiCad,Pcbnew,10.0.0*%
%TF.CreationDate,2026-04-16T20:38:12+02:00*%
%TF.ProjectId,Ohmsprint,4f686d73-7072-4696-9e74-2e6b69636164,rev?*%
%TF.SameCoordinates,Original*%
%TF.FileFunction,Copper,L2,Bot*%
%TF.FilePolarity,Positive*%
%FSLAX46Y46*%
G04 Gerber Fmt 4.6, Leading zero omitted, Abs format (unit mm)*
G04 Created by KiCad (PCBNEW 10.0.0) date 2026-04-16 20:38:12*
%MOMM*%
%LPD*%
G01*
G04 APERTURE LIST*
%TA.AperFunction,HeatsinkPad*%
%ADD10C,0.600000*%
%TD*%
%TA.AperFunction,ViaPad*%
%ADD11C,0.800000*%
%TD*%
%TA.AperFunction,Conductor*%
%ADD12C,0.200000*%
%TD*%
%TA.AperFunction,Conductor*%
%ADD13C,0.700000*%
%TD*%
%TA.AperFunction,Conductor*%
%ADD14C,0.600000*%
%TD*%
%TA.AperFunction,Conductor*%
%ADD15C,1.000000*%
%TD*%
%TA.AperFunction,Conductor*%
%ADD16C,0.400000*%
%TD*%
%TA.AperFunction,Conductor*%
%ADD17C,0.300000*%
%TD*%
%TA.AperFunction,Conductor*%
%ADD18C,0.800000*%
%TD*%
G04 APERTURE END LIST*
D10*
%TO.P,U1,39,GND_39*%
%TO.N,GND*%
X113985000Y-66600000D03*
X112585000Y-66600000D03*
X114685000Y-67300000D03*
X113285000Y-67300000D03*
X111885000Y-67300000D03*
X113985000Y-67975000D03*
X112585000Y-67975000D03*
X114685000Y-68700000D03*
X113285000Y-68700000D03*
X111885000Y-68700000D03*
X113985000Y-69400000D03*
X112585000Y-69400000D03*
%TD*%
D11*
%TO.N,GND*%
X82500000Y-38500000D03*
X82500000Y-42500000D03*
X90000000Y-75000000D03*
X80500000Y-92000000D03*
X84500000Y-69500000D03*
X76000000Y-73000000D03*
X100500000Y-32000000D03*
X113500000Y-31500000D03*
X119000000Y-45000000D03*
X119000000Y-38500000D03*
X119000000Y-31500000D03*
X119000000Y-24000000D03*
X118500000Y-17000000D03*
X52000000Y-19500000D03*
X47000000Y-16000000D03*
X39000000Y-15500000D03*
X33000000Y-16000000D03*
X30500000Y-20500000D03*
X58000000Y-42500000D03*
X54500000Y-38000000D03*
X51000000Y-40500000D03*
X35000000Y-51000000D03*
X35000000Y-45000000D03*
X30000000Y-39500000D03*
X30000000Y-45000000D03*
X30000000Y-51000000D03*
X30000000Y-57000000D03*
X35000000Y-70000000D03*
X38000000Y-64000000D03*
X40000000Y-59500000D03*
X46000000Y-74500000D03*
X44500000Y-70000000D03*
X55000000Y-70000000D03*
X67500000Y-55500000D03*
X65000000Y-60000000D03*
X65000000Y-65500000D03*
X60000000Y-65000000D03*
X55000000Y-65000000D03*
X50000000Y-60500000D03*
X50000000Y-65000000D03*
X50000000Y-70000000D03*
X45500000Y-90000000D03*
X40500000Y-90000000D03*
X35000000Y-90000000D03*
X30000000Y-90000000D03*
X30000000Y-100000000D03*
X30000000Y-115000000D03*
X30000000Y-110000000D03*
X34500000Y-115000000D03*
X40000000Y-115000000D03*
X48500000Y-115000000D03*
X88000000Y-110500000D03*
X88000000Y-115000000D03*
X82000000Y-115000000D03*
X76000000Y-115000000D03*
X70000000Y-115000000D03*
X63500000Y-115000000D03*
X30000000Y-95500000D03*
X40000000Y-110000000D03*
X35000000Y-110000000D03*
%TO.N,*%
X104000000Y-88500000D03*
%TO.N,VBUS*%
X80719397Y-27500000D03*
X83219397Y-27500000D03*
%TO.N,GND*%
X95000000Y-24500000D03*
X64000000Y-81500000D03*
X91000000Y-17000000D03*
X90480000Y-44750000D03*
X91500000Y-52500000D03*
X114500000Y-57500000D03*
X58500000Y-97000000D03*
X101500000Y-20000000D03*
X89000000Y-25500000D03*
X93500000Y-69000000D03*
X109500000Y-114000000D03*
X89000000Y-64500000D03*
X105500000Y-69000000D03*
X81000000Y-15500000D03*
X60500000Y-86000000D03*
X85000000Y-75000000D03*
X72500000Y-88000000D03*
X92500000Y-26500000D03*
X79000000Y-87000000D03*
X85000000Y-24500000D03*
X78500000Y-81000000D03*
X100000000Y-86500000D03*
X102500000Y-83500000D03*
X115000000Y-98500000D03*
X96500000Y-50000000D03*
X119500000Y-65000000D03*
X29500000Y-64500000D03*
X93000000Y-60000000D03*
X86000000Y-103500000D03*
X109000000Y-20500000D03*
X56000000Y-88000000D03*
X114500000Y-111500000D03*
X88000000Y-31500000D03*
X115500000Y-86500000D03*
X91000000Y-102000000D03*
X64500000Y-105000000D03*
X64000000Y-101000000D03*
X113000000Y-39000000D03*
X118000000Y-71000000D03*
X58500000Y-101500000D03*
X110000000Y-66000000D03*
X100500000Y-114000000D03*
%TO.N,+3.3VD*%
X66219397Y-35000000D03*
X101000000Y-50000000D03*
X105219397Y-99500000D03*
X115000000Y-50000000D03*
X61719397Y-35000000D03*
X97719397Y-88000000D03*
%TO.N,/DSP_CS*%
X113719397Y-94500000D03*
X112719397Y-96500000D03*
%TO.N,/IO0*%
X70219397Y-30500000D03*
X104219397Y-44000000D03*
%TO.N,/ATM_IRQ*%
X99219397Y-78000000D03*
X93719397Y-98000000D03*
%TO.N,+5V*%
X104219397Y-101000000D03*
X70980000Y-73250000D03*
X92719397Y-89500000D03*
X70980000Y-67750000D03*
%TO.N,/DSP_BRIGHT*%
X111219397Y-62500000D03*
X121219397Y-81000000D03*
X121219397Y-76000000D03*
X114719397Y-65000000D03*
%TO.N,/ATM_CF1*%
X94719397Y-97500000D03*
X99719397Y-79000000D03*
%TO.N,/EN*%
X71219397Y-30000000D03*
X96000000Y-38000000D03*
X104719397Y-41500000D03*
X112719397Y-41500000D03*
%TO.N,/ATM_ZX*%
X98719397Y-77000000D03*
X92719397Y-98500000D03*
%TO.N,/DSP_RESX*%
X106719397Y-81500000D03*
X109719397Y-97500000D03*
%TO.N,/DSP_TE*%
X110719397Y-97500000D03*
X108719397Y-80000000D03*
%TO.N,/MISO*%
X93219397Y-94000000D03*
X95219397Y-96000000D03*
%TO.N,/RXD0*%
X107719397Y-53500000D03*
X110219397Y-71500000D03*
%TO.N,/TXD0*%
X106719397Y-53500000D03*
X108969397Y-68750000D03*
%TO.N,/D-*%
X88230000Y-33500000D03*
X91500000Y-33500000D03*
%TO.N,+3.3VA*%
X63980000Y-91250000D03*
X63480000Y-95250000D03*
%TO.N,/SCLK*%
X107219397Y-97000000D03*
X106719397Y-87500000D03*
%TO.N,/MOSI*%
X96719397Y-90000000D03*
X102719397Y-94000000D03*
%TO.N,/DTR*%
X93480000Y-41750000D03*
X93480000Y-39750000D03*
%TO.N,/VBUS-3.3*%
X84980000Y-44250000D03*
X85480000Y-48250000D03*
%TD*%
%TO.N,/ATM_ZX*%
D12*
X92719397Y-98500000D02*
X83719397Y-89500000D01*
X83719397Y-89500000D02*
X83719397Y-84500000D01*
X83719397Y-84500000D02*
X91219396Y-77000000D01*
X91219396Y-77000000D02*
X98719397Y-77000000D01*
%TO.N,/ATM_IRQ*%
X99219397Y-78000000D02*
X91719396Y-78000000D01*
X91719396Y-78000000D02*
X84719397Y-85000000D01*
X84719397Y-85000000D02*
X84719397Y-89000000D01*
X84719397Y-89000000D02*
X93719397Y-98000000D01*
%TO.N,/ATM_CF1*%
X99719397Y-79000000D02*
X92219396Y-79000000D01*
X92219396Y-79000000D02*
X85719397Y-85500000D01*
X85719397Y-85500000D02*
X85719397Y-88500000D01*
X85719397Y-88500000D02*
X94719397Y-97500000D01*
%TO.N,VBUS*%
D13*
X83219397Y-27500000D02*
X80719397Y-27500000D01*
%TO.N,+3.3VD*%
D14*
X97719397Y-88000000D02*
X100219397Y-90500000D01*
X100219397Y-90500000D02*
X104719397Y-90500000D01*
D15*
X101000000Y-50000000D02*
X115000000Y-50000000D01*
D16*
X61719397Y-35000000D02*
X66219397Y-35000000D01*
X105719397Y-99500000D02*
X106219397Y-99000000D01*
D14*
X104719397Y-90500000D02*
X105719397Y-91500000D01*
D16*
X106219397Y-94000000D02*
X105719397Y-93500000D01*
X105219397Y-99500000D02*
X105719397Y-99500000D01*
X106219397Y-99000000D02*
X106219397Y-94000000D01*
X105719397Y-93500000D02*
X105719397Y-91500000D01*
%TO.N,/DSP_CS*%
D17*
X113219397Y-96000000D02*
X112719397Y-96500000D01*
X113719397Y-94500000D02*
X113219397Y-95000000D01*
X113219397Y-95000000D02*
X113219397Y-96000000D01*
%TO.N,/IO0*%
D16*
X87219397Y-39000000D02*
X94219397Y-39000000D01*
X72219397Y-32500000D02*
X84219397Y-32500000D01*
X94219397Y-39000000D02*
X95219397Y-40000000D01*
X85219397Y-33500000D02*
X85219397Y-37000000D01*
X95219397Y-43000000D02*
X95719397Y-43500000D01*
X84219397Y-32500000D02*
X85219397Y-33500000D01*
X103719397Y-43500000D02*
X104219397Y-44000000D01*
X95219397Y-40000000D02*
X95219397Y-43000000D01*
X95719397Y-43500000D02*
X103719397Y-43500000D01*
X85219397Y-37000000D02*
X87219397Y-39000000D01*
X70219397Y-30500000D02*
X72219397Y-32500000D01*
%TO.N,+5V*%
D14*
X70980000Y-73250000D02*
X70980000Y-67750000D01*
D18*
X92719397Y-89500000D02*
X104219397Y-101000000D01*
%TO.N,/DSP_BRIGHT*%
D17*
X113719397Y-65000000D02*
X111219397Y-62500000D01*
X114719397Y-65000000D02*
X113719397Y-65000000D01*
X121219397Y-81000000D02*
X121219397Y-76000000D01*
%TO.N,/EN*%
D16*
X72719397Y-31500000D02*
X84719397Y-31500000D01*
X86219397Y-33000000D02*
X86219397Y-36500000D01*
X111969397Y-40750000D02*
X105469397Y-40750000D01*
X71219397Y-30000000D02*
X72719397Y-31500000D01*
X112719397Y-41500000D02*
X111969397Y-40750000D01*
X86219397Y-36500000D02*
X87719397Y-38000000D01*
X87719397Y-38000000D02*
X96000000Y-38000000D01*
X84719397Y-31500000D02*
X86219397Y-33000000D01*
X105469397Y-40750000D02*
X104719397Y-41500000D01*
%TO.N,/DSP_RESX*%
D17*
X109719397Y-97500000D02*
X109719397Y-90500000D01*
X106719397Y-85000000D02*
X106719397Y-81500000D01*
X109719397Y-90500000D02*
X107719397Y-88500000D01*
X107719397Y-88500000D02*
X107719397Y-86000000D01*
X107719397Y-86000000D02*
X106719397Y-85000000D01*
%TO.N,/DSP_TE*%
X110719397Y-97500000D02*
X110719397Y-87500000D01*
X110719397Y-87500000D02*
X113219397Y-85000000D01*
X113219397Y-85000000D02*
X113219397Y-81000000D01*
X112219397Y-80000000D02*
X108719397Y-80000000D01*
X113219397Y-81000000D02*
X112219397Y-80000000D01*
%TO.N,/MISO*%
D16*
X93219397Y-94000000D02*
X95219397Y-96000000D01*
%TO.N,/RXD0*%
X110219397Y-68500000D02*
X107719397Y-66000000D01*
X110219397Y-71500000D02*
X110219397Y-68500000D01*
X107719397Y-66000000D02*
X107719397Y-53500000D01*
%TO.N,/TXD0*%
X106719397Y-66500000D02*
X106719397Y-53500000D01*
X108969397Y-68750000D02*
X106719397Y-66500000D01*
%TO.N,/D-*%
D17*
X91500000Y-33500000D02*
X88230000Y-33500000D01*
X88230000Y-33500000D02*
X88500000Y-33500000D01*
%TO.N,+3.3VA*%
D16*
X63480000Y-95250000D02*
X63480000Y-91750000D01*
X63480000Y-91750000D02*
X63980000Y-91250000D01*
%TO.N,/SCLK*%
D17*
X106719397Y-89000000D02*
X107219397Y-89500000D01*
X106719397Y-87500000D02*
X106719397Y-89000000D01*
X107219397Y-89500000D02*
X107219397Y-97000000D01*
%TO.N,/MOSI*%
D16*
X96719397Y-90000000D02*
X100719397Y-94000000D01*
X100719397Y-94000000D02*
X102719397Y-94000000D01*
%TO.N,/DTR*%
D12*
X93480000Y-39750000D02*
X93480000Y-41750000D01*
%TO.N,/VBUS-3.3*%
D16*
X85480000Y-48250000D02*
X84980000Y-47750000D01*
X84980000Y-47750000D02*
X84980000Y-44250000D01*
%TD*%
%TA.AperFunction,Conductor*%
%TO.N,GND*%
G36*
X121893106Y-14305522D02*
G01*
X121908104Y-14309926D01*
X121966855Y-14347671D01*
X121968042Y-14349040D01*
X121995518Y-14403901D01*
X121997163Y-14411459D01*
X122000000Y-14437830D01*
X122000000Y-75190055D01*
X121994976Y-75224994D01*
X121991637Y-75236364D01*
X121953860Y-75295141D01*
X121890303Y-75324164D01*
X121822663Y-75314898D01*
X121809849Y-75309252D01*
X121790956Y-75298881D01*
X121645956Y-75201994D01*
X121645955Y-75201993D01*
X121645950Y-75201990D01*
X121645937Y-75201983D01*
X121617140Y-75190055D01*
X121482073Y-75134109D01*
X121482050Y-75134101D01*
X121482043Y-75134099D01*
X121308095Y-75099500D01*
X121308091Y-75099500D01*
X121308088Y-75099500D01*
X121130706Y-75099500D01*
X121130703Y-75099500D01*
X121130698Y-75099500D01*
X120956749Y-75134100D01*
X120956742Y-75134101D01*
X120956719Y-75134109D01*
X120792869Y-75201977D01*
X120792851Y-75201985D01*
X120792836Y-75201994D01*
X120645359Y-75300536D01*
X120645358Y-75300537D01*
X120645352Y-75300542D01*
X120519939Y-75425955D01*
X120519934Y-75425961D01*
X120519933Y-75425962D01*
X120421391Y-75573439D01*
X120421382Y-75573454D01*
X120421374Y-75573472D01*
X120353506Y-75737322D01*
X120353498Y-75737345D01*
X120353496Y-75737352D01*
X120318897Y-75911299D01*
X120318897Y-76088699D01*
X120353496Y-76262646D01*
X120353498Y-76262653D01*
X120353506Y-76262676D01*
X120421374Y-76426526D01*
X120421382Y-76426544D01*
X120421391Y-76426559D01*
X120519929Y-76574031D01*
X120519970Y-76574072D01*
X120520046Y-76574173D01*
X120523796Y-76578743D01*
X120523592Y-76578910D01*
X120541119Y-76602323D01*
X120553727Y-76625411D01*
X120568897Y-76684841D01*
X120568897Y-80307808D01*
X120563873Y-80342747D01*
X120556461Y-80367987D01*
X120525171Y-80420724D01*
X120519938Y-80425956D01*
X120519932Y-80425964D01*
X120421391Y-80573439D01*
X120421382Y-80573454D01*
X120421374Y-80573472D01*
X120353506Y-80737322D01*
X120353502Y-80737335D01*
X120353496Y-80737352D01*
X120318897Y-80911299D01*
X120318897Y-81088699D01*
X120353496Y-81262646D01*
X120353498Y-81262653D01*
X120353506Y-81262676D01*
X120421374Y-81426526D01*
X120421382Y-81426544D01*
X120421391Y-81426559D01*
X120519933Y-81574036D01*
X120519934Y-81574037D01*
X120519939Y-81574043D01*
X120645352Y-81699456D01*
X120645358Y-81699461D01*
X120645362Y-81699464D01*
X120792843Y-81798009D01*
X120792856Y-81798016D01*
X120819611Y-81809098D01*
X120914541Y-81848419D01*
X120914579Y-81848434D01*
X120915760Y-81848923D01*
X120956731Y-81865894D01*
X120956733Y-81865894D01*
X120956738Y-81865896D01*
X121123077Y-81898982D01*
X121125800Y-81899704D01*
X121130703Y-81900500D01*
X121308090Y-81900500D01*
X121312211Y-81900500D01*
X121320064Y-81898117D01*
X121366079Y-81888964D01*
X121366080Y-81888964D01*
X121482050Y-81865897D01*
X121482050Y-81865896D01*
X121482055Y-81865896D01*
X121482058Y-81865894D01*
X121482063Y-81865894D01*
X121485251Y-81864573D01*
X121493232Y-81861273D01*
X121493273Y-81861251D01*
X121645937Y-81798016D01*
X121645937Y-81798015D01*
X121645944Y-81798013D01*
X121790098Y-81701691D01*
X121810495Y-81690671D01*
X121824648Y-81684660D01*
X121894044Y-81676570D01*
X121956801Y-81707283D01*
X121992553Y-81765440D01*
X121995431Y-81775746D01*
X122000000Y-81809098D01*
X122000000Y-116557669D01*
X121994975Y-116592613D01*
X121990570Y-116607611D01*
X121952827Y-116666354D01*
X121951458Y-116667541D01*
X121896597Y-116695017D01*
X121889039Y-116696662D01*
X121862668Y-116699499D01*
X27452934Y-116699499D01*
X27417993Y-116694474D01*
X27402994Y-116690069D01*
X27344248Y-116652326D01*
X27343061Y-116650957D01*
X27315581Y-116596082D01*
X27313936Y-116588520D01*
X27311104Y-116562167D01*
X27311104Y-103313383D01*
X35224500Y-103313383D01*
X35224500Y-103313389D01*
X35224500Y-103486611D01*
X35251598Y-103657701D01*
X35305127Y-103822445D01*
X35383768Y-103976788D01*
X35485586Y-104116928D01*
X35608072Y-104239414D01*
X35748212Y-104341232D01*
X35902555Y-104419873D01*
X36067299Y-104473402D01*
X36238389Y-104500500D01*
X36238390Y-104500500D01*
X36411610Y-104500500D01*
X36411611Y-104500500D01*
X36582701Y-104473402D01*
X36747445Y-104419873D01*
X36901788Y-104341232D01*
X37041928Y-104239414D01*
X37164414Y-104116928D01*
X37266232Y-103976788D01*
X37344873Y-103822445D01*
X37398402Y-103657701D01*
X37425500Y-103486611D01*
X37425500Y-103313389D01*
X37398402Y-103142299D01*
X37344873Y-102977555D01*
X37266232Y-102823212D01*
X37164414Y-102683072D01*
X37041928Y-102560586D01*
X36901788Y-102458768D01*
X36747449Y-102380128D01*
X36596215Y-102330988D01*
X36596203Y-102330985D01*
X36582701Y-102326598D01*
X36582699Y-102326597D01*
X36582698Y-102326597D01*
X36568312Y-102324318D01*
X36568306Y-102324317D01*
X36478188Y-102310044D01*
X36451271Y-102305781D01*
X36435407Y-102303268D01*
X36411614Y-102299500D01*
X36411611Y-102299500D01*
X36238389Y-102299500D01*
X36238388Y-102299500D01*
X36198726Y-102305781D01*
X36198725Y-102305780D01*
X36067304Y-102326596D01*
X35902549Y-102380129D01*
X35748210Y-102458768D01*
X35668256Y-102516859D01*
X35668255Y-102516859D01*
X35619941Y-102551961D01*
X35612564Y-102556092D01*
X35481092Y-102687564D01*
X35476961Y-102694941D01*
X35441859Y-102743255D01*
X35441859Y-102743256D01*
X35383768Y-102823210D01*
X35305129Y-102977549D01*
X35251596Y-103142305D01*
X35224500Y-103313383D01*
X27311104Y-103313383D01*
X27311104Y-96313383D01*
X35224500Y-96313383D01*
X35224500Y-96486614D01*
X35235126Y-96553704D01*
X35240668Y-96588695D01*
X35251598Y-96657701D01*
X35305127Y-96822445D01*
X35383768Y-96976788D01*
X35485586Y-97116928D01*
X35608072Y-97239414D01*
X35748212Y-97341232D01*
X35902555Y-97419873D01*
X36067299Y-97473402D01*
X36238389Y-97500500D01*
X36238390Y-97500500D01*
X36411610Y-97500500D01*
X36411611Y-97500500D01*
X36582701Y-97473402D01*
X36747445Y-97419873D01*
X36901788Y-97341232D01*
X37041928Y-97239414D01*
X37164414Y-97116928D01*
X37266232Y-96976788D01*
X37344873Y-96822445D01*
X37398402Y-96657701D01*
X37425500Y-96486611D01*
X37425500Y-96313389D01*
X37398402Y-96142299D01*
X37344873Y-95977555D01*
X37266232Y-95823212D01*
X37164414Y-95683072D01*
X37041928Y-95560586D01*
X36901788Y-95458768D01*
X36900014Y-95457864D01*
X36747449Y-95380128D01*
X36596215Y-95330988D01*
X36596203Y-95330985D01*
X36582701Y-95326598D01*
X36582699Y-95326597D01*
X36582698Y-95326597D01*
X36568312Y-95324318D01*
X36568306Y-95324317D01*
X36478188Y-95310044D01*
X36451271Y-95305781D01*
X36435407Y-95303268D01*
X36411614Y-95299500D01*
X36411611Y-95299500D01*
X36238389Y-95299500D01*
X36238388Y-95299500D01*
X36198726Y-95305781D01*
X36198725Y-95305780D01*
X36067304Y-95326596D01*
X35902549Y-95380129D01*
X35748218Y-95458764D01*
X35748205Y-95458772D01*
X35677655Y-95510030D01*
X35627837Y-95546224D01*
X35627830Y-95546230D01*
X35608072Y-95560586D01*
X35608070Y-95560588D01*
X35608069Y-95560588D01*
X35485588Y-95683069D01*
X35485588Y-95683070D01*
X35485586Y-95683072D01*
X35471233Y-95702826D01*
X35471226Y-95702834D01*
X35447220Y-95735877D01*
X35446164Y-95737332D01*
X35414966Y-95780271D01*
X35383768Y-95823210D01*
X35305129Y-95977549D01*
X35251598Y-96142299D01*
X35251596Y-96142305D01*
X35224500Y-96313383D01*
X27311104Y-96313383D01*
X27311104Y-95161299D01*
X62579500Y-95161299D01*
X62579500Y-95338699D01*
X62614099Y-95512646D01*
X62614101Y-95512653D01*
X62614109Y-95512676D01*
X62681977Y-95676526D01*
X62681985Y-95676544D01*
X62681994Y-95676559D01*
X62780536Y-95824036D01*
X62780537Y-95824037D01*
X62780542Y-95824043D01*
X62905955Y-95949456D01*
X62905961Y-95949461D01*
X62905965Y-95949464D01*
X63053446Y-96048009D01*
X63053459Y-96048016D01*
X63151659Y-96088691D01*
X63217334Y-96115894D01*
X63217336Y-96115894D01*
X63217341Y-96115896D01*
X63383680Y-96148982D01*
X63386403Y-96149704D01*
X63391306Y-96150500D01*
X63568693Y-96150500D01*
X63572814Y-96150500D01*
X63580667Y-96148117D01*
X63626682Y-96138964D01*
X63626683Y-96138964D01*
X63742653Y-96115897D01*
X63742653Y-96115896D01*
X63742658Y-96115896D01*
X63742661Y-96115894D01*
X63742666Y-96115894D01*
X63745854Y-96114573D01*
X63753835Y-96111273D01*
X63753876Y-96111251D01*
X63906540Y-96048016D01*
X63906540Y-96048015D01*
X63906547Y-96048013D01*
X64054035Y-95949464D01*
X64179464Y-95824035D01*
X64278013Y-95676547D01*
X64278014Y-95676544D01*
X64278016Y-95676541D01*
X64309346Y-95600901D01*
X64345894Y-95512666D01*
X64346419Y-95510030D01*
X64380499Y-95338695D01*
X64380500Y-95338693D01*
X64380500Y-95161306D01*
X64380499Y-95161304D01*
X64345896Y-94987341D01*
X64345893Y-94987332D01*
X64320715Y-94926547D01*
X64320715Y-94926546D01*
X64280341Y-94829072D01*
X64278695Y-94824473D01*
X64211304Y-94723615D01*
X64196071Y-94691776D01*
X64186165Y-94660139D01*
X64180500Y-94623087D01*
X64180500Y-92242326D01*
X64185523Y-92207390D01*
X64189927Y-92192392D01*
X64227702Y-92133615D01*
X64237994Y-92124697D01*
X64271744Y-92103849D01*
X64406547Y-92048013D01*
X64554035Y-91949464D01*
X64679464Y-91824035D01*
X64778013Y-91676547D01*
X64845894Y-91512666D01*
X64880500Y-91338691D01*
X64880500Y-91161309D01*
X64880500Y-91161306D01*
X64880500Y-91161125D01*
X64880074Y-91159169D01*
X64845896Y-90987341D01*
X64845893Y-90987332D01*
X64835281Y-90961713D01*
X64784346Y-90838741D01*
X64778016Y-90823459D01*
X64778009Y-90823446D01*
X64679464Y-90675965D01*
X64679461Y-90675961D01*
X64679456Y-90675955D01*
X64554043Y-90550542D01*
X64554037Y-90550537D01*
X64554036Y-90550536D01*
X64406559Y-90451994D01*
X64406558Y-90451993D01*
X64406553Y-90451990D01*
X64406540Y-90451983D01*
X64406526Y-90451977D01*
X64242676Y-90384109D01*
X64242653Y-90384101D01*
X64242646Y-90384099D01*
X64068698Y-90349500D01*
X64068694Y-90349500D01*
X64068691Y-90349500D01*
X63891309Y-90349500D01*
X63891306Y-90349500D01*
X63891301Y-90349500D01*
X63717352Y-90384100D01*
X63717345Y-90384101D01*
X63717322Y-90384109D01*
X63553472Y-90451977D01*
X63553454Y-90451985D01*
X63553439Y-90451994D01*
X63405962Y-90550536D01*
X63405961Y-90550537D01*
X63405955Y-90550542D01*
X63280542Y-90675955D01*
X63280537Y-90675961D01*
X63280536Y-90675962D01*
X63181994Y-90823439D01*
X63181985Y-90823454D01*
X63181977Y-90823472D01*
X63114107Y-90987327D01*
X63114100Y-90987357D01*
X63090612Y-91105439D01*
X63079187Y-91138113D01*
X63064540Y-91166495D01*
X63042030Y-91197309D01*
X62935890Y-91303451D01*
X62935888Y-91303453D01*
X62925509Y-91318988D01*
X62925503Y-91318996D01*
X62919723Y-91327643D01*
X62919724Y-91327644D01*
X62859232Y-91418175D01*
X62859222Y-91418192D01*
X62859217Y-91418201D01*
X62806429Y-91545644D01*
X62806416Y-91545683D01*
X62779500Y-91681000D01*
X62779500Y-94622069D01*
X62774476Y-94657007D01*
X62765136Y-94688813D01*
X62749263Y-94722765D01*
X62722601Y-94762668D01*
X62681988Y-94823449D01*
X62681987Y-94823451D01*
X62681986Y-94823453D01*
X62681284Y-94824884D01*
X62680303Y-94827514D01*
X62614109Y-94987322D01*
X62614101Y-94987345D01*
X62614099Y-94987352D01*
X62579500Y-95161299D01*
X27311104Y-95161299D01*
X27311104Y-89579054D01*
X83118895Y-89579054D01*
X83118896Y-89579057D01*
X83122969Y-89594259D01*
X83122970Y-89594266D01*
X83159818Y-89731780D01*
X83159819Y-89731783D01*
X83159820Y-89731785D01*
X83172028Y-89752930D01*
X83178411Y-89763985D01*
X83180060Y-89766841D01*
X83189195Y-89789430D01*
X83200819Y-89802798D01*
X83238864Y-89868695D01*
X83238874Y-89868711D01*
X83238878Y-89868717D01*
X83238882Y-89868722D01*
X83359711Y-89989551D01*
X83359756Y-89989594D01*
X91769970Y-98399808D01*
X91791120Y-98428060D01*
X91803728Y-98451149D01*
X91818897Y-98510578D01*
X91818897Y-98588699D01*
X91853496Y-98762646D01*
X91853498Y-98762653D01*
X91853506Y-98762676D01*
X91921374Y-98926526D01*
X91921382Y-98926544D01*
X91921391Y-98926559D01*
X92019932Y-99074034D01*
X92019934Y-99074037D01*
X92019939Y-99074043D01*
X92145352Y-99199456D01*
X92145358Y-99199461D01*
X92145362Y-99199464D01*
X92292843Y-99298009D01*
X92292856Y-99298016D01*
X92374446Y-99331811D01*
X92456731Y-99365894D01*
X92456733Y-99365894D01*
X92456738Y-99365896D01*
X92623077Y-99398982D01*
X92625800Y-99399704D01*
X92630703Y-99400500D01*
X92808090Y-99400500D01*
X92812211Y-99400500D01*
X92820064Y-99398117D01*
X92866079Y-99388964D01*
X92866080Y-99388964D01*
X92982050Y-99365897D01*
X92982050Y-99365896D01*
X92982055Y-99365896D01*
X92982058Y-99365894D01*
X92982063Y-99365894D01*
X92985251Y-99364573D01*
X92993232Y-99361273D01*
X92993273Y-99361251D01*
X93145937Y-99298016D01*
X93145937Y-99298015D01*
X93145944Y-99298013D01*
X93293432Y-99199464D01*
X93418861Y-99074035D01*
X93419238Y-99073472D01*
X93437138Y-99046680D01*
X93490130Y-98967371D01*
X93513711Y-98941121D01*
X93525706Y-98931096D01*
X93589766Y-98903212D01*
X93606090Y-98901161D01*
X93624613Y-98900915D01*
X93624613Y-98900500D01*
X93812211Y-98900500D01*
X93820064Y-98898117D01*
X93866079Y-98888964D01*
X93866080Y-98888964D01*
X93982050Y-98865897D01*
X93982050Y-98865896D01*
X93982055Y-98865896D01*
X93982058Y-98865894D01*
X93982063Y-98865894D01*
X93985251Y-98864573D01*
X93993232Y-98861273D01*
X93993273Y-98861251D01*
X94145937Y-98798016D01*
X94145937Y-98798015D01*
X94145944Y-98798013D01*
X94293432Y-98699464D01*
X94418861Y-98574035D01*
X94490130Y-98467371D01*
X94513711Y-98441121D01*
X94525706Y-98431096D01*
X94589766Y-98403212D01*
X94606090Y-98401161D01*
X94624613Y-98400915D01*
X94624613Y-98400500D01*
X94812211Y-98400500D01*
X94820064Y-98398117D01*
X94866079Y-98388964D01*
X94866080Y-98388964D01*
X94982050Y-98365897D01*
X94982050Y-98365896D01*
X94982055Y-98365896D01*
X94982058Y-98365894D01*
X94982063Y-98365894D01*
X94985251Y-98364573D01*
X94993232Y-98361273D01*
X94993273Y-98361251D01*
X95145937Y-98298016D01*
X95145937Y-98298015D01*
X95145944Y-98298013D01*
X95293432Y-98199464D01*
X95418861Y-98074035D01*
X95517410Y-97926547D01*
X95519931Y-97920462D01*
X95570650Y-97798013D01*
X95585291Y-97762666D01*
X95597864Y-97699461D01*
X95619896Y-97588695D01*
X95619897Y-97588693D01*
X95619897Y-97411306D01*
X95619896Y-97411304D01*
X95585293Y-97237341D01*
X95585290Y-97237332D01*
X95517413Y-97073459D01*
X95517405Y-97073444D01*
X95494973Y-97039873D01*
X95479740Y-97008034D01*
X95475593Y-96994789D01*
X95474347Y-96924930D01*
X95511057Y-96865497D01*
X95519253Y-96858134D01*
X95554657Y-96835824D01*
X95645944Y-96798013D01*
X95793432Y-96699464D01*
X95918861Y-96574035D01*
X96017410Y-96426547D01*
X96085291Y-96262666D01*
X96090329Y-96237341D01*
X96109234Y-96142299D01*
X96119897Y-96088691D01*
X96119897Y-95911309D01*
X96119897Y-95911306D01*
X96119897Y-95911125D01*
X96119471Y-95909169D01*
X96085293Y-95737341D01*
X96085290Y-95737332D01*
X96017413Y-95573459D01*
X96017406Y-95573446D01*
X95918861Y-95425965D01*
X95918858Y-95425961D01*
X95918853Y-95425955D01*
X95793440Y-95300542D01*
X95793434Y-95300537D01*
X95793433Y-95300536D01*
X95645956Y-95201994D01*
X95645955Y-95201993D01*
X95645950Y-95201990D01*
X95645937Y-95201983D01*
X95645923Y-95201977D01*
X95482073Y-95134109D01*
X95482046Y-95134100D01*
X95364296Y-95110679D01*
X95331011Y-95098937D01*
X95301636Y-95083571D01*
X95271431Y-95061377D01*
X94158736Y-93948682D01*
X94137585Y-93920428D01*
X94121700Y-93891337D01*
X94108915Y-93856101D01*
X94097079Y-93796601D01*
X94085291Y-93737334D01*
X94028199Y-93599500D01*
X94017413Y-93573459D01*
X94017406Y-93573446D01*
X93918861Y-93425965D01*
X93918858Y-93425961D01*
X93918853Y-93425955D01*
X93793440Y-93300542D01*
X93793434Y-93300537D01*
X93793433Y-93300536D01*
X93645956Y-93201994D01*
X93645955Y-93201993D01*
X93645950Y-93201990D01*
X93645937Y-93201983D01*
X93645923Y-93201977D01*
X93482073Y-93134109D01*
X93482050Y-93134101D01*
X93482043Y-93134099D01*
X93308095Y-93099500D01*
X93308091Y-93099500D01*
X93308088Y-93099500D01*
X93130706Y-93099500D01*
X93130703Y-93099500D01*
X93130698Y-93099500D01*
X92956749Y-93134100D01*
X92956742Y-93134101D01*
X92956719Y-93134109D01*
X92792869Y-93201977D01*
X92792851Y-93201985D01*
X92792836Y-93201994D01*
X92645359Y-93300536D01*
X92645358Y-93300537D01*
X92645352Y-93300542D01*
X92519939Y-93425955D01*
X92519934Y-93425961D01*
X92519933Y-93425962D01*
X92421391Y-93573439D01*
X92421382Y-93573454D01*
X92421374Y-93573472D01*
X92353506Y-93737322D01*
X92353498Y-93737345D01*
X92353496Y-93737352D01*
X92318897Y-93911299D01*
X92318897Y-93933073D01*
X92313873Y-93968011D01*
X92310686Y-93978864D01*
X92272911Y-94037641D01*
X92209354Y-94066664D01*
X92140204Y-94056723D01*
X92133226Y-94053536D01*
X92097054Y-94028422D01*
X87479931Y-89411299D01*
X91818897Y-89411299D01*
X91818897Y-89588700D01*
X91853497Y-89762652D01*
X91853502Y-89762666D01*
X91865511Y-89791659D01*
X91865515Y-89791667D01*
X91867174Y-89795672D01*
X91921384Y-89926547D01*
X91957448Y-89980520D01*
X91961961Y-89987274D01*
X91966319Y-89993797D01*
X91966322Y-89993802D01*
X92004300Y-90050641D01*
X92019934Y-90074038D01*
X92019935Y-90074039D01*
X103645361Y-101699464D01*
X103645363Y-101699466D01*
X103679723Y-101722423D01*
X103681627Y-101723695D01*
X103704433Y-101738933D01*
X103704436Y-101738936D01*
X103748794Y-101768575D01*
X103792850Y-101798013D01*
X103874790Y-101831953D01*
X103880877Y-101834474D01*
X103880882Y-101834477D01*
X103917337Y-101849577D01*
X103917338Y-101849578D01*
X103942177Y-101859866D01*
X103956731Y-101865895D01*
X104127761Y-101899914D01*
X104129969Y-101900409D01*
X104130702Y-101900500D01*
X104308090Y-101900500D01*
X104312212Y-101900500D01*
X104320067Y-101898116D01*
X104482063Y-101865895D01*
X104564003Y-101831953D01*
X104645944Y-101798013D01*
X104734356Y-101738936D01*
X104793433Y-101699464D01*
X104918861Y-101574036D01*
X104958333Y-101514959D01*
X105017410Y-101426547D01*
X105056651Y-101331811D01*
X105085292Y-101262666D01*
X105119897Y-101088692D01*
X105119897Y-100911308D01*
X105085292Y-100737334D01*
X105085290Y-100737329D01*
X105069134Y-100698324D01*
X105069134Y-100698323D01*
X105050771Y-100653994D01*
X105050743Y-100653928D01*
X105023610Y-100588422D01*
X105014883Y-100554235D01*
X105013398Y-100540429D01*
X105025800Y-100471674D01*
X105073405Y-100420537D01*
X105075745Y-100419148D01*
X105077940Y-100417847D01*
X105141194Y-100400500D01*
X105312211Y-100400500D01*
X105320064Y-100398117D01*
X105366079Y-100388964D01*
X105366080Y-100388964D01*
X105482050Y-100365897D01*
X105482050Y-100365896D01*
X105482055Y-100365896D01*
X105482058Y-100365894D01*
X105482063Y-100365894D01*
X105485251Y-100364573D01*
X105493232Y-100361273D01*
X105493273Y-100361251D01*
X105645937Y-100298016D01*
X105645937Y-100298015D01*
X105645944Y-100298013D01*
X105762715Y-100219987D01*
X105784139Y-100208537D01*
X105806267Y-100199372D01*
X105829518Y-100192318D01*
X105923725Y-100173580D01*
X105987466Y-100147177D01*
X106047168Y-100122448D01*
X106050642Y-100121152D01*
X106051201Y-100120777D01*
X106051204Y-100120777D01*
X106051205Y-100120776D01*
X106051208Y-100120775D01*
X106165940Y-100044114D01*
X106763511Y-99446543D01*
X106840172Y-99331811D01*
X106892977Y-99204328D01*
X106918894Y-99074038D01*
X106919897Y-99068996D01*
X106919897Y-98027491D01*
X106924919Y-97992558D01*
X106928830Y-97979239D01*
X106966603Y-97920462D01*
X107030155Y-97891437D01*
X107041061Y-97889869D01*
X107082893Y-97890989D01*
X107130703Y-97900500D01*
X107308090Y-97900500D01*
X107312213Y-97900500D01*
X107320068Y-97898117D01*
X107361533Y-97889869D01*
X107376339Y-97886924D01*
X107482055Y-97865896D01*
X107482055Y-97865895D01*
X107482059Y-97865895D01*
X107482061Y-97865894D01*
X107482063Y-97865894D01*
X107645944Y-97798013D01*
X107793432Y-97699464D01*
X107918861Y-97574035D01*
X108017410Y-97426547D01*
X108017413Y-97426540D01*
X108020178Y-97419867D01*
X108042085Y-97366975D01*
X108052748Y-97341232D01*
X108085291Y-97262666D01*
X108090329Y-97237341D01*
X108119896Y-97088695D01*
X108119897Y-97088693D01*
X108119897Y-96911306D01*
X108119896Y-96911304D01*
X108085293Y-96737341D01*
X108085290Y-96737332D01*
X108017413Y-96573459D01*
X108017406Y-96573446D01*
X107918861Y-96425965D01*
X107918858Y-96425961D01*
X107918853Y-96425955D01*
X107918822Y-96425924D01*
X107918795Y-96425888D01*
X107915977Y-96422639D01*
X107916210Y-96422436D01*
X107897670Y-96397668D01*
X107885064Y-96374581D01*
X107869897Y-96315156D01*
X107869897Y-89887636D01*
X107874918Y-89852709D01*
X107878104Y-89841856D01*
X107915874Y-89783075D01*
X107979428Y-89754046D01*
X108048583Y-89763984D01*
X108055569Y-89767174D01*
X108091739Y-89792287D01*
X109019970Y-90720518D01*
X109041120Y-90748770D01*
X109053728Y-90771859D01*
X109068897Y-90831288D01*
X109068897Y-96807808D01*
X109063873Y-96842747D01*
X109056461Y-96867987D01*
X109025171Y-96920724D01*
X109019938Y-96925956D01*
X109019932Y-96925964D01*
X108921391Y-97073439D01*
X108921382Y-97073454D01*
X108921374Y-97073472D01*
X108853506Y-97237322D01*
X108853501Y-97237339D01*
X108853496Y-97237352D01*
X108818897Y-97411299D01*
X108818897Y-97588699D01*
X108853496Y-97762646D01*
X108853498Y-97762653D01*
X108853506Y-97762676D01*
X108921374Y-97926526D01*
X108921382Y-97926544D01*
X108921391Y-97926559D01*
X109019933Y-98074036D01*
X109019934Y-98074037D01*
X109019939Y-98074043D01*
X109145352Y-98199456D01*
X109145358Y-98199461D01*
X109145362Y-98199464D01*
X109292843Y-98298009D01*
X109292856Y-98298016D01*
X109328976Y-98312977D01*
X109414541Y-98348419D01*
X109414579Y-98348434D01*
X109415760Y-98348923D01*
X109456731Y-98365894D01*
X109456733Y-98365894D01*
X109456738Y-98365896D01*
X109623077Y-98398982D01*
X109625800Y-98399704D01*
X109630703Y-98400500D01*
X109808090Y-98400500D01*
X109812211Y-98400500D01*
X109820064Y-98398117D01*
X109866079Y-98388964D01*
X109866080Y-98388964D01*
X109924875Y-98377269D01*
X109982055Y-98365896D01*
X109982058Y-98365894D01*
X109982063Y-98365894D01*
X109985343Y-98364535D01*
X109993227Y-98361275D01*
X109993267Y-98361253D01*
X110145937Y-98298016D01*
X110151577Y-98295680D01*
X110151687Y-98295945D01*
X110164374Y-98290621D01*
X110182435Y-98284965D01*
X110252289Y-98283717D01*
X110252291Y-98283717D01*
X110252291Y-98283718D01*
X110267055Y-98287768D01*
X110289706Y-98296441D01*
X110292850Y-98298013D01*
X110292852Y-98298014D01*
X110292854Y-98298015D01*
X110402104Y-98343267D01*
X110456731Y-98365894D01*
X110456733Y-98365894D01*
X110456738Y-98365896D01*
X110623077Y-98398982D01*
X110625800Y-98399704D01*
X110630703Y-98400500D01*
X110808090Y-98400500D01*
X110812211Y-98400500D01*
X110820064Y-98398117D01*
X110866079Y-98388964D01*
X110866080Y-98388964D01*
X110982050Y-98365897D01*
X110982050Y-98365896D01*
X110982055Y-98365896D01*
X110982058Y-98365894D01*
X110982063Y-98365894D01*
X110985251Y-98364573D01*
X110993232Y-98361273D01*
X110993273Y-98361251D01*
X111145937Y-98298016D01*
X111145937Y-98298015D01*
X111145944Y-98298013D01*
X111293432Y-98199464D01*
X111418861Y-98074035D01*
X111517410Y-97926547D01*
X111519931Y-97920462D01*
X111570650Y-97798013D01*
X111585291Y-97762666D01*
X111597864Y-97699461D01*
X111619896Y-97588695D01*
X111619897Y-97588693D01*
X111619897Y-97411306D01*
X111619896Y-97411304D01*
X111585293Y-97237341D01*
X111585290Y-97237332D01*
X111517413Y-97073459D01*
X111517406Y-97073446D01*
X111418861Y-96925965D01*
X111418858Y-96925961D01*
X111418853Y-96925955D01*
X111418822Y-96925924D01*
X111418795Y-96925888D01*
X111415977Y-96922639D01*
X111416210Y-96922436D01*
X111397670Y-96897668D01*
X111385064Y-96874581D01*
X111369897Y-96815156D01*
X111369897Y-96411299D01*
X111818897Y-96411299D01*
X111818897Y-96588699D01*
X111853496Y-96762646D01*
X111853498Y-96762653D01*
X111853506Y-96762676D01*
X111921374Y-96926526D01*
X111921382Y-96926544D01*
X111921391Y-96926559D01*
X112019933Y-97074036D01*
X112019934Y-97074037D01*
X112019939Y-97074043D01*
X112145352Y-97199456D01*
X112145358Y-97199461D01*
X112145362Y-97199464D01*
X112292843Y-97298009D01*
X112292856Y-97298016D01*
X112397191Y-97341232D01*
X112456731Y-97365894D01*
X112456733Y-97365894D01*
X112456738Y-97365896D01*
X112623077Y-97398982D01*
X112625800Y-97399704D01*
X112630703Y-97400500D01*
X112808090Y-97400500D01*
X112812211Y-97400500D01*
X112820064Y-97398117D01*
X112866079Y-97388964D01*
X112866080Y-97388964D01*
X112982050Y-97365897D01*
X112982050Y-97365896D01*
X112982055Y-97365896D01*
X112982058Y-97365894D01*
X112982063Y-97365894D01*
X112985251Y-97364573D01*
X112993232Y-97361273D01*
X112993273Y-97361251D01*
X113145937Y-97298016D01*
X113145937Y-97298015D01*
X113145944Y-97298013D01*
X113293432Y-97199464D01*
X113418861Y-97074035D01*
X113517410Y-96926547D01*
X113517652Y-96925964D01*
X113585289Y-96762670D01*
X113585291Y-96762666D01*
X113590329Y-96737341D01*
X113619896Y-96588695D01*
X113619897Y-96588693D01*
X113619897Y-96582042D01*
X113620596Y-96575488D01*
X113622422Y-96571066D01*
X113624919Y-96553704D01*
X113632331Y-96528459D01*
X113663625Y-96475716D01*
X113724674Y-96414669D01*
X113795862Y-96308127D01*
X113801021Y-96295672D01*
X113844898Y-96189744D01*
X113864635Y-96090521D01*
X113869897Y-96064071D01*
X113869897Y-95507798D01*
X113874920Y-95472862D01*
X113879058Y-95458772D01*
X113879324Y-95457863D01*
X113917087Y-95399097D01*
X113918317Y-95398030D01*
X113922641Y-95394283D01*
X113976330Y-95368008D01*
X113976226Y-95367665D01*
X113978345Y-95367022D01*
X113979683Y-95366367D01*
X113982063Y-95365894D01*
X114127193Y-95305780D01*
X114145937Y-95298016D01*
X114145937Y-95298015D01*
X114145944Y-95298013D01*
X114293432Y-95199464D01*
X114418861Y-95074035D01*
X114517410Y-94926547D01*
X114585291Y-94762666D01*
X114597864Y-94699461D01*
X114619896Y-94588695D01*
X114619897Y-94588693D01*
X114619897Y-94411306D01*
X114619896Y-94411304D01*
X114585293Y-94237341D01*
X114585290Y-94237332D01*
X114517413Y-94073459D01*
X114517406Y-94073446D01*
X114418861Y-93925965D01*
X114418858Y-93925961D01*
X114418853Y-93925955D01*
X114293440Y-93800542D01*
X114293434Y-93800537D01*
X114293433Y-93800536D01*
X114145956Y-93701994D01*
X114145955Y-93701993D01*
X114145950Y-93701990D01*
X114145937Y-93701983D01*
X114145923Y-93701977D01*
X113982073Y-93634109D01*
X113982050Y-93634101D01*
X113982043Y-93634099D01*
X113808095Y-93599500D01*
X113808091Y-93599500D01*
X113808088Y-93599500D01*
X113630706Y-93599500D01*
X113630703Y-93599500D01*
X113630698Y-93599500D01*
X113456749Y-93634100D01*
X113456742Y-93634101D01*
X113456719Y-93634109D01*
X113292869Y-93701977D01*
X113292851Y-93701985D01*
X113292836Y-93701994D01*
X113145359Y-93800536D01*
X113145358Y-93800537D01*
X113145352Y-93800542D01*
X113019939Y-93925955D01*
X113019934Y-93925961D01*
X113019933Y-93925962D01*
X112921391Y-94073439D01*
X112921382Y-94073454D01*
X112921374Y-94073472D01*
X112853506Y-94237322D01*
X112853501Y-94237339D01*
X112853496Y-94237352D01*
X112818897Y-94411299D01*
X112818897Y-94411361D01*
X112818878Y-94411487D01*
X112818300Y-94417365D01*
X112818037Y-94417339D01*
X112813873Y-94446300D01*
X112806461Y-94471540D01*
X112775168Y-94524280D01*
X112714123Y-94585327D01*
X112714116Y-94585336D01*
X112655154Y-94673580D01*
X112655148Y-94673590D01*
X112651906Y-94678439D01*
X112651907Y-94678440D01*
X112642934Y-94691867D01*
X112642930Y-94691873D01*
X112642928Y-94691878D01*
X112593899Y-94810245D01*
X112593892Y-94810265D01*
X112593890Y-94810273D01*
X112568897Y-94935923D01*
X112568897Y-95492200D01*
X112563872Y-95527144D01*
X112559467Y-95542142D01*
X112521706Y-95600901D01*
X112516154Y-95605713D01*
X112460459Y-95632977D01*
X112460494Y-95633108D01*
X112459836Y-95633282D01*
X112459130Y-95633628D01*
X112456733Y-95634104D01*
X112456722Y-95634108D01*
X112456716Y-95634110D01*
X112292869Y-95701977D01*
X112292851Y-95701985D01*
X112292836Y-95701994D01*
X112145359Y-95800536D01*
X112145358Y-95800537D01*
X112145352Y-95800542D01*
X112019939Y-95925955D01*
X112019934Y-95925961D01*
X112019933Y-95925962D01*
X111921391Y-96073439D01*
X111921382Y-96073454D01*
X111921374Y-96073472D01*
X111853506Y-96237322D01*
X111853501Y-96237339D01*
X111853496Y-96237352D01*
X111818897Y-96411299D01*
X111369897Y-96411299D01*
X111369897Y-87838637D01*
X111374919Y-87803704D01*
X111382331Y-87778459D01*
X111413625Y-87725717D01*
X113724670Y-85414673D01*
X113724674Y-85414669D01*
X113795862Y-85308127D01*
X113844898Y-85189744D01*
X113869897Y-85064069D01*
X113869897Y-80935931D01*
X113869897Y-80935928D01*
X113869897Y-80935925D01*
X113844659Y-80809054D01*
X113842572Y-80804641D01*
X113840874Y-80800542D01*
X113814693Y-80737334D01*
X113795863Y-80691874D01*
X113792485Y-80686819D01*
X113771573Y-80655522D01*
X113724675Y-80585332D01*
X113724669Y-80585325D01*
X113228039Y-80088695D01*
X112634075Y-79494730D01*
X112634074Y-79494729D01*
X112634070Y-79494726D01*
X112634066Y-79494723D01*
X112527524Y-79423535D01*
X112527522Y-79423534D01*
X112409150Y-79374502D01*
X112409130Y-79374495D01*
X112409122Y-79374493D01*
X112283471Y-79349500D01*
X112283468Y-79349500D01*
X112283466Y-79349500D01*
X109411589Y-79349500D01*
X109376653Y-79344477D01*
X109351411Y-79337065D01*
X109298661Y-79305764D01*
X109293437Y-79300539D01*
X109293434Y-79300537D01*
X109293433Y-79300536D01*
X109145956Y-79201994D01*
X109145955Y-79201993D01*
X109145950Y-79201990D01*
X109145937Y-79201983D01*
X109145923Y-79201977D01*
X108982073Y-79134109D01*
X108982050Y-79134101D01*
X108982043Y-79134099D01*
X108808095Y-79099500D01*
X108808091Y-79099500D01*
X108808088Y-79099500D01*
X108630706Y-79099500D01*
X108630703Y-79099500D01*
X108630698Y-79099500D01*
X108456749Y-79134100D01*
X108456742Y-79134101D01*
X108456719Y-79134109D01*
X108292869Y-79201977D01*
X108292851Y-79201985D01*
X108292836Y-79201994D01*
X108145359Y-79300536D01*
X108145358Y-79300537D01*
X108145352Y-79300542D01*
X108019939Y-79425955D01*
X108019934Y-79425961D01*
X108019933Y-79425962D01*
X107921391Y-79573439D01*
X107921382Y-79573454D01*
X107921374Y-79573472D01*
X107853506Y-79737322D01*
X107853498Y-79737345D01*
X107853496Y-79737352D01*
X107818897Y-79911299D01*
X107818897Y-80088699D01*
X107853496Y-80262646D01*
X107853498Y-80262653D01*
X107853506Y-80262676D01*
X107921374Y-80426526D01*
X107921382Y-80426544D01*
X107921391Y-80426559D01*
X108019933Y-80574036D01*
X108019934Y-80574037D01*
X108019939Y-80574043D01*
X108145352Y-80699456D01*
X108145358Y-80699461D01*
X108145362Y-80699464D01*
X108292843Y-80798009D01*
X108292856Y-80798016D01*
X108308851Y-80804641D01*
X108414541Y-80848419D01*
X108414579Y-80848434D01*
X108415760Y-80848923D01*
X108456731Y-80865894D01*
X108456733Y-80865894D01*
X108456738Y-80865896D01*
X108623077Y-80898982D01*
X108625800Y-80899704D01*
X108630703Y-80900500D01*
X108808090Y-80900500D01*
X108812211Y-80900500D01*
X108820064Y-80898117D01*
X108866079Y-80888964D01*
X108866080Y-80888964D01*
X108982050Y-80865897D01*
X108982050Y-80865896D01*
X108982055Y-80865896D01*
X108982058Y-80865894D01*
X108982063Y-80865894D01*
X108985251Y-80864573D01*
X108993232Y-80861273D01*
X108993273Y-80861251D01*
X109145937Y-80798016D01*
X109145937Y-80798015D01*
X109145944Y-80798013D01*
X109293432Y-80699464D01*
X109293435Y-80699461D01*
X109293629Y-80699266D01*
X109294577Y-80698333D01*
X109294616Y-80698295D01*
X109295294Y-80697935D01*
X109298142Y-80695599D01*
X109298430Y-80695950D01*
X109321723Y-80678275D01*
X109344815Y-80665667D01*
X109404240Y-80650500D01*
X111880759Y-80650500D01*
X111915691Y-80655521D01*
X111940935Y-80662934D01*
X111993681Y-80694230D01*
X112519970Y-81220519D01*
X112541120Y-81248771D01*
X112553728Y-81271860D01*
X112568897Y-81331289D01*
X112568897Y-84661361D01*
X112563873Y-84696298D01*
X112556461Y-84721539D01*
X112525166Y-84774283D01*
X110214132Y-87085316D01*
X110214120Y-87085329D01*
X110142933Y-87191868D01*
X110093899Y-87310245D01*
X110093892Y-87310265D01*
X110093890Y-87310273D01*
X110068897Y-87435923D01*
X110068897Y-89612362D01*
X110063873Y-89647300D01*
X110060686Y-89658153D01*
X110022911Y-89716930D01*
X109959354Y-89745953D01*
X109890204Y-89736012D01*
X109883226Y-89732825D01*
X109847054Y-89707711D01*
X108418823Y-88279480D01*
X108397671Y-88251224D01*
X108385064Y-88228135D01*
X108369897Y-88168710D01*
X108369897Y-85935925D01*
X108344659Y-85809054D01*
X108342573Y-85804643D01*
X108312394Y-85731784D01*
X108312393Y-85731783D01*
X108295863Y-85691875D01*
X108295863Y-85691874D01*
X108224674Y-85585331D01*
X108224669Y-85585325D01*
X108224656Y-85585311D01*
X107418823Y-84779479D01*
X107397671Y-84751223D01*
X107385064Y-84728134D01*
X107369897Y-84668709D01*
X107369897Y-82192190D01*
X107374919Y-82157257D01*
X107375170Y-82156402D01*
X107382331Y-82132012D01*
X107413635Y-82079260D01*
X107418861Y-82074035D01*
X107418863Y-82074033D01*
X107451860Y-82024647D01*
X107517410Y-81926547D01*
X107585291Y-81762666D01*
X107597864Y-81699461D01*
X107619896Y-81588695D01*
X107619897Y-81588693D01*
X107619897Y-81411306D01*
X107619896Y-81411304D01*
X107585293Y-81237341D01*
X107585290Y-81237332D01*
X107517413Y-81073459D01*
X107517406Y-81073446D01*
X107418861Y-80925965D01*
X107418858Y-80925961D01*
X107418853Y-80925955D01*
X107293440Y-80800542D01*
X107293434Y-80800537D01*
X107293433Y-80800536D01*
X107145956Y-80701994D01*
X107145955Y-80701993D01*
X107145950Y-80701990D01*
X107145937Y-80701983D01*
X107145923Y-80701977D01*
X106982073Y-80634109D01*
X106982050Y-80634101D01*
X106982043Y-80634099D01*
X106808095Y-80599500D01*
X106808091Y-80599500D01*
X106808088Y-80599500D01*
X106630706Y-80599500D01*
X106630703Y-80599500D01*
X106630698Y-80599500D01*
X106456749Y-80634100D01*
X106456742Y-80634101D01*
X106456719Y-80634109D01*
X106292869Y-80701977D01*
X106292851Y-80701985D01*
X106292836Y-80701994D01*
X106145359Y-80800536D01*
X106145358Y-80800537D01*
X106145352Y-80800542D01*
X106019939Y-80925955D01*
X106019934Y-80925961D01*
X106019933Y-80925962D01*
X105921391Y-81073439D01*
X105921382Y-81073454D01*
X105921374Y-81073472D01*
X105853506Y-81237322D01*
X105853498Y-81237345D01*
X105853496Y-81237352D01*
X105818897Y-81411299D01*
X105818897Y-81588699D01*
X105853496Y-81762646D01*
X105853498Y-81762653D01*
X105853506Y-81762676D01*
X105910594Y-81900500D01*
X105921380Y-81926540D01*
X105921386Y-81926552D01*
X105921391Y-81926559D01*
X106019929Y-82074031D01*
X106019970Y-82074072D01*
X106020046Y-82074173D01*
X106023796Y-82078743D01*
X106023592Y-82078910D01*
X106041119Y-82102323D01*
X106053727Y-82125411D01*
X106068897Y-82184841D01*
X106068897Y-85019702D01*
X106063634Y-85037622D01*
X106093891Y-85189726D01*
X106093892Y-85189732D01*
X106093899Y-85189753D01*
X106142930Y-85308123D01*
X106142931Y-85308125D01*
X106214123Y-85414673D01*
X106214124Y-85414674D01*
X106617375Y-85817925D01*
X107019970Y-86220519D01*
X107041120Y-86248771D01*
X107053728Y-86271860D01*
X107068897Y-86331289D01*
X107068897Y-86482453D01*
X107063872Y-86517394D01*
X107059961Y-86530711D01*
X107022184Y-86589487D01*
X106958634Y-86618508D01*
X106947736Y-86620075D01*
X106905897Y-86618954D01*
X106808096Y-86599500D01*
X106808092Y-86599500D01*
X106808088Y-86599500D01*
X106630706Y-86599500D01*
X106630703Y-86599500D01*
X106630698Y-86599500D01*
X106456749Y-86634100D01*
X106456742Y-86634101D01*
X106456719Y-86634109D01*
X106292869Y-86701977D01*
X106292851Y-86701985D01*
X106292836Y-86701994D01*
X106145359Y-86800536D01*
X106145358Y-86800537D01*
X106145352Y-86800542D01*
X106019939Y-86925955D01*
X106019934Y-86925961D01*
X106019933Y-86925962D01*
X105921391Y-87073439D01*
X105921382Y-87073454D01*
X105921374Y-87073472D01*
X105853506Y-87237322D01*
X105853498Y-87237345D01*
X105853496Y-87237352D01*
X105818897Y-87411299D01*
X105818897Y-87588699D01*
X105853496Y-87762646D01*
X105853498Y-87762653D01*
X105853506Y-87762676D01*
X105921374Y-87926526D01*
X105921382Y-87926544D01*
X105921391Y-87926559D01*
X106019929Y-88074031D01*
X106019970Y-88074072D01*
X106020046Y-88074173D01*
X106023796Y-88078743D01*
X106023592Y-88078910D01*
X106041119Y-88102323D01*
X106053727Y-88125411D01*
X106068897Y-88184841D01*
X106068897Y-89064069D01*
X106082829Y-89134106D01*
X106083790Y-89138936D01*
X106093896Y-89189744D01*
X106093896Y-89189745D01*
X106139784Y-89300530D01*
X106142930Y-89308123D01*
X106142932Y-89308128D01*
X106214114Y-89414660D01*
X106214115Y-89414663D01*
X106214120Y-89414669D01*
X106214123Y-89414673D01*
X106214124Y-89414674D01*
X106372922Y-89573472D01*
X106519970Y-89720519D01*
X106541120Y-89748771D01*
X106545621Y-89757013D01*
X106551167Y-89767171D01*
X106553728Y-89771860D01*
X106568897Y-89831289D01*
X106568897Y-90903900D01*
X106563873Y-90938838D01*
X106560686Y-90949691D01*
X106522911Y-91008468D01*
X106459354Y-91037491D01*
X106390196Y-91027546D01*
X106390194Y-91027545D01*
X106387698Y-91026405D01*
X106346264Y-90995688D01*
X106345281Y-90994573D01*
X106341952Y-90990578D01*
X106340173Y-90988563D01*
X106336956Y-90985139D01*
X106326345Y-90973112D01*
X106313189Y-90961713D01*
X105229694Y-89878217D01*
X105229688Y-89878212D01*
X105229687Y-89878211D01*
X105098588Y-89790613D01*
X105098587Y-89790612D01*
X105098582Y-89790609D01*
X105098569Y-89790602D01*
X105098562Y-89790598D01*
X104952899Y-89730264D01*
X104952868Y-89730257D01*
X104798244Y-89699500D01*
X104798242Y-89699500D01*
X104798239Y-89699500D01*
X100620167Y-89699500D01*
X100585231Y-89694477D01*
X100559989Y-89687065D01*
X100507244Y-89655769D01*
X99262774Y-88411299D01*
X103099500Y-88411299D01*
X103099500Y-88588699D01*
X103134099Y-88762646D01*
X103134101Y-88762653D01*
X103134109Y-88762676D01*
X103201977Y-88926526D01*
X103201985Y-88926544D01*
X103201994Y-88926559D01*
X103300536Y-89074036D01*
X103300537Y-89074037D01*
X103300542Y-89074043D01*
X103425955Y-89199456D01*
X103425961Y-89199461D01*
X103425965Y-89199464D01*
X103573446Y-89298009D01*
X103573459Y-89298016D01*
X103609579Y-89312977D01*
X103695144Y-89348419D01*
X103695182Y-89348434D01*
X103696363Y-89348923D01*
X103737334Y-89365894D01*
X103737336Y-89365894D01*
X103737341Y-89365896D01*
X103903680Y-89398982D01*
X103906403Y-89399704D01*
X103911306Y-89400500D01*
X104088693Y-89400500D01*
X104092814Y-89400500D01*
X104100667Y-89398117D01*
X104146682Y-89388964D01*
X104146683Y-89388964D01*
X104262653Y-89365897D01*
X104262653Y-89365896D01*
X104262658Y-89365896D01*
X104262661Y-89365894D01*
X104262666Y-89365894D01*
X104265854Y-89364573D01*
X104273835Y-89361273D01*
X104273876Y-89361251D01*
X104426540Y-89298016D01*
X104426540Y-89298015D01*
X104426547Y-89298013D01*
X104574035Y-89199464D01*
X104699464Y-89074035D01*
X104798013Y-88926547D01*
X104798255Y-88925964D01*
X104801607Y-88917870D01*
X104816941Y-88880850D01*
X104816942Y-88880848D01*
X104851555Y-88797282D01*
X104865894Y-88762666D01*
X104865894Y-88762663D01*
X104865896Y-88762659D01*
X104878467Y-88699461D01*
X104891466Y-88634109D01*
X104891466Y-88634105D01*
X104900500Y-88588691D01*
X104900500Y-88411309D01*
X104900500Y-88411306D01*
X104900500Y-88411125D01*
X104900074Y-88409169D01*
X104865896Y-88237341D01*
X104865893Y-88237332D01*
X104798016Y-88073459D01*
X104798009Y-88073446D01*
X104699464Y-87925965D01*
X104699461Y-87925961D01*
X104699456Y-87925955D01*
X104574043Y-87800542D01*
X104574037Y-87800537D01*
X104574036Y-87800536D01*
X104426559Y-87701994D01*
X104426558Y-87701993D01*
X104426553Y-87701990D01*
X104426540Y-87701983D01*
X104415128Y-87697256D01*
X104262676Y-87634109D01*
X104262653Y-87634101D01*
X104262646Y-87634099D01*
X104088698Y-87599500D01*
X104088694Y-87599500D01*
X104088691Y-87599500D01*
X103911309Y-87599500D01*
X103911306Y-87599500D01*
X103911301Y-87599500D01*
X103737352Y-87634100D01*
X103737345Y-87634101D01*
X103737322Y-87634109D01*
X103573472Y-87701977D01*
X103573454Y-87701985D01*
X103573439Y-87701994D01*
X103425962Y-87800536D01*
X103425961Y-87800537D01*
X103425955Y-87800542D01*
X103300542Y-87925955D01*
X103300537Y-87925961D01*
X103300536Y-87925962D01*
X103201994Y-88073439D01*
X103201985Y-88073454D01*
X103201977Y-88073472D01*
X103134109Y-88237322D01*
X103134101Y-88237345D01*
X103134099Y-88237352D01*
X103099500Y-88411299D01*
X99262774Y-88411299D01*
X98608879Y-87757404D01*
X98593461Y-87738618D01*
X98580145Y-87718688D01*
X98568693Y-87697265D01*
X98542533Y-87634106D01*
X98519736Y-87579068D01*
X98518092Y-87574473D01*
X98418859Y-87425962D01*
X98418858Y-87425961D01*
X98418853Y-87425955D01*
X98293440Y-87300542D01*
X98293434Y-87300537D01*
X98293433Y-87300536D01*
X98145956Y-87201994D01*
X98145955Y-87201993D01*
X98145950Y-87201990D01*
X98145937Y-87201983D01*
X98145923Y-87201977D01*
X97982073Y-87134109D01*
X97982050Y-87134101D01*
X97982043Y-87134099D01*
X97808095Y-87099500D01*
X97808091Y-87099500D01*
X97808088Y-87099500D01*
X97630706Y-87099500D01*
X97630703Y-87099500D01*
X97630698Y-87099500D01*
X97456749Y-87134100D01*
X97456742Y-87134101D01*
X97456719Y-87134109D01*
X97292869Y-87201977D01*
X97292851Y-87201985D01*
X97292836Y-87201994D01*
X97145359Y-87300536D01*
X97145358Y-87300537D01*
X97145352Y-87300542D01*
X97019939Y-87425955D01*
X97019934Y-87425961D01*
X97019933Y-87425962D01*
X96921391Y-87573439D01*
X96921382Y-87573454D01*
X96921374Y-87573472D01*
X96853506Y-87737322D01*
X96853498Y-87737345D01*
X96853496Y-87737352D01*
X96818897Y-87911299D01*
X96818897Y-88088699D01*
X96853496Y-88262646D01*
X96853498Y-88262653D01*
X96853506Y-88262676D01*
X96921374Y-88426526D01*
X96921382Y-88426544D01*
X96921391Y-88426559D01*
X97019933Y-88574036D01*
X97019934Y-88574037D01*
X97019939Y-88574043D01*
X97145352Y-88699456D01*
X97145358Y-88699461D01*
X97293868Y-88798694D01*
X97298457Y-88800335D01*
X97416666Y-88849298D01*
X97438084Y-88860747D01*
X97458018Y-88874066D01*
X97476801Y-88889482D01*
X99597608Y-91010289D01*
X99708140Y-91120821D01*
X99709109Y-91121790D01*
X99840211Y-91209390D01*
X99840224Y-91209397D01*
X99840226Y-91209397D01*
X99840230Y-91209400D01*
X99978091Y-91266503D01*
X99985895Y-91269735D01*
X99985903Y-91269738D01*
X100103557Y-91293140D01*
X100132910Y-91298979D01*
X100135644Y-91299703D01*
X100140552Y-91300500D01*
X100140553Y-91300500D01*
X100140555Y-91300500D01*
X104318627Y-91300500D01*
X104353559Y-91305521D01*
X104378803Y-91312934D01*
X104431549Y-91344230D01*
X104969970Y-91882651D01*
X104991120Y-91910903D01*
X105003728Y-91933992D01*
X105018897Y-91993421D01*
X105018897Y-93524627D01*
X105013634Y-93542547D01*
X105045350Y-93701985D01*
X105045815Y-93704322D01*
X105045818Y-93704332D01*
X105045820Y-93704336D01*
X105045823Y-93704347D01*
X105098617Y-93831803D01*
X105098621Y-93831810D01*
X105175284Y-93946545D01*
X105175285Y-93946546D01*
X105469970Y-94241230D01*
X105491120Y-94269482D01*
X105503728Y-94292571D01*
X105518897Y-94352000D01*
X105518897Y-98472508D01*
X105513872Y-98507449D01*
X105509961Y-98520766D01*
X105472184Y-98579542D01*
X105408634Y-98608563D01*
X105397736Y-98610130D01*
X105355896Y-98609009D01*
X105308092Y-98599500D01*
X105308090Y-98599500D01*
X105308088Y-98599500D01*
X105130706Y-98599500D01*
X105130703Y-98599500D01*
X105130698Y-98599500D01*
X104956749Y-98634100D01*
X104956742Y-98634101D01*
X104956719Y-98634109D01*
X104792869Y-98701977D01*
X104792851Y-98701985D01*
X104792836Y-98701994D01*
X104645359Y-98800536D01*
X104645358Y-98800537D01*
X104645352Y-98800542D01*
X104519939Y-98925955D01*
X104519934Y-98925961D01*
X104519933Y-98925962D01*
X104421391Y-99073439D01*
X104421382Y-99073454D01*
X104421374Y-99073472D01*
X104353506Y-99237322D01*
X104353498Y-99237345D01*
X104353496Y-99237352D01*
X104318897Y-99411299D01*
X104318897Y-99508808D01*
X104313873Y-99543746D01*
X104310686Y-99554599D01*
X104272911Y-99613376D01*
X104209354Y-99642399D01*
X104140204Y-99632458D01*
X104133226Y-99629271D01*
X104097054Y-99604157D01*
X94485791Y-89992893D01*
X94404197Y-89911299D01*
X95818897Y-89911299D01*
X95818897Y-90088699D01*
X95853496Y-90262646D01*
X95853498Y-90262653D01*
X95853506Y-90262676D01*
X95921374Y-90426526D01*
X95921382Y-90426544D01*
X95921391Y-90426559D01*
X96019933Y-90574036D01*
X96019934Y-90574037D01*
X96019939Y-90574043D01*
X96145352Y-90699456D01*
X96145358Y-90699461D01*
X96145362Y-90699464D01*
X96292843Y-90798009D01*
X96292856Y-90798016D01*
X96325879Y-90811694D01*
X96384257Y-90835875D01*
X96384262Y-90835876D01*
X96391178Y-90838741D01*
X96456731Y-90865894D01*
X96579112Y-90890236D01*
X96583627Y-90891496D01*
X96587475Y-90893896D01*
X96607779Y-90901059D01*
X96637151Y-90916423D01*
X96667357Y-90938617D01*
X100272850Y-94544111D01*
X100272851Y-94544112D01*
X100387589Y-94620777D01*
X100475316Y-94657114D01*
X100509462Y-94671257D01*
X100513866Y-94673341D01*
X100515073Y-94673581D01*
X100527032Y-94675960D01*
X100527045Y-94675962D01*
X100527059Y-94675965D01*
X100576397Y-94685779D01*
X100625733Y-94695593D01*
X100650400Y-94700500D01*
X100650401Y-94700500D01*
X100650404Y-94700500D01*
X102091467Y-94700500D01*
X102126398Y-94705521D01*
X102158213Y-94714863D01*
X102192164Y-94730736D01*
X102292850Y-94798013D01*
X102292852Y-94798014D01*
X102292856Y-94798016D01*
X102456730Y-94865894D01*
X102456735Y-94865895D01*
X102456738Y-94865896D01*
X102623077Y-94898982D01*
X102625800Y-94899704D01*
X102630703Y-94900500D01*
X102808090Y-94900500D01*
X102812211Y-94900500D01*
X102820064Y-94898117D01*
X102866079Y-94888964D01*
X102866080Y-94888964D01*
X102982050Y-94865897D01*
X102982050Y-94865896D01*
X102982055Y-94865896D01*
X102982058Y-94865894D01*
X102982063Y-94865894D01*
X102985251Y-94864573D01*
X102993232Y-94861273D01*
X102993273Y-94861251D01*
X103145937Y-94798016D01*
X103145937Y-94798015D01*
X103145944Y-94798013D01*
X103293432Y-94699464D01*
X103418861Y-94574035D01*
X103517410Y-94426547D01*
X103585291Y-94262666D01*
X103590329Y-94237341D01*
X103619896Y-94088695D01*
X103619897Y-94088693D01*
X103619897Y-93911306D01*
X103619896Y-93911304D01*
X103585293Y-93737341D01*
X103585290Y-93737332D01*
X103517413Y-93573459D01*
X103517406Y-93573446D01*
X103418861Y-93425965D01*
X103418858Y-93425961D01*
X103418853Y-93425955D01*
X103293440Y-93300542D01*
X103293434Y-93300537D01*
X103293433Y-93300536D01*
X103145956Y-93201994D01*
X103145955Y-93201993D01*
X103145950Y-93201990D01*
X103145937Y-93201983D01*
X103145923Y-93201977D01*
X102982073Y-93134109D01*
X102982050Y-93134101D01*
X102982043Y-93134099D01*
X102808095Y-93099500D01*
X102808091Y-93099500D01*
X102808088Y-93099500D01*
X102630706Y-93099500D01*
X102630703Y-93099500D01*
X102630698Y-93099500D01*
X102456749Y-93134100D01*
X102456742Y-93134101D01*
X102456724Y-93134107D01*
X102292844Y-93201989D01*
X102193010Y-93268696D01*
X102161176Y-93283928D01*
X102129542Y-93293834D01*
X102092486Y-93299500D01*
X101078746Y-93299500D01*
X101043810Y-93294477D01*
X101018568Y-93287065D01*
X100965823Y-93255769D01*
X97658736Y-89948682D01*
X97637585Y-89920428D01*
X97621700Y-89891337D01*
X97608915Y-89856101D01*
X97596221Y-89792287D01*
X97585291Y-89737334D01*
X97523724Y-89588696D01*
X97517413Y-89573459D01*
X97517406Y-89573446D01*
X97418861Y-89425965D01*
X97418858Y-89425961D01*
X97418853Y-89425955D01*
X97293440Y-89300542D01*
X97293434Y-89300537D01*
X97293424Y-89300530D01*
X97145956Y-89201994D01*
X97145955Y-89201993D01*
X97145950Y-89201990D01*
X97145937Y-89201983D01*
X97145923Y-89201977D01*
X96982073Y-89134109D01*
X96982069Y-89134108D01*
X96982050Y-89134101D01*
X96982043Y-89134099D01*
X96808095Y-89099500D01*
X96808091Y-89099500D01*
X96808088Y-89099500D01*
X96630706Y-89099500D01*
X96630703Y-89099500D01*
X96630698Y-89099500D01*
X96456749Y-89134100D01*
X96456742Y-89134101D01*
X96456724Y-89134108D01*
X96456719Y-89134109D01*
X96292869Y-89201977D01*
X96292851Y-89201985D01*
X96292836Y-89201994D01*
X96145369Y-89300530D01*
X96145358Y-89300537D01*
X96145352Y-89300542D01*
X96019939Y-89425955D01*
X96019934Y-89425961D01*
X96019933Y-89425962D01*
X95921391Y-89573439D01*
X95921382Y-89573454D01*
X95921374Y-89573472D01*
X95853506Y-89737322D01*
X95853498Y-89737345D01*
X95853496Y-89737352D01*
X95818897Y-89911299D01*
X94404197Y-89911299D01*
X93293440Y-88800542D01*
X93293426Y-88800530D01*
X93293423Y-88800528D01*
X93235810Y-88762034D01*
X93235796Y-88762025D01*
X93234356Y-88761063D01*
X93145944Y-88701987D01*
X93145941Y-88701985D01*
X93145937Y-88701983D01*
X93064004Y-88668046D01*
X93064003Y-88668046D01*
X92982063Y-88634105D01*
X92982055Y-88634103D01*
X92982048Y-88634101D01*
X92982029Y-88634097D01*
X92808096Y-88599500D01*
X92808093Y-88599500D01*
X92808089Y-88599500D01*
X92630705Y-88599500D01*
X92630700Y-88599500D01*
X92630696Y-88599500D01*
X92456763Y-88634097D01*
X92456724Y-88634106D01*
X92322376Y-88689754D01*
X92322365Y-88689760D01*
X92292852Y-88701985D01*
X92204437Y-88761063D01*
X92199775Y-88764178D01*
X92197592Y-88765636D01*
X92197588Y-88765639D01*
X92145357Y-88800537D01*
X92019930Y-88925964D01*
X92004729Y-88948717D01*
X92002558Y-88951967D01*
X91999940Y-88955886D01*
X91921384Y-89073453D01*
X91897430Y-89131284D01*
X91894293Y-89138855D01*
X91894290Y-89138862D01*
X91894262Y-89138927D01*
X91894258Y-89138936D01*
X91853502Y-89237331D01*
X91853494Y-89237366D01*
X91818897Y-89411299D01*
X87479931Y-89411299D01*
X86368823Y-88300191D01*
X86347671Y-88271935D01*
X86335064Y-88248846D01*
X86319897Y-88189421D01*
X86319897Y-85817925D01*
X86324919Y-85782992D01*
X86332331Y-85757747D01*
X86363625Y-85705005D01*
X92419207Y-79649423D01*
X92447457Y-79628275D01*
X92470549Y-79615667D01*
X92529974Y-79600500D01*
X98977206Y-79600500D01*
X99012138Y-79605521D01*
X99037382Y-79612934D01*
X99090128Y-79644230D01*
X99145359Y-79699461D01*
X99145363Y-79699465D01*
X99292843Y-79798009D01*
X99292856Y-79798016D01*
X99328976Y-79812977D01*
X99414541Y-79848419D01*
X99414579Y-79848434D01*
X99415760Y-79848923D01*
X99456731Y-79865894D01*
X99456733Y-79865894D01*
X99456738Y-79865896D01*
X99623077Y-79898982D01*
X99625800Y-79899704D01*
X99630703Y-79900500D01*
X99808090Y-79900500D01*
X99812211Y-79900500D01*
X99820064Y-79898117D01*
X99866079Y-79888964D01*
X99866080Y-79888964D01*
X99982050Y-79865897D01*
X99982050Y-79865896D01*
X99982055Y-79865896D01*
X99982058Y-79865894D01*
X99982063Y-79865894D01*
X99985251Y-79864573D01*
X99993232Y-79861273D01*
X99993273Y-79861251D01*
X100145937Y-79798016D01*
X100145937Y-79798015D01*
X100145944Y-79798013D01*
X100293432Y-79699464D01*
X100418861Y-79574035D01*
X100517410Y-79426547D01*
X100585291Y-79262666D01*
X100597360Y-79201994D01*
X100610864Y-79134101D01*
X100619897Y-79088691D01*
X100619897Y-78911309D01*
X100619897Y-78911306D01*
X100619897Y-78911125D01*
X100619471Y-78909169D01*
X100585293Y-78737341D01*
X100585290Y-78737332D01*
X100517413Y-78573459D01*
X100517406Y-78573446D01*
X100418861Y-78425965D01*
X100418858Y-78425961D01*
X100418853Y-78425955D01*
X100293440Y-78300542D01*
X100293434Y-78300537D01*
X100293433Y-78300536D01*
X100186773Y-78229268D01*
X100160522Y-78205688D01*
X100150492Y-78193687D01*
X100122609Y-78129629D01*
X100120559Y-78113313D01*
X100120313Y-78094785D01*
X100119897Y-78094785D01*
X100119897Y-77911125D01*
X100119471Y-77909169D01*
X100085293Y-77737341D01*
X100085290Y-77737332D01*
X100017413Y-77573459D01*
X100017406Y-77573446D01*
X99918861Y-77425965D01*
X99918858Y-77425961D01*
X99918853Y-77425955D01*
X99793440Y-77300542D01*
X99793434Y-77300537D01*
X99793433Y-77300536D01*
X99686773Y-77229268D01*
X99660522Y-77205688D01*
X99650492Y-77193687D01*
X99622609Y-77129629D01*
X99620559Y-77113313D01*
X99620313Y-77094785D01*
X99619897Y-77094785D01*
X99619897Y-76911125D01*
X99619471Y-76909169D01*
X99585293Y-76737341D01*
X99585290Y-76737332D01*
X99517413Y-76573459D01*
X99517406Y-76573446D01*
X99418861Y-76425965D01*
X99418858Y-76425961D01*
X99418853Y-76425955D01*
X99293440Y-76300542D01*
X99293434Y-76300537D01*
X99293433Y-76300536D01*
X99145956Y-76201994D01*
X99145955Y-76201993D01*
X99145950Y-76201990D01*
X99145937Y-76201983D01*
X99145923Y-76201977D01*
X98982073Y-76134109D01*
X98982050Y-76134101D01*
X98982043Y-76134099D01*
X98808095Y-76099500D01*
X98808091Y-76099500D01*
X98808088Y-76099500D01*
X98630706Y-76099500D01*
X98630703Y-76099500D01*
X98630698Y-76099500D01*
X98456749Y-76134100D01*
X98456742Y-76134101D01*
X98456719Y-76134109D01*
X98292869Y-76201977D01*
X98292851Y-76201985D01*
X98292836Y-76201994D01*
X98145363Y-76300533D01*
X98145359Y-76300536D01*
X98114041Y-76331856D01*
X98114040Y-76331857D01*
X98095320Y-76350577D01*
X98067072Y-76371723D01*
X98043986Y-76384330D01*
X97984555Y-76399500D01*
X91308016Y-76399500D01*
X91307953Y-76399499D01*
X91306049Y-76399499D01*
X91298453Y-76399499D01*
X91140339Y-76399499D01*
X91039395Y-76426546D01*
X91039396Y-76426547D01*
X90987610Y-76440422D01*
X90978635Y-76445605D01*
X90978622Y-76445613D01*
X90850683Y-76519476D01*
X90850681Y-76519478D01*
X90850674Y-76519484D01*
X90738873Y-76631286D01*
X83350683Y-84019477D01*
X83238878Y-84131281D01*
X83238876Y-84131283D01*
X83192821Y-84211056D01*
X83192819Y-84211060D01*
X83167982Y-84254075D01*
X83166011Y-84256644D01*
X83159584Y-84268652D01*
X83158787Y-84272066D01*
X83118896Y-84420943D01*
X83118896Y-84579065D01*
X83118897Y-84589058D01*
X83118897Y-89411590D01*
X83118896Y-89411664D01*
X83118896Y-89413348D01*
X83118896Y-89579054D01*
X83118895Y-89579054D01*
X27311104Y-89579054D01*
X27311104Y-82309448D01*
X34807000Y-82309448D01*
X34807000Y-82490550D01*
X34835329Y-82669413D01*
X34891278Y-82841612D01*
X34891286Y-82841635D01*
X34891288Y-82841639D01*
X34973506Y-83002997D01*
X35079941Y-83149494D01*
X35079945Y-83149499D01*
X35079952Y-83149507D01*
X35207993Y-83277548D01*
X35207997Y-83277551D01*
X35208000Y-83277554D01*
X35208005Y-83277558D01*
X35335787Y-83370396D01*
X35354506Y-83383996D01*
X35459984Y-83437740D01*
X35515860Y-83466211D01*
X35515863Y-83466212D01*
X35601976Y-83494191D01*
X35648659Y-83509359D01*
X35688084Y-83522169D01*
X35688085Y-83522169D01*
X35688091Y-83522171D01*
X35770929Y-83535291D01*
X35866949Y-83550500D01*
X35866954Y-83550500D01*
X36048048Y-83550500D01*
X36048051Y-83550500D01*
X36134759Y-83536765D01*
X36226909Y-83522171D01*
X36399139Y-83466211D01*
X36560494Y-83383996D01*
X36707001Y-83277553D01*
X36835053Y-83149501D01*
X36941496Y-83002994D01*
X37023711Y-82841639D01*
X37079671Y-82669409D01*
X37094265Y-82577259D01*
X37108000Y-82490551D01*
X37108000Y-82309448D01*
X37082428Y-82147999D01*
X37079671Y-82130591D01*
X37024833Y-81961815D01*
X37024472Y-81960622D01*
X37024469Y-81960344D01*
X37024156Y-81959233D01*
X37007501Y-81926547D01*
X36976596Y-81865893D01*
X36941496Y-81797006D01*
X36891280Y-81727889D01*
X36891279Y-81727887D01*
X36891278Y-81727885D01*
X36835072Y-81650524D01*
X36835054Y-81650500D01*
X36835046Y-81650491D01*
X36707007Y-81522452D01*
X36706998Y-81522444D01*
X36706974Y-81522426D01*
X36571099Y-81423708D01*
X36571090Y-81423702D01*
X36560497Y-81416006D01*
X36560496Y-81416005D01*
X36560494Y-81416004D01*
X36551260Y-81411299D01*
X36508801Y-81389664D01*
X36508800Y-81389664D01*
X36399139Y-81333788D01*
X36399136Y-81333787D01*
X36399133Y-81333786D01*
X36399131Y-81333785D01*
X36399112Y-81333778D01*
X36226912Y-81277829D01*
X36226913Y-81277829D01*
X36092765Y-81256582D01*
X36048051Y-81249500D01*
X36048050Y-81249500D01*
X35866950Y-81249500D01*
X35866949Y-81249500D01*
X35831177Y-81255165D01*
X35688085Y-81277829D01*
X35515886Y-81333778D01*
X35515863Y-81333786D01*
X35515859Y-81333788D01*
X35354505Y-81416004D01*
X35207999Y-81522445D01*
X35207991Y-81522452D01*
X35079952Y-81650491D01*
X35079945Y-81650499D01*
X34973504Y-81797005D01*
X34891288Y-81958359D01*
X34891286Y-81958363D01*
X34891278Y-81958386D01*
X34835329Y-82130585D01*
X34807000Y-82309448D01*
X27311104Y-82309448D01*
X27311104Y-77805507D01*
X34757000Y-77805507D01*
X34757000Y-77994491D01*
X34778403Y-78129625D01*
X34786559Y-78181118D01*
X34844954Y-78360836D01*
X34930740Y-78529199D01*
X35041810Y-78682073D01*
X35175427Y-78815690D01*
X35261729Y-78878393D01*
X35328296Y-78926757D01*
X35328297Y-78926757D01*
X35328301Y-78926760D01*
X35407847Y-78967290D01*
X35490222Y-79009263D01*
X35491820Y-79010199D01*
X35495537Y-79011999D01*
X35497521Y-79012985D01*
X35501275Y-79014043D01*
X35592997Y-79043846D01*
X35676381Y-79070940D01*
X35863014Y-79100500D01*
X35863019Y-79100500D01*
X36051985Y-79100500D01*
X36051986Y-79100500D01*
X36238618Y-79070940D01*
X36418332Y-79012547D01*
X36586699Y-78926760D01*
X36739573Y-78815690D01*
X36873190Y-78682073D01*
X36984260Y-78529199D01*
X37070047Y-78360832D01*
X37128440Y-78181118D01*
X37141854Y-78096427D01*
X37158000Y-77994486D01*
X37158000Y-77805513D01*
X37128440Y-77618881D01*
X37070045Y-77439163D01*
X37024790Y-77350347D01*
X36984260Y-77270801D01*
X36984258Y-77270798D01*
X36984257Y-77270796D01*
X36946889Y-77219364D01*
X36873190Y-77117927D01*
X36739573Y-76984310D01*
X36586699Y-76873240D01*
X36418336Y-76787454D01*
X36238618Y-76729059D01*
X36238612Y-76729058D01*
X36051991Y-76699500D01*
X36051986Y-76699500D01*
X36051981Y-76699500D01*
X35863019Y-76699500D01*
X35863014Y-76699500D01*
X35863009Y-76699500D01*
X35676386Y-76729058D01*
X35676384Y-76729058D01*
X35676381Y-76729059D01*
X35496663Y-76787454D01*
X35412481Y-76830347D01*
X35328299Y-76873240D01*
X35241079Y-76936610D01*
X35241078Y-76936610D01*
X35187294Y-76975686D01*
X35179919Y-76979816D01*
X35037317Y-77122418D01*
X35033185Y-77129797D01*
X35007063Y-77165751D01*
X35007063Y-77165752D01*
X34930739Y-77270800D01*
X34890209Y-77350345D01*
X34844954Y-77439163D01*
X34786559Y-77618881D01*
X34786558Y-77618884D01*
X34786558Y-77618886D01*
X34757000Y-77805507D01*
X27311104Y-77805507D01*
X27311104Y-67838697D01*
X70079499Y-67838697D01*
X70114100Y-68012640D01*
X70114107Y-68012671D01*
X70165387Y-68136473D01*
X70172443Y-68159730D01*
X70177117Y-68183230D01*
X70179500Y-68207419D01*
X70179500Y-72792580D01*
X70177116Y-72816776D01*
X70172442Y-72840269D01*
X70165387Y-72863525D01*
X70114111Y-72987317D01*
X70114101Y-72987345D01*
X70114099Y-72987352D01*
X70079500Y-73161299D01*
X70079500Y-73338699D01*
X70114099Y-73512646D01*
X70114101Y-73512653D01*
X70114109Y-73512676D01*
X70181977Y-73676526D01*
X70181985Y-73676544D01*
X70181994Y-73676559D01*
X70280536Y-73824036D01*
X70280537Y-73824037D01*
X70280542Y-73824043D01*
X70405955Y-73949456D01*
X70405961Y-73949461D01*
X70405965Y-73949464D01*
X70553446Y-74048009D01*
X70553459Y-74048016D01*
X70589579Y-74062977D01*
X70675144Y-74098419D01*
X70675182Y-74098434D01*
X70676363Y-74098923D01*
X70717334Y-74115894D01*
X70717336Y-74115894D01*
X70717341Y-74115896D01*
X70883680Y-74148982D01*
X70886403Y-74149704D01*
X70891306Y-74150500D01*
X71068693Y-74150500D01*
X71072814Y-74150500D01*
X71080667Y-74148117D01*
X71126682Y-74138964D01*
X71126683Y-74138964D01*
X71242653Y-74115897D01*
X71242653Y-74115896D01*
X71242658Y-74115896D01*
X71242661Y-74115894D01*
X71242666Y-74115894D01*
X71245854Y-74114573D01*
X71253835Y-74111273D01*
X71253876Y-74111251D01*
X71406540Y-74048016D01*
X71406540Y-74048015D01*
X71406547Y-74048013D01*
X71554035Y-73949464D01*
X71679464Y-73824035D01*
X71778013Y-73676547D01*
X71845894Y-73512666D01*
X71880500Y-73338691D01*
X71880500Y-73161309D01*
X71880500Y-73161306D01*
X71880500Y-73161125D01*
X71880074Y-73159169D01*
X71845896Y-72987341D01*
X71845893Y-72987332D01*
X71794609Y-72863520D01*
X71787557Y-72840269D01*
X71782881Y-72816767D01*
X71780500Y-72792580D01*
X71780500Y-68207419D01*
X71782882Y-68183231D01*
X71787557Y-68159725D01*
X71794609Y-68136479D01*
X71844211Y-68016726D01*
X71845378Y-68014170D01*
X71845887Y-68012679D01*
X71845892Y-68012670D01*
X71845894Y-68012666D01*
X71880499Y-67838697D01*
X71880500Y-67838693D01*
X71880500Y-67661125D01*
X71880074Y-67659169D01*
X71845896Y-67487341D01*
X71845893Y-67487332D01*
X71778016Y-67323459D01*
X71778009Y-67323446D01*
X71679464Y-67175965D01*
X71679461Y-67175961D01*
X71679456Y-67175955D01*
X71554043Y-67050542D01*
X71554037Y-67050537D01*
X71554036Y-67050536D01*
X71406559Y-66951994D01*
X71406558Y-66951993D01*
X71406553Y-66951990D01*
X71406540Y-66951983D01*
X71393414Y-66946546D01*
X71242676Y-66884109D01*
X71242653Y-66884101D01*
X71242646Y-66884099D01*
X71068698Y-66849500D01*
X71068694Y-66849500D01*
X71068691Y-66849500D01*
X70891309Y-66849500D01*
X70891306Y-66849500D01*
X70891301Y-66849500D01*
X70717352Y-66884100D01*
X70717345Y-66884101D01*
X70717322Y-66884109D01*
X70553472Y-66951977D01*
X70553454Y-66951985D01*
X70553439Y-66951994D01*
X70405962Y-67050536D01*
X70405961Y-67050537D01*
X70405955Y-67050542D01*
X70280542Y-67175955D01*
X70280537Y-67175961D01*
X70280536Y-67175962D01*
X70181994Y-67323439D01*
X70181985Y-67323454D01*
X70181977Y-67323472D01*
X70114109Y-67487322D01*
X70114101Y-67487345D01*
X70114099Y-67487352D01*
X70079500Y-67661299D01*
X70079500Y-67661304D01*
X70079500Y-67838695D01*
X70079500Y-67838697D01*
X70079499Y-67838697D01*
X27311104Y-67838697D01*
X27311104Y-53411299D01*
X105818897Y-53411299D01*
X105818897Y-53588699D01*
X105853496Y-53762646D01*
X105853498Y-53762653D01*
X105853506Y-53762676D01*
X105921378Y-53926537D01*
X105921380Y-53926540D01*
X105921381Y-53926542D01*
X105921382Y-53926543D01*
X105921384Y-53926547D01*
X105988096Y-54026387D01*
X106003325Y-54058220D01*
X106013231Y-54089856D01*
X106018897Y-54126909D01*
X106018897Y-66524627D01*
X106013634Y-66542547D01*
X106045813Y-66704314D01*
X106045815Y-66704322D01*
X106045818Y-66704332D01*
X106045820Y-66704336D01*
X106045823Y-66704347D01*
X106098617Y-66831803D01*
X106098621Y-66831810D01*
X106175284Y-66946545D01*
X106175285Y-66946546D01*
X108030055Y-68801315D01*
X108051205Y-68829567D01*
X108067091Y-68858659D01*
X108079878Y-68893897D01*
X108103500Y-69012660D01*
X108103503Y-69012667D01*
X108103506Y-69012676D01*
X108171374Y-69176526D01*
X108171382Y-69176544D01*
X108171391Y-69176559D01*
X108269933Y-69324036D01*
X108269934Y-69324037D01*
X108269939Y-69324043D01*
X108395352Y-69449456D01*
X108395358Y-69449461D01*
X108395362Y-69449464D01*
X108542843Y-69548009D01*
X108542856Y-69548016D01*
X108648825Y-69591909D01*
X108706731Y-69615894D01*
X108706733Y-69615894D01*
X108706738Y-69615896D01*
X108873077Y-69648982D01*
X108875800Y-69649704D01*
X108880703Y-69650500D01*
X109058090Y-69650500D01*
X109062211Y-69650500D01*
X109070064Y-69648117D01*
X109116079Y-69638964D01*
X109116080Y-69638964D01*
X109134579Y-69635284D01*
X109232055Y-69615896D01*
X109232058Y-69615894D01*
X109232063Y-69615894D01*
X109291963Y-69591081D01*
X109310739Y-69583305D01*
X109310741Y-69583303D01*
X109330981Y-69574921D01*
X109365159Y-69566197D01*
X109378966Y-69564712D01*
X109447722Y-69577114D01*
X109498859Y-69624718D01*
X109501534Y-69629227D01*
X109518897Y-69692507D01*
X109518897Y-70872069D01*
X109513873Y-70907007D01*
X109504533Y-70938813D01*
X109488660Y-70972765D01*
X109447741Y-71034005D01*
X109421385Y-71073449D01*
X109421384Y-71073451D01*
X109421383Y-71073453D01*
X109420681Y-71074884D01*
X109419700Y-71077514D01*
X109353506Y-71237322D01*
X109353498Y-71237345D01*
X109353496Y-71237352D01*
X109318897Y-71411299D01*
X109318897Y-71588699D01*
X109353496Y-71762646D01*
X109353498Y-71762653D01*
X109353506Y-71762676D01*
X109421374Y-71926526D01*
X109421382Y-71926544D01*
X109421391Y-71926559D01*
X109519933Y-72074036D01*
X109519934Y-72074037D01*
X109519939Y-72074043D01*
X109645352Y-72199456D01*
X109645358Y-72199461D01*
X109645362Y-72199464D01*
X109792843Y-72298009D01*
X109792856Y-72298016D01*
X109828976Y-72312977D01*
X109914541Y-72348419D01*
X109914579Y-72348434D01*
X109915760Y-72348923D01*
X109956731Y-72365894D01*
X109956733Y-72365894D01*
X109956738Y-72365896D01*
X110123077Y-72398982D01*
X110125800Y-72399704D01*
X110130703Y-72400500D01*
X110308090Y-72400500D01*
X110312211Y-72400500D01*
X110320064Y-72398117D01*
X110366079Y-72388964D01*
X110366080Y-72388964D01*
X110482050Y-72365897D01*
X110482050Y-72365896D01*
X110482055Y-72365896D01*
X110482058Y-72365894D01*
X110482063Y-72365894D01*
X110485251Y-72364573D01*
X110493232Y-72361273D01*
X110493273Y-72361251D01*
X110645937Y-72298016D01*
X110645937Y-72298015D01*
X110645944Y-72298013D01*
X110793432Y-72199464D01*
X110918861Y-72074035D01*
X111017410Y-71926547D01*
X111085291Y-71762666D01*
X111119897Y-71588691D01*
X111119897Y-71411309D01*
X111119897Y-71411306D01*
X111119897Y-71411125D01*
X111119471Y-71409169D01*
X111085293Y-71237341D01*
X111085290Y-71237332D01*
X111017410Y-71073453D01*
X111017408Y-71073451D01*
X111017408Y-71073449D01*
X110949899Y-70972415D01*
X110949094Y-70971146D01*
X110948454Y-70968919D01*
X110935468Y-70941776D01*
X110925562Y-70910139D01*
X110919897Y-70873087D01*
X110919897Y-68431002D01*
X110919896Y-68430998D01*
X110917633Y-68419627D01*
X110917630Y-68419610D01*
X110892978Y-68295677D01*
X110892977Y-68295673D01*
X110892974Y-68295665D01*
X110840177Y-68168199D01*
X110840176Y-68168198D01*
X110840174Y-68168192D01*
X110763509Y-68053454D01*
X110763507Y-68053451D01*
X110763506Y-68053450D01*
X108468823Y-65758768D01*
X108447671Y-65730512D01*
X108435064Y-65707423D01*
X108419897Y-65647998D01*
X108419897Y-62411299D01*
X110318897Y-62411299D01*
X110318897Y-62588699D01*
X110353496Y-62762646D01*
X110353498Y-62762653D01*
X110353506Y-62762676D01*
X110421374Y-62926526D01*
X110421382Y-62926544D01*
X110421391Y-62926559D01*
X110519933Y-63074036D01*
X110519934Y-63074037D01*
X110519939Y-63074043D01*
X110645352Y-63199456D01*
X110645358Y-63199461D01*
X110645362Y-63199464D01*
X110792843Y-63298009D01*
X110792856Y-63298016D01*
X110828976Y-63312977D01*
X110914541Y-63348419D01*
X110914579Y-63348434D01*
X110915760Y-63348923D01*
X110956731Y-63365894D01*
X110956733Y-63365894D01*
X110956738Y-63365896D01*
X111123077Y-63398982D01*
X111125800Y-63399704D01*
X111130703Y-63400500D01*
X111130704Y-63400500D01*
X111130706Y-63400500D01*
X111130759Y-63400500D01*
X111165691Y-63405521D01*
X111190935Y-63412934D01*
X111243680Y-63444229D01*
X113304722Y-65505272D01*
X113304729Y-65505278D01*
X113362848Y-65544111D01*
X113362850Y-65544112D01*
X113362853Y-65544114D01*
X113411270Y-65576465D01*
X113527760Y-65624717D01*
X113529147Y-65625400D01*
X113529651Y-65625500D01*
X113529653Y-65625501D01*
X113529655Y-65625501D01*
X113529657Y-65625501D01*
X113529658Y-65625502D01*
X113609647Y-65641413D01*
X113655324Y-65650500D01*
X113655325Y-65650500D01*
X113655328Y-65650500D01*
X114027205Y-65650500D01*
X114062137Y-65655521D01*
X114087381Y-65662934D01*
X114140132Y-65694235D01*
X114145355Y-65699459D01*
X114145358Y-65699461D01*
X114145362Y-65699464D01*
X114292843Y-65798009D01*
X114292856Y-65798016D01*
X114328976Y-65812977D01*
X114414541Y-65848419D01*
X114414579Y-65848434D01*
X114415760Y-65848923D01*
X114456731Y-65865894D01*
X114456733Y-65865894D01*
X114456738Y-65865896D01*
X114623077Y-65898982D01*
X114625800Y-65899704D01*
X114630703Y-65900500D01*
X114808090Y-65900500D01*
X114812211Y-65900500D01*
X114820064Y-65898117D01*
X114866079Y-65888964D01*
X114866080Y-65888964D01*
X114982050Y-65865897D01*
X114982050Y-65865896D01*
X114982055Y-65865896D01*
X114982058Y-65865894D01*
X114982063Y-65865894D01*
X114985251Y-65864573D01*
X114993232Y-65861273D01*
X114993273Y-65861251D01*
X115145937Y-65798016D01*
X115145937Y-65798015D01*
X115145944Y-65798013D01*
X115293432Y-65699464D01*
X115418861Y-65574035D01*
X115517410Y-65426547D01*
X115585291Y-65262666D01*
X115619897Y-65088691D01*
X115619897Y-64911309D01*
X115619897Y-64911306D01*
X115619897Y-64911125D01*
X115619471Y-64909169D01*
X115585293Y-64737341D01*
X115585290Y-64737332D01*
X115517413Y-64573459D01*
X115517406Y-64573446D01*
X115418861Y-64425965D01*
X115418858Y-64425961D01*
X115418853Y-64425955D01*
X115293440Y-64300542D01*
X115293434Y-64300537D01*
X115293433Y-64300536D01*
X115145956Y-64201994D01*
X115145955Y-64201993D01*
X115145950Y-64201990D01*
X115145937Y-64201983D01*
X115145923Y-64201977D01*
X114982073Y-64134109D01*
X114982050Y-64134101D01*
X114982043Y-64134099D01*
X114808095Y-64099500D01*
X114808091Y-64099500D01*
X114808088Y-64099500D01*
X114630706Y-64099500D01*
X114630703Y-64099500D01*
X114630698Y-64099500D01*
X114456749Y-64134100D01*
X114456742Y-64134101D01*
X114456719Y-64134109D01*
X114292869Y-64201977D01*
X114292851Y-64201985D01*
X114292836Y-64201994D01*
X114145361Y-64300535D01*
X114145349Y-64300545D01*
X114145306Y-64300589D01*
X114145257Y-64300624D01*
X114142043Y-64303414D01*
X114141841Y-64303182D01*
X114117067Y-64321726D01*
X114102193Y-64329848D01*
X114033920Y-64344700D01*
X114007831Y-64339993D01*
X113997859Y-64337065D01*
X113945112Y-64305769D01*
X112168823Y-62529480D01*
X112147671Y-62501224D01*
X112135064Y-62478135D01*
X112119897Y-62418710D01*
X112119897Y-62411125D01*
X112119471Y-62409169D01*
X112085293Y-62237341D01*
X112085290Y-62237332D01*
X112017413Y-62073459D01*
X112017406Y-62073446D01*
X111918861Y-61925965D01*
X111918858Y-61925961D01*
X111918853Y-61925955D01*
X111793440Y-61800542D01*
X111793434Y-61800537D01*
X111793433Y-61800536D01*
X111645956Y-61701994D01*
X111645955Y-61701993D01*
X111645950Y-61701990D01*
X111645937Y-61701983D01*
X111645923Y-61701977D01*
X111482073Y-61634109D01*
X111482050Y-61634101D01*
X111482043Y-61634099D01*
X111308095Y-61599500D01*
X111308091Y-61599500D01*
X111308088Y-61599500D01*
X111130706Y-61599500D01*
X111130703Y-61599500D01*
X111130698Y-61599500D01*
X110956749Y-61634100D01*
X110956742Y-61634101D01*
X110956719Y-61634109D01*
X110792869Y-61701977D01*
X110792851Y-61701985D01*
X110792836Y-61701994D01*
X110645359Y-61800536D01*
X110645358Y-61800537D01*
X110645352Y-61800542D01*
X110519939Y-61925955D01*
X110519934Y-61925961D01*
X110519933Y-61925962D01*
X110421391Y-62073439D01*
X110421382Y-62073454D01*
X110421374Y-62073472D01*
X110353506Y-62237322D01*
X110353498Y-62237345D01*
X110353496Y-62237352D01*
X110318897Y-62411299D01*
X108419897Y-62411299D01*
X108419897Y-54127928D01*
X108424918Y-54092998D01*
X108434261Y-54061179D01*
X108450130Y-54027236D01*
X108517410Y-53926547D01*
X108585291Y-53762666D01*
X108619897Y-53588691D01*
X108619897Y-53411309D01*
X108619897Y-53411306D01*
X108619897Y-53411125D01*
X108619471Y-53409169D01*
X108585293Y-53237341D01*
X108585290Y-53237332D01*
X108517413Y-53073459D01*
X108517406Y-53073446D01*
X108418861Y-52925965D01*
X108418858Y-52925961D01*
X108418853Y-52925955D01*
X108293440Y-52800542D01*
X108293434Y-52800537D01*
X108293433Y-52800536D01*
X108145956Y-52701994D01*
X108145955Y-52701993D01*
X108145950Y-52701990D01*
X108145937Y-52701983D01*
X108145923Y-52701977D01*
X107982073Y-52634109D01*
X107982050Y-52634101D01*
X107982043Y-52634099D01*
X107808095Y-52599500D01*
X107808091Y-52599500D01*
X107808088Y-52599500D01*
X107630706Y-52599500D01*
X107630703Y-52599500D01*
X107630698Y-52599500D01*
X107456749Y-52634100D01*
X107456742Y-52634101D01*
X107456719Y-52634109D01*
X107292850Y-52701985D01*
X107290640Y-52703034D01*
X107274531Y-52709342D01*
X107256354Y-52715033D01*
X107186501Y-52716279D01*
X107171515Y-52712168D01*
X107148884Y-52703105D01*
X107148777Y-52703332D01*
X107145947Y-52701988D01*
X107145937Y-52701983D01*
X107145923Y-52701977D01*
X106982073Y-52634109D01*
X106982050Y-52634101D01*
X106982043Y-52634099D01*
X106808095Y-52599500D01*
X106808091Y-52599500D01*
X106808088Y-52599500D01*
X106630706Y-52599500D01*
X106630703Y-52599500D01*
X106630698Y-52599500D01*
X106456749Y-52634100D01*
X106456742Y-52634101D01*
X106456719Y-52634109D01*
X106292869Y-52701977D01*
X106292851Y-52701985D01*
X106292836Y-52701994D01*
X106145359Y-52800536D01*
X106145358Y-52800537D01*
X106145352Y-52800542D01*
X106019939Y-52925955D01*
X106019934Y-52925961D01*
X106019933Y-52925962D01*
X105921391Y-53073439D01*
X105921382Y-53073454D01*
X105921374Y-53073472D01*
X105853506Y-53237322D01*
X105853498Y-53237345D01*
X105853496Y-53237352D01*
X105818897Y-53411299D01*
X27311104Y-53411299D01*
X27311104Y-50098543D01*
X99999499Y-50098543D01*
X100037947Y-50291829D01*
X100037950Y-50291839D01*
X100038316Y-50292723D01*
X100038317Y-50292728D01*
X100113360Y-50473900D01*
X100113365Y-50473909D01*
X100113375Y-50473926D01*
X100222861Y-50637783D01*
X100222862Y-50637784D01*
X100222867Y-50637790D01*
X100362208Y-50777131D01*
X100362214Y-50777136D01*
X100362218Y-50777139D01*
X100526079Y-50886628D01*
X100526092Y-50886635D01*
X100708160Y-50962049D01*
X100708165Y-50962051D01*
X100708169Y-50962051D01*
X100708170Y-50962052D01*
X100708442Y-50962106D01*
X100708469Y-50962112D01*
X100901453Y-51000500D01*
X115098543Y-51000500D01*
X115098544Y-51000500D01*
X115120216Y-50996188D01*
X115228582Y-50974632D01*
X115228583Y-50974632D01*
X115241301Y-50972102D01*
X115291835Y-50962051D01*
X115473914Y-50886632D01*
X115637782Y-50777139D01*
X115777139Y-50637782D01*
X115886632Y-50473914D01*
X115962051Y-50291835D01*
X116000500Y-50098541D01*
X116000500Y-49901459D01*
X116000500Y-49901456D01*
X116000500Y-49901453D01*
X115962112Y-49708471D01*
X115962112Y-49708472D01*
X115962052Y-49708170D01*
X115962051Y-49708169D01*
X115961811Y-49706964D01*
X115959735Y-49702573D01*
X115886635Y-49526092D01*
X115886628Y-49526079D01*
X115777139Y-49362218D01*
X115777136Y-49362214D01*
X115777131Y-49362208D01*
X115637790Y-49222867D01*
X115637784Y-49222862D01*
X115637783Y-49222861D01*
X115473926Y-49113375D01*
X115473925Y-49113374D01*
X115473920Y-49113371D01*
X115473907Y-49113364D01*
X115473900Y-49113360D01*
X115291861Y-49037958D01*
X115291847Y-49037953D01*
X115291839Y-49037950D01*
X115291829Y-49037947D01*
X115291826Y-49037946D01*
X115291822Y-49037945D01*
X115098546Y-48999500D01*
X115098543Y-48999500D01*
X115098541Y-48999500D01*
X100901459Y-48999500D01*
X100901457Y-48999500D01*
X100901453Y-48999500D01*
X100708176Y-49037945D01*
X100708170Y-49037947D01*
X100708160Y-49037950D01*
X100708155Y-49037951D01*
X100708137Y-49037958D01*
X100526098Y-49113360D01*
X100526089Y-49113365D01*
X100526072Y-49113375D01*
X100362215Y-49222861D01*
X100362214Y-49222862D01*
X100362208Y-49222867D01*
X100222867Y-49362208D01*
X100222862Y-49362214D01*
X100222861Y-49362215D01*
X100113375Y-49526072D01*
X100113365Y-49526089D01*
X100113360Y-49526098D01*
X100037958Y-49708137D01*
X100037945Y-49708176D01*
X99999500Y-49901451D01*
X99999500Y-49901456D01*
X99999500Y-49901459D01*
X99999500Y-50098541D01*
X99999500Y-50098543D01*
X99999499Y-50098543D01*
X27311104Y-50098543D01*
X27311104Y-44161299D01*
X84079500Y-44161299D01*
X84079500Y-44338699D01*
X84114099Y-44512646D01*
X84114101Y-44512653D01*
X84114109Y-44512676D01*
X84139526Y-44574038D01*
X84181984Y-44676542D01*
X84181985Y-44676543D01*
X84181987Y-44676547D01*
X84197298Y-44699461D01*
X84248698Y-44776387D01*
X84263928Y-44808220D01*
X84273834Y-44839856D01*
X84279500Y-44876909D01*
X84279500Y-47774627D01*
X84274237Y-47792547D01*
X84280389Y-47823472D01*
X84306418Y-47954322D01*
X84306421Y-47954332D01*
X84306423Y-47954336D01*
X84306426Y-47954347D01*
X84359220Y-48081803D01*
X84359228Y-48081817D01*
X84435882Y-48196538D01*
X84435883Y-48196539D01*
X84435886Y-48196543D01*
X84540662Y-48301319D01*
X84561812Y-48329572D01*
X84577695Y-48358660D01*
X84590479Y-48393895D01*
X84614100Y-48512649D01*
X84614109Y-48512676D01*
X84681977Y-48676526D01*
X84681985Y-48676544D01*
X84681994Y-48676559D01*
X84780536Y-48824036D01*
X84780537Y-48824037D01*
X84780542Y-48824043D01*
X84905955Y-48949456D01*
X84905961Y-48949461D01*
X84905965Y-48949464D01*
X85053446Y-49048009D01*
X85053459Y-49048016D01*
X85089579Y-49062977D01*
X85175144Y-49098419D01*
X85175182Y-49098434D01*
X85176363Y-49098923D01*
X85217334Y-49115894D01*
X85217336Y-49115894D01*
X85217341Y-49115896D01*
X85383680Y-49148982D01*
X85386403Y-49149704D01*
X85391306Y-49150500D01*
X85568693Y-49150500D01*
X85572814Y-49150500D01*
X85580667Y-49148117D01*
X85626682Y-49138964D01*
X85626683Y-49138964D01*
X85742653Y-49115897D01*
X85742653Y-49115896D01*
X85742658Y-49115896D01*
X85742661Y-49115894D01*
X85742666Y-49115894D01*
X85745854Y-49114573D01*
X85753835Y-49111273D01*
X85753876Y-49111251D01*
X85906540Y-49048016D01*
X85906540Y-49048015D01*
X85906547Y-49048013D01*
X86054035Y-48949464D01*
X86179464Y-48824035D01*
X86278013Y-48676547D01*
X86345894Y-48512666D01*
X86345898Y-48512649D01*
X86380499Y-48338695D01*
X86380500Y-48338693D01*
X86380500Y-48161125D01*
X86380074Y-48159169D01*
X86345896Y-47987341D01*
X86345893Y-47987332D01*
X86278016Y-47823459D01*
X86278009Y-47823446D01*
X86179464Y-47675965D01*
X86179461Y-47675961D01*
X86179456Y-47675955D01*
X86054040Y-47550539D01*
X85906560Y-47451994D01*
X85906533Y-47451979D01*
X85773518Y-47396884D01*
X85743165Y-47378875D01*
X85730995Y-47369068D01*
X85691146Y-47311676D01*
X85686844Y-47298752D01*
X85680500Y-47259596D01*
X85680500Y-44877928D01*
X85685521Y-44842998D01*
X85694864Y-44811179D01*
X85710733Y-44777236D01*
X85778013Y-44676547D01*
X85845894Y-44512666D01*
X85880500Y-44338691D01*
X85880500Y-44161309D01*
X85880500Y-44161306D01*
X85880500Y-44161125D01*
X85880074Y-44159169D01*
X85845896Y-43987341D01*
X85845893Y-43987332D01*
X85778016Y-43823459D01*
X85778009Y-43823446D01*
X85679464Y-43675965D01*
X85679461Y-43675961D01*
X85679456Y-43675955D01*
X85554043Y-43550542D01*
X85554037Y-43550537D01*
X85554036Y-43550536D01*
X85406559Y-43451994D01*
X85406558Y-43451993D01*
X85406553Y-43451990D01*
X85406540Y-43451983D01*
X85406526Y-43451977D01*
X85242676Y-43384109D01*
X85242653Y-43384101D01*
X85242646Y-43384099D01*
X85068698Y-43349500D01*
X85068694Y-43349500D01*
X85068691Y-43349500D01*
X84891309Y-43349500D01*
X84891306Y-43349500D01*
X84891301Y-43349500D01*
X84717352Y-43384100D01*
X84717345Y-43384101D01*
X84717322Y-43384109D01*
X84553472Y-43451977D01*
X84553454Y-43451985D01*
X84553439Y-43451994D01*
X84405962Y-43550536D01*
X84405961Y-43550537D01*
X84405955Y-43550542D01*
X84280542Y-43675955D01*
X84280537Y-43675961D01*
X84280536Y-43675962D01*
X84181994Y-43823439D01*
X84181985Y-43823454D01*
X84181977Y-43823472D01*
X84114109Y-43987322D01*
X84114101Y-43987345D01*
X84114099Y-43987352D01*
X84079500Y-44161299D01*
X27311104Y-44161299D01*
X27311104Y-34911299D01*
X60818897Y-34911299D01*
X60818897Y-35088699D01*
X60853496Y-35262646D01*
X60853498Y-35262653D01*
X60853506Y-35262676D01*
X60921374Y-35426526D01*
X60921382Y-35426544D01*
X60921391Y-35426559D01*
X61019933Y-35574036D01*
X61019934Y-35574037D01*
X61019939Y-35574043D01*
X61145352Y-35699456D01*
X61145358Y-35699461D01*
X61145362Y-35699464D01*
X61292843Y-35798009D01*
X61292856Y-35798016D01*
X61328976Y-35812977D01*
X61414541Y-35848419D01*
X61414579Y-35848434D01*
X61415760Y-35848923D01*
X61456731Y-35865894D01*
X61456733Y-35865894D01*
X61456738Y-35865896D01*
X61623077Y-35898982D01*
X61625800Y-35899704D01*
X61630703Y-35900500D01*
X61808090Y-35900500D01*
X61812211Y-35900500D01*
X61820064Y-35898117D01*
X61866079Y-35888964D01*
X61866080Y-35888964D01*
X61982050Y-35865897D01*
X61982050Y-35865896D01*
X61982055Y-35865896D01*
X61982058Y-35865894D01*
X61982063Y-35865894D01*
X61985251Y-35864573D01*
X61993232Y-35861273D01*
X61993273Y-35861251D01*
X62145937Y-35798016D01*
X62145937Y-35798015D01*
X62145944Y-35798013D01*
X62245788Y-35731297D01*
X62277617Y-35716070D01*
X62309258Y-35706163D01*
X62346305Y-35700500D01*
X65591467Y-35700500D01*
X65626398Y-35705521D01*
X65658213Y-35714863D01*
X65692164Y-35730736D01*
X65792850Y-35798013D01*
X65792852Y-35798014D01*
X65792856Y-35798016D01*
X65956730Y-35865894D01*
X65956735Y-35865895D01*
X65956738Y-35865896D01*
X66123077Y-35898982D01*
X66125800Y-35899704D01*
X66130703Y-35900500D01*
X66308090Y-35900500D01*
X66312211Y-35900500D01*
X66320064Y-35898117D01*
X66366079Y-35888964D01*
X66366080Y-35888964D01*
X66482050Y-35865897D01*
X66482050Y-35865896D01*
X66482055Y-35865896D01*
X66482058Y-35865894D01*
X66482063Y-35865894D01*
X66485251Y-35864573D01*
X66493232Y-35861273D01*
X66493273Y-35861251D01*
X66645937Y-35798016D01*
X66645937Y-35798015D01*
X66645944Y-35798013D01*
X66793432Y-35699464D01*
X66918861Y-35574035D01*
X67017410Y-35426547D01*
X67085291Y-35262666D01*
X67119897Y-35088691D01*
X67119897Y-34911309D01*
X67119897Y-34911306D01*
X67119897Y-34911125D01*
X67119471Y-34909169D01*
X67085293Y-34737341D01*
X67085290Y-34737332D01*
X67017413Y-34573459D01*
X67017406Y-34573446D01*
X66918861Y-34425965D01*
X66918858Y-34425961D01*
X66918853Y-34425955D01*
X66793440Y-34300542D01*
X66793434Y-34300537D01*
X66793433Y-34300536D01*
X66645956Y-34201994D01*
X66645955Y-34201993D01*
X66645950Y-34201990D01*
X66645937Y-34201983D01*
X66645923Y-34201977D01*
X66482073Y-34134109D01*
X66482050Y-34134101D01*
X66482043Y-34134099D01*
X66308095Y-34099500D01*
X66308091Y-34099500D01*
X66308088Y-34099500D01*
X66130706Y-34099500D01*
X66130703Y-34099500D01*
X66130698Y-34099500D01*
X65956749Y-34134100D01*
X65956742Y-34134101D01*
X65956724Y-34134107D01*
X65792844Y-34201989D01*
X65693010Y-34268696D01*
X65661176Y-34283928D01*
X65629542Y-34293834D01*
X65592486Y-34299500D01*
X62347327Y-34299500D01*
X62312392Y-34294477D01*
X62280583Y-34285137D01*
X62246629Y-34269263D01*
X62145949Y-34201990D01*
X62145945Y-34201987D01*
X61982068Y-34134107D01*
X61982050Y-34134101D01*
X61982043Y-34134099D01*
X61808095Y-34099500D01*
X61808091Y-34099500D01*
X61808088Y-34099500D01*
X61630706Y-34099500D01*
X61630703Y-34099500D01*
X61630698Y-34099500D01*
X61456749Y-34134100D01*
X61456742Y-34134101D01*
X61456719Y-34134109D01*
X61292869Y-34201977D01*
X61292851Y-34201985D01*
X61292836Y-34201994D01*
X61145359Y-34300536D01*
X61145358Y-34300537D01*
X61145352Y-34300542D01*
X61019939Y-34425955D01*
X61019934Y-34425961D01*
X61019933Y-34425962D01*
X60921391Y-34573439D01*
X60921382Y-34573454D01*
X60921374Y-34573472D01*
X60853506Y-34737322D01*
X60853498Y-34737345D01*
X60853496Y-34737352D01*
X60818897Y-34911299D01*
X27311104Y-34911299D01*
X27311104Y-30411299D01*
X69318897Y-30411299D01*
X69318897Y-30588699D01*
X69353496Y-30762646D01*
X69353498Y-30762653D01*
X69353506Y-30762676D01*
X69421374Y-30926526D01*
X69421382Y-30926544D01*
X69421391Y-30926559D01*
X69519933Y-31074036D01*
X69519934Y-31074037D01*
X69519939Y-31074043D01*
X69645352Y-31199456D01*
X69645358Y-31199461D01*
X69645362Y-31199464D01*
X69792843Y-31298009D01*
X69792856Y-31298016D01*
X69825879Y-31311694D01*
X69884257Y-31335875D01*
X69884262Y-31335876D01*
X69891178Y-31338741D01*
X69956731Y-31365894D01*
X70079112Y-31390236D01*
X70083627Y-31391496D01*
X70087475Y-31393896D01*
X70107779Y-31401059D01*
X70137151Y-31416423D01*
X70167358Y-31438618D01*
X71772844Y-33044106D01*
X71772845Y-33044107D01*
X71772859Y-33044118D01*
X71772872Y-33044127D01*
X71827896Y-33080892D01*
X71827898Y-33080893D01*
X71834540Y-33085331D01*
X71887586Y-33120775D01*
X72013343Y-33172865D01*
X72014595Y-33173486D01*
X72150398Y-33200500D01*
X72150401Y-33200500D01*
X72150404Y-33200500D01*
X83860048Y-33200500D01*
X83894980Y-33205521D01*
X83920224Y-33212934D01*
X83972970Y-33244230D01*
X84469970Y-33741230D01*
X84491120Y-33769482D01*
X84503728Y-33792571D01*
X84518897Y-33852000D01*
X84518897Y-37024627D01*
X84513634Y-37042547D01*
X84545351Y-37201989D01*
X84545815Y-37204322D01*
X84545818Y-37204332D01*
X84545820Y-37204336D01*
X84545823Y-37204347D01*
X84598617Y-37331803D01*
X84598621Y-37331810D01*
X84675285Y-37446547D01*
X86772848Y-39544110D01*
X86772851Y-39544112D01*
X86887589Y-39620777D01*
X87002054Y-39668189D01*
X87006691Y-39670109D01*
X87009460Y-39671257D01*
X87013866Y-39673341D01*
X87150398Y-39700500D01*
X87150401Y-39700500D01*
X87150404Y-39700500D01*
X92437670Y-39700500D01*
X92472606Y-39705523D01*
X92487604Y-39709927D01*
X92546355Y-39747672D01*
X92547542Y-39749041D01*
X92575018Y-39803902D01*
X92576663Y-39811460D01*
X92579500Y-39837831D01*
X92579500Y-39838699D01*
X92614099Y-40012646D01*
X92614101Y-40012653D01*
X92614109Y-40012676D01*
X92681977Y-40176526D01*
X92681985Y-40176544D01*
X92681994Y-40176559D01*
X92780532Y-40324031D01*
X92830574Y-40374073D01*
X92851724Y-40402325D01*
X92864331Y-40425412D01*
X92879500Y-40484841D01*
X92879500Y-41007808D01*
X92874476Y-41042747D01*
X92867064Y-41067987D01*
X92835770Y-41120728D01*
X92780543Y-41175955D01*
X92780535Y-41175964D01*
X92780532Y-41175969D01*
X92681994Y-41323439D01*
X92681985Y-41323454D01*
X92681977Y-41323472D01*
X92614109Y-41487322D01*
X92614101Y-41487345D01*
X92614099Y-41487352D01*
X92579500Y-41661299D01*
X92579500Y-41838699D01*
X92614099Y-42012646D01*
X92614101Y-42012653D01*
X92614109Y-42012676D01*
X92681977Y-42176526D01*
X92681985Y-42176544D01*
X92681994Y-42176559D01*
X92780536Y-42324036D01*
X92780537Y-42324037D01*
X92780542Y-42324043D01*
X92905955Y-42449456D01*
X92905961Y-42449461D01*
X92905965Y-42449464D01*
X93053446Y-42548009D01*
X93053459Y-42548016D01*
X93089579Y-42562977D01*
X93175144Y-42598419D01*
X93175182Y-42598434D01*
X93176363Y-42598923D01*
X93217334Y-42615894D01*
X93217336Y-42615894D01*
X93217341Y-42615896D01*
X93383680Y-42648982D01*
X93386403Y-42649704D01*
X93391306Y-42650500D01*
X93568693Y-42650500D01*
X93572814Y-42650500D01*
X93580667Y-42648117D01*
X93626682Y-42638964D01*
X93626683Y-42638964D01*
X93742653Y-42615897D01*
X93742653Y-42615896D01*
X93742658Y-42615896D01*
X93742661Y-42615894D01*
X93742666Y-42615894D01*
X93745854Y-42614573D01*
X93753835Y-42611273D01*
X93753876Y-42611251D01*
X93906540Y-42548016D01*
X93906540Y-42548015D01*
X93906547Y-42548013D01*
X94054035Y-42449464D01*
X94179464Y-42324035D01*
X94250053Y-42218392D01*
X94282624Y-42169647D01*
X94285143Y-42171330D01*
X94297709Y-42157584D01*
X94317629Y-42129949D01*
X94382642Y-42104355D01*
X94451172Y-42117972D01*
X94501460Y-42166478D01*
X94514389Y-42199319D01*
X94515568Y-42204304D01*
X94518897Y-42232844D01*
X94518897Y-43024627D01*
X94513634Y-43042547D01*
X94545350Y-43201985D01*
X94545815Y-43204322D01*
X94545818Y-43204332D01*
X94545820Y-43204336D01*
X94545823Y-43204347D01*
X94598617Y-43331803D01*
X94598621Y-43331810D01*
X94675285Y-43446547D01*
X95272848Y-44044110D01*
X95272851Y-44044112D01*
X95387589Y-44120777D01*
X95387592Y-44120778D01*
X95387595Y-44120780D01*
X95485442Y-44161308D01*
X95485444Y-44161309D01*
X95509467Y-44171259D01*
X95513869Y-44173341D01*
X95515067Y-44173579D01*
X95515069Y-44173580D01*
X95515070Y-44173580D01*
X95515073Y-44173580D01*
X95515074Y-44173581D01*
X95559727Y-44182463D01*
X95650397Y-44200500D01*
X95650400Y-44200500D01*
X95650403Y-44200500D01*
X95650404Y-44200500D01*
X103227069Y-44200500D01*
X103262005Y-44205523D01*
X103277003Y-44209927D01*
X103335776Y-44247696D01*
X103344695Y-44257988D01*
X103365545Y-44291739D01*
X103421380Y-44426540D01*
X103421382Y-44426543D01*
X103421382Y-44426544D01*
X103421391Y-44426559D01*
X103519933Y-44574036D01*
X103519934Y-44574037D01*
X103519939Y-44574043D01*
X103645356Y-44699460D01*
X103645362Y-44699464D01*
X103792843Y-44798009D01*
X103792856Y-44798016D01*
X103824655Y-44811187D01*
X103914541Y-44848419D01*
X103914579Y-44848434D01*
X103915760Y-44848923D01*
X103956731Y-44865894D01*
X103956733Y-44865894D01*
X103956738Y-44865896D01*
X104123077Y-44898982D01*
X104125800Y-44899704D01*
X104130703Y-44900500D01*
X104308090Y-44900500D01*
X104312211Y-44900500D01*
X104320064Y-44898117D01*
X104366079Y-44888964D01*
X104366080Y-44888964D01*
X104482050Y-44865897D01*
X104482050Y-44865896D01*
X104482055Y-44865896D01*
X104482058Y-44865894D01*
X104482063Y-44865894D01*
X104485251Y-44864573D01*
X104493232Y-44861273D01*
X104493273Y-44861251D01*
X104645937Y-44798016D01*
X104645937Y-44798015D01*
X104645944Y-44798013D01*
X104793432Y-44699464D01*
X104793435Y-44699461D01*
X104793437Y-44699460D01*
X104918858Y-44574038D01*
X104918860Y-44574036D01*
X104918861Y-44574035D01*
X105017410Y-44426547D01*
X105085291Y-44262666D01*
X105103012Y-44173580D01*
X105119896Y-44088695D01*
X105119897Y-44088693D01*
X105119897Y-43911306D01*
X105119896Y-43911304D01*
X105085293Y-43737341D01*
X105085290Y-43737332D01*
X105017413Y-43573459D01*
X105017406Y-43573446D01*
X104918861Y-43425965D01*
X104918858Y-43425961D01*
X104918853Y-43425955D01*
X104793440Y-43300542D01*
X104793434Y-43300537D01*
X104793433Y-43300536D01*
X104645956Y-43201994D01*
X104645955Y-43201993D01*
X104645950Y-43201990D01*
X104645937Y-43201983D01*
X104645923Y-43201977D01*
X104482073Y-43134109D01*
X104482046Y-43134100D01*
X104364296Y-43110679D01*
X104331013Y-43098938D01*
X104301639Y-43083573D01*
X104271434Y-43061380D01*
X104165940Y-42955886D01*
X104165939Y-42955885D01*
X104165938Y-42955884D01*
X104125749Y-42929031D01*
X104117229Y-42918837D01*
X104051206Y-42879223D01*
X104051199Y-42879219D01*
X103923751Y-42826429D01*
X103923737Y-42826424D01*
X103923729Y-42826421D01*
X103923719Y-42826418D01*
X103923714Y-42826416D01*
X103788395Y-42799500D01*
X103788393Y-42799500D01*
X103788391Y-42799500D01*
X103788390Y-42799500D01*
X96078746Y-42799500D01*
X96043809Y-42794476D01*
X96020189Y-42787540D01*
X95961411Y-42749765D01*
X95946293Y-42727989D01*
X95935064Y-42707424D01*
X95919897Y-42647999D01*
X95919897Y-41411299D01*
X103818897Y-41411299D01*
X103818897Y-41588699D01*
X103853496Y-41762646D01*
X103853498Y-41762653D01*
X103853506Y-41762676D01*
X103921374Y-41926526D01*
X103921382Y-41926544D01*
X103921391Y-41926559D01*
X104019933Y-42074036D01*
X104019934Y-42074037D01*
X104019939Y-42074043D01*
X104145352Y-42199456D01*
X104145358Y-42199461D01*
X104145362Y-42199464D01*
X104292843Y-42298009D01*
X104292856Y-42298016D01*
X104328976Y-42312977D01*
X104414541Y-42348419D01*
X104414579Y-42348434D01*
X104415760Y-42348923D01*
X104456731Y-42365894D01*
X104456733Y-42365894D01*
X104456738Y-42365896D01*
X104623077Y-42398982D01*
X104625800Y-42399704D01*
X104630703Y-42400500D01*
X104808090Y-42400500D01*
X104812211Y-42400500D01*
X104820064Y-42398117D01*
X104866079Y-42388964D01*
X104866080Y-42388964D01*
X104982050Y-42365897D01*
X104982050Y-42365896D01*
X104982055Y-42365896D01*
X104982058Y-42365894D01*
X104982063Y-42365894D01*
X104985251Y-42364573D01*
X104993232Y-42361273D01*
X104993273Y-42361251D01*
X105145937Y-42298016D01*
X105145937Y-42298015D01*
X105145944Y-42298013D01*
X105293432Y-42199464D01*
X105418861Y-42074035D01*
X105517410Y-41926547D01*
X105585291Y-41762666D01*
X105608717Y-41644889D01*
X105620455Y-41611615D01*
X105635822Y-41582239D01*
X105658008Y-41552044D01*
X105710636Y-41499418D01*
X105738882Y-41478274D01*
X105761972Y-41465666D01*
X105821397Y-41450500D01*
X111610048Y-41450500D01*
X111644980Y-41455521D01*
X111670224Y-41462934D01*
X111722970Y-41494230D01*
X111780055Y-41551315D01*
X111801205Y-41579567D01*
X111817091Y-41608659D01*
X111829877Y-41643895D01*
X111833339Y-41661299D01*
X111853500Y-41762660D01*
X111853503Y-41762667D01*
X111853506Y-41762676D01*
X111921374Y-41926526D01*
X111921382Y-41926544D01*
X111921391Y-41926559D01*
X112019933Y-42074036D01*
X112019934Y-42074037D01*
X112019939Y-42074043D01*
X112145352Y-42199456D01*
X112145358Y-42199461D01*
X112145362Y-42199464D01*
X112292843Y-42298009D01*
X112292856Y-42298016D01*
X112328976Y-42312977D01*
X112414541Y-42348419D01*
X112414579Y-42348434D01*
X112415760Y-42348923D01*
X112456731Y-42365894D01*
X112456733Y-42365894D01*
X112456738Y-42365896D01*
X112623077Y-42398982D01*
X112625800Y-42399704D01*
X112630703Y-42400500D01*
X112808090Y-42400500D01*
X112812211Y-42400500D01*
X112820064Y-42398117D01*
X112866079Y-42388964D01*
X112866080Y-42388964D01*
X112982050Y-42365897D01*
X112982050Y-42365896D01*
X112982055Y-42365896D01*
X112982058Y-42365894D01*
X112982063Y-42365894D01*
X112985251Y-42364573D01*
X112993232Y-42361273D01*
X112993273Y-42361251D01*
X113145937Y-42298016D01*
X113145937Y-42298015D01*
X113145944Y-42298013D01*
X113293432Y-42199464D01*
X113418861Y-42074035D01*
X113517410Y-41926547D01*
X113585291Y-41762666D01*
X113619897Y-41588691D01*
X113619897Y-41411309D01*
X113619897Y-41411306D01*
X113619897Y-41411125D01*
X113619471Y-41409169D01*
X113585293Y-41237341D01*
X113585290Y-41237332D01*
X113517413Y-41073459D01*
X113517406Y-41073446D01*
X113418861Y-40925965D01*
X113418858Y-40925961D01*
X113418853Y-40925955D01*
X113293440Y-40800542D01*
X113293434Y-40800537D01*
X113293433Y-40800536D01*
X113145956Y-40701994D01*
X113145955Y-40701993D01*
X113145950Y-40701990D01*
X113145937Y-40701983D01*
X113145923Y-40701977D01*
X112982073Y-40634109D01*
X112982046Y-40634100D01*
X112864296Y-40610679D01*
X112831013Y-40598938D01*
X112801639Y-40583573D01*
X112771432Y-40561378D01*
X112596735Y-40386681D01*
X112415943Y-40205888D01*
X112415942Y-40205887D01*
X112301204Y-40129222D01*
X112301202Y-40129221D01*
X112301200Y-40129220D01*
X112173744Y-40076426D01*
X112173733Y-40076423D01*
X112173729Y-40076421D01*
X112173719Y-40076418D01*
X112173714Y-40076416D01*
X112038395Y-40049500D01*
X112038393Y-40049500D01*
X112038391Y-40049500D01*
X112038390Y-40049500D01*
X105400404Y-40049500D01*
X105400402Y-40049500D01*
X105400401Y-40049500D01*
X105337034Y-40062105D01*
X105337030Y-40062105D01*
X105335069Y-40062496D01*
X105302402Y-40068994D01*
X105272493Y-40074943D01*
X105265067Y-40076420D01*
X105265065Y-40076421D01*
X105251601Y-40081997D01*
X105251592Y-40082000D01*
X105137589Y-40129222D01*
X105022846Y-40205890D01*
X105022845Y-40205891D01*
X104668079Y-40560658D01*
X104639825Y-40581809D01*
X104610730Y-40597696D01*
X104575495Y-40610481D01*
X104456754Y-40634100D01*
X104456724Y-40634107D01*
X104292869Y-40701977D01*
X104292851Y-40701985D01*
X104292836Y-40701994D01*
X104145359Y-40800536D01*
X104145358Y-40800537D01*
X104145352Y-40800542D01*
X104019939Y-40925955D01*
X104019934Y-40925961D01*
X104019933Y-40925962D01*
X103921391Y-41073439D01*
X103921382Y-41073454D01*
X103921374Y-41073472D01*
X103853506Y-41237322D01*
X103853498Y-41237345D01*
X103853496Y-41237352D01*
X103818897Y-41411299D01*
X95919897Y-41411299D01*
X95919897Y-39931001D01*
X95898711Y-39824500D01*
X95892978Y-39795677D01*
X95892977Y-39795676D01*
X95892977Y-39795672D01*
X95892976Y-39795670D01*
X95892737Y-39794469D01*
X95890657Y-39790072D01*
X95840175Y-39668195D01*
X95840171Y-39668188D01*
X95808492Y-39620777D01*
X95808491Y-39620775D01*
X95763511Y-39553457D01*
X95763509Y-39553454D01*
X95763506Y-39553451D01*
X95134841Y-38924787D01*
X95113693Y-38896538D01*
X95108271Y-38886608D01*
X95093418Y-38818338D01*
X95117832Y-38752873D01*
X95173762Y-38711001D01*
X95180964Y-38708314D01*
X95224289Y-38700500D01*
X95372070Y-38700500D01*
X95407001Y-38705521D01*
X95438816Y-38714863D01*
X95472767Y-38730736D01*
X95573453Y-38798013D01*
X95573455Y-38798014D01*
X95573459Y-38798016D01*
X95737333Y-38865894D01*
X95737338Y-38865895D01*
X95737341Y-38865896D01*
X95903680Y-38898982D01*
X95906403Y-38899704D01*
X95911306Y-38900500D01*
X96088693Y-38900500D01*
X96092814Y-38900500D01*
X96100667Y-38898117D01*
X96146682Y-38888964D01*
X96146683Y-38888964D01*
X96262653Y-38865897D01*
X96262653Y-38865896D01*
X96262658Y-38865896D01*
X96262661Y-38865894D01*
X96262666Y-38865894D01*
X96265854Y-38864573D01*
X96273835Y-38861273D01*
X96273876Y-38861251D01*
X96426540Y-38798016D01*
X96426540Y-38798015D01*
X96426547Y-38798013D01*
X96574035Y-38699464D01*
X96699464Y-38574035D01*
X96798013Y-38426547D01*
X96865894Y-38262666D01*
X96900500Y-38088691D01*
X96900500Y-37911309D01*
X96900500Y-37911306D01*
X96900500Y-37911125D01*
X96900074Y-37909169D01*
X96865896Y-37737341D01*
X96865893Y-37737332D01*
X96798016Y-37573459D01*
X96798009Y-37573446D01*
X96699464Y-37425965D01*
X96699461Y-37425961D01*
X96699456Y-37425955D01*
X96574043Y-37300542D01*
X96574037Y-37300537D01*
X96574036Y-37300536D01*
X96426559Y-37201994D01*
X96426558Y-37201993D01*
X96426553Y-37201990D01*
X96426540Y-37201983D01*
X96426526Y-37201977D01*
X96262676Y-37134109D01*
X96262653Y-37134101D01*
X96262646Y-37134099D01*
X96088698Y-37099500D01*
X96088694Y-37099500D01*
X96088691Y-37099500D01*
X95911309Y-37099500D01*
X95911306Y-37099500D01*
X95911301Y-37099500D01*
X95737352Y-37134100D01*
X95737345Y-37134101D01*
X95737327Y-37134107D01*
X95573447Y-37201989D01*
X95473613Y-37268696D01*
X95441779Y-37283928D01*
X95410145Y-37293834D01*
X95373089Y-37299500D01*
X88078745Y-37299500D01*
X88043809Y-37294477D01*
X88018567Y-37287065D01*
X87965822Y-37255769D01*
X86968823Y-36258769D01*
X86947671Y-36230513D01*
X86935064Y-36207424D01*
X86919897Y-36147999D01*
X86919897Y-33411299D01*
X87329500Y-33411299D01*
X87329500Y-33588699D01*
X87364099Y-33762646D01*
X87364101Y-33762653D01*
X87364109Y-33762676D01*
X87431977Y-33926526D01*
X87431985Y-33926544D01*
X87431994Y-33926559D01*
X87530536Y-34074036D01*
X87530537Y-34074037D01*
X87530542Y-34074043D01*
X87655955Y-34199456D01*
X87655959Y-34199459D01*
X87655961Y-34199461D01*
X87655965Y-34199464D01*
X87803446Y-34298009D01*
X87803459Y-34298016D01*
X87839579Y-34312977D01*
X87925144Y-34348419D01*
X87925182Y-34348434D01*
X87926363Y-34348923D01*
X87967334Y-34365894D01*
X87967336Y-34365894D01*
X87967341Y-34365896D01*
X88133680Y-34398982D01*
X88136403Y-34399704D01*
X88141306Y-34400500D01*
X88318693Y-34400500D01*
X88322814Y-34400500D01*
X88330667Y-34398117D01*
X88376682Y-34388964D01*
X88376683Y-34388964D01*
X88492653Y-34365897D01*
X88492653Y-34365896D01*
X88492658Y-34365896D01*
X88492661Y-34365894D01*
X88492666Y-34365894D01*
X88496477Y-34364315D01*
X88503831Y-34361274D01*
X88503866Y-34361254D01*
X88652957Y-34299500D01*
X88656540Y-34298016D01*
X88656540Y-34298015D01*
X88656547Y-34298013D01*
X88656553Y-34298008D01*
X88658902Y-34297036D01*
X88658902Y-34297035D01*
X88658909Y-34297033D01*
X88668158Y-34293202D01*
X88677043Y-34284317D01*
X88804035Y-34199464D01*
X88804038Y-34199461D01*
X88804232Y-34199266D01*
X88805180Y-34198333D01*
X88805219Y-34198295D01*
X88805897Y-34197935D01*
X88808745Y-34195599D01*
X88809033Y-34195950D01*
X88832326Y-34178275D01*
X88855418Y-34165667D01*
X88914843Y-34150500D01*
X90807808Y-34150500D01*
X90842740Y-34155521D01*
X90867984Y-34162934D01*
X90920735Y-34194235D01*
X90925958Y-34199459D01*
X90925961Y-34199461D01*
X90925965Y-34199464D01*
X91073446Y-34298009D01*
X91073459Y-34298016D01*
X91109579Y-34312977D01*
X91195144Y-34348419D01*
X91195182Y-34348434D01*
X91196363Y-34348923D01*
X91237334Y-34365894D01*
X91237336Y-34365894D01*
X91237341Y-34365896D01*
X91403680Y-34398982D01*
X91406403Y-34399704D01*
X91411306Y-34400500D01*
X91588693Y-34400500D01*
X91592814Y-34400500D01*
X91600667Y-34398117D01*
X91646682Y-34388964D01*
X91646683Y-34388964D01*
X91762653Y-34365897D01*
X91762653Y-34365896D01*
X91762658Y-34365896D01*
X91762661Y-34365894D01*
X91762666Y-34365894D01*
X91766477Y-34364315D01*
X91773831Y-34361274D01*
X91773866Y-34361254D01*
X91922957Y-34299500D01*
X91926540Y-34298016D01*
X91926540Y-34298015D01*
X91926547Y-34298013D01*
X91926553Y-34298008D01*
X91928902Y-34297036D01*
X91928902Y-34297035D01*
X91928909Y-34297033D01*
X91938158Y-34293202D01*
X91947043Y-34284317D01*
X92074035Y-34199464D01*
X92199464Y-34074035D01*
X92298013Y-33926547D01*
X92365894Y-33762666D01*
X92400500Y-33588691D01*
X92400500Y-33411309D01*
X92400500Y-33411306D01*
X92400500Y-33411125D01*
X92400074Y-33409169D01*
X92365896Y-33237341D01*
X92365893Y-33237332D01*
X92298016Y-33073459D01*
X92298009Y-33073446D01*
X92199464Y-32925965D01*
X92199461Y-32925961D01*
X92199456Y-32925955D01*
X92074041Y-32800540D01*
X92074036Y-32800536D01*
X91926559Y-32701994D01*
X91926558Y-32701993D01*
X91926553Y-32701990D01*
X91926540Y-32701983D01*
X91926526Y-32701977D01*
X91762676Y-32634109D01*
X91762653Y-32634101D01*
X91762646Y-32634099D01*
X91588698Y-32599500D01*
X91588694Y-32599500D01*
X91588691Y-32599500D01*
X91411309Y-32599500D01*
X91411306Y-32599500D01*
X91411301Y-32599500D01*
X91237352Y-32634100D01*
X91237345Y-32634101D01*
X91237322Y-32634109D01*
X91073472Y-32701977D01*
X91073454Y-32701985D01*
X91073439Y-32701994D01*
X90925964Y-32800535D01*
X90925952Y-32800545D01*
X90925909Y-32800589D01*
X90925860Y-32800624D01*
X90922646Y-32803414D01*
X90922444Y-32803181D01*
X90897671Y-32821725D01*
X90874586Y-32834331D01*
X90815157Y-32849500D01*
X88922192Y-32849500D01*
X88887256Y-32844477D01*
X88862014Y-32837065D01*
X88809264Y-32805764D01*
X88804040Y-32800539D01*
X88804036Y-32800536D01*
X88656559Y-32701994D01*
X88656558Y-32701993D01*
X88656553Y-32701990D01*
X88656540Y-32701983D01*
X88656526Y-32701977D01*
X88492676Y-32634109D01*
X88492653Y-32634101D01*
X88492646Y-32634099D01*
X88318698Y-32599500D01*
X88318694Y-32599500D01*
X88318691Y-32599500D01*
X88141309Y-32599500D01*
X88141306Y-32599500D01*
X88141301Y-32599500D01*
X87967352Y-32634100D01*
X87967345Y-32634101D01*
X87967322Y-32634109D01*
X87803472Y-32701977D01*
X87803454Y-32701985D01*
X87803439Y-32701994D01*
X87655963Y-32800536D01*
X87655958Y-32800540D01*
X87530542Y-32925955D01*
X87530537Y-32925961D01*
X87530536Y-32925962D01*
X87431994Y-33073439D01*
X87431985Y-33073454D01*
X87431977Y-33073472D01*
X87364109Y-33237322D01*
X87364101Y-33237345D01*
X87364099Y-33237352D01*
X87329500Y-33411299D01*
X86919897Y-33411299D01*
X86919897Y-32931004D01*
X86919805Y-32930261D01*
X86919310Y-32928051D01*
X86893946Y-32800539D01*
X86892978Y-32795674D01*
X86855141Y-32704328D01*
X86840170Y-32668185D01*
X86763512Y-32553459D01*
X86763511Y-32553458D01*
X86665939Y-32455886D01*
X85575946Y-31365892D01*
X85165943Y-30955888D01*
X85165942Y-30955887D01*
X85051204Y-30879222D01*
X85051202Y-30879221D01*
X85051200Y-30879220D01*
X84923744Y-30826426D01*
X84923733Y-30826423D01*
X84923729Y-30826421D01*
X84923719Y-30826418D01*
X84923714Y-30826416D01*
X84788395Y-30799500D01*
X84788393Y-30799500D01*
X84788391Y-30799500D01*
X84788390Y-30799500D01*
X73078745Y-30799500D01*
X73043809Y-30794477D01*
X73018567Y-30787065D01*
X72965822Y-30755769D01*
X72158737Y-29948683D01*
X72137586Y-29920429D01*
X72121699Y-29891334D01*
X72108915Y-29856102D01*
X72085291Y-29737334D01*
X72042532Y-29634103D01*
X72017413Y-29573459D01*
X72017406Y-29573446D01*
X71918861Y-29425965D01*
X71918858Y-29425961D01*
X71918853Y-29425955D01*
X71793440Y-29300542D01*
X71793434Y-29300537D01*
X71793433Y-29300536D01*
X71645956Y-29201994D01*
X71645955Y-29201993D01*
X71645950Y-29201990D01*
X71645937Y-29201983D01*
X71645923Y-29201977D01*
X71482073Y-29134109D01*
X71482050Y-29134101D01*
X71482043Y-29134099D01*
X71308095Y-29099500D01*
X71308091Y-29099500D01*
X71308088Y-29099500D01*
X71130706Y-29099500D01*
X71130703Y-29099500D01*
X71130698Y-29099500D01*
X70956749Y-29134100D01*
X70956742Y-29134101D01*
X70956719Y-29134109D01*
X70792869Y-29201977D01*
X70792851Y-29201985D01*
X70792836Y-29201994D01*
X70645359Y-29300536D01*
X70645358Y-29300537D01*
X70645352Y-29300542D01*
X70519936Y-29425958D01*
X70448665Y-29532622D01*
X70425082Y-29558876D01*
X70413088Y-29568900D01*
X70349023Y-29596787D01*
X70332710Y-29598836D01*
X70314190Y-29599085D01*
X70314190Y-29599500D01*
X70130698Y-29599500D01*
X69956749Y-29634100D01*
X69956742Y-29634101D01*
X69956719Y-29634109D01*
X69792869Y-29701977D01*
X69792851Y-29701985D01*
X69792836Y-29701994D01*
X69645359Y-29800536D01*
X69645358Y-29800537D01*
X69645352Y-29800542D01*
X69519939Y-29925955D01*
X69519934Y-29925961D01*
X69519933Y-29925962D01*
X69421391Y-30073439D01*
X69421382Y-30073454D01*
X69421374Y-30073472D01*
X69353506Y-30237322D01*
X69353498Y-30237345D01*
X69353496Y-30237352D01*
X69318897Y-30411299D01*
X27311104Y-30411299D01*
X27311104Y-27411299D01*
X79818897Y-27411299D01*
X79818897Y-27588699D01*
X79853496Y-27762646D01*
X79853498Y-27762653D01*
X79853506Y-27762676D01*
X79921374Y-27926526D01*
X79921382Y-27926544D01*
X79921391Y-27926559D01*
X80019933Y-28074036D01*
X80019934Y-28074037D01*
X80019939Y-28074043D01*
X80145352Y-28199456D01*
X80145358Y-28199461D01*
X80145362Y-28199464D01*
X80292843Y-28298009D01*
X80292856Y-28298016D01*
X80328976Y-28312977D01*
X80414541Y-28348419D01*
X80414579Y-28348434D01*
X80415760Y-28348923D01*
X80456731Y-28365894D01*
X80456733Y-28365894D01*
X80456738Y-28365896D01*
X80623077Y-28398982D01*
X80625800Y-28399704D01*
X80630703Y-28400500D01*
X80808090Y-28400500D01*
X80812211Y-28400500D01*
X80820064Y-28398117D01*
X80866079Y-28388964D01*
X80866080Y-28388964D01*
X80905119Y-28381198D01*
X80978763Y-28366550D01*
X80983100Y-28365809D01*
X80986382Y-28365035D01*
X80989836Y-28364347D01*
X81009321Y-28357375D01*
X81031921Y-28352880D01*
X81056103Y-28350500D01*
X82882689Y-28350500D01*
X82906876Y-28352882D01*
X82930363Y-28357553D01*
X82953556Y-28364580D01*
X82955109Y-28365222D01*
X82956731Y-28365894D01*
X82956732Y-28365894D01*
X82956737Y-28365896D01*
X83019675Y-28378414D01*
X83123065Y-28398980D01*
X83125794Y-28399703D01*
X83130703Y-28400500D01*
X83308090Y-28400500D01*
X83312211Y-28400500D01*
X83320064Y-28398117D01*
X83366079Y-28388964D01*
X83366080Y-28388964D01*
X83482050Y-28365897D01*
X83482050Y-28365896D01*
X83482055Y-28365896D01*
X83482058Y-28365894D01*
X83482063Y-28365894D01*
X83485251Y-28364573D01*
X83493232Y-28361273D01*
X83493273Y-28361251D01*
X83645937Y-28298016D01*
X83645937Y-28298015D01*
X83645944Y-28298013D01*
X83793432Y-28199464D01*
X83918861Y-28074035D01*
X84017410Y-27926547D01*
X84085291Y-27762666D01*
X84119897Y-27588691D01*
X84119897Y-27411309D01*
X84119897Y-27411306D01*
X84119897Y-27411125D01*
X84119471Y-27409169D01*
X84085293Y-27237341D01*
X84085290Y-27237332D01*
X84017413Y-27073459D01*
X84017406Y-27073446D01*
X83918861Y-26925965D01*
X83918858Y-26925961D01*
X83918853Y-26925955D01*
X83793440Y-26800542D01*
X83793434Y-26800537D01*
X83793433Y-26800536D01*
X83645956Y-26701994D01*
X83645955Y-26701993D01*
X83645950Y-26701990D01*
X83645937Y-26701983D01*
X83645923Y-26701977D01*
X83482073Y-26634109D01*
X83482050Y-26634101D01*
X83482043Y-26634099D01*
X83308095Y-26599500D01*
X83308091Y-26599500D01*
X83308088Y-26599500D01*
X83130706Y-26599500D01*
X83130703Y-26599500D01*
X83089610Y-26607673D01*
X82971727Y-26631121D01*
X82971716Y-26631123D01*
X82956738Y-26634103D01*
X82956734Y-26634105D01*
X82956732Y-26634105D01*
X82956731Y-26634106D01*
X82951923Y-26636097D01*
X82943089Y-26638317D01*
X82942394Y-26638289D01*
X82930102Y-26642498D01*
X82906878Y-26647117D01*
X82882691Y-26649500D01*
X81056103Y-26649500D01*
X81031913Y-26647117D01*
X81018386Y-26644426D01*
X81008691Y-26642498D01*
X80990127Y-26636141D01*
X80989905Y-26636792D01*
X80985739Y-26635365D01*
X80984776Y-26635001D01*
X80982695Y-26634314D01*
X80982086Y-26634109D01*
X80808094Y-26599500D01*
X80808091Y-26599500D01*
X80808088Y-26599500D01*
X80630706Y-26599500D01*
X80630703Y-26599500D01*
X80630698Y-26599500D01*
X80456749Y-26634100D01*
X80456742Y-26634101D01*
X80456719Y-26634109D01*
X80292869Y-26701977D01*
X80292851Y-26701985D01*
X80292836Y-26701994D01*
X80145359Y-26800536D01*
X80145358Y-26800537D01*
X80145352Y-26800542D01*
X80019939Y-26925955D01*
X80019934Y-26925961D01*
X80019933Y-26925962D01*
X79921391Y-27073439D01*
X79921382Y-27073454D01*
X79921374Y-27073472D01*
X79853506Y-27237322D01*
X79853498Y-27237345D01*
X79853496Y-27237352D01*
X79818897Y-27411299D01*
X27311104Y-27411299D01*
X27311104Y-21349925D01*
X85959298Y-21349925D01*
X85983530Y-21471742D01*
X85983534Y-21471760D01*
X85983536Y-21471768D01*
X86026439Y-21575347D01*
X86031080Y-21586551D01*
X86100102Y-21689849D01*
X86100103Y-21689850D01*
X86100108Y-21689856D01*
X86187941Y-21777689D01*
X86187947Y-21777694D01*
X86187948Y-21777695D01*
X86291242Y-21846715D01*
X86291247Y-21846717D01*
X86291249Y-21846718D01*
X86291250Y-21846719D01*
X86406031Y-21894263D01*
X86527875Y-21918499D01*
X86527879Y-21918500D01*
X86527880Y-21918500D01*
X86652119Y-21918500D01*
X86652120Y-21918499D01*
X86773967Y-21894263D01*
X86888748Y-21846719D01*
X86992047Y-21777697D01*
X87079896Y-21689848D01*
X87148918Y-21586549D01*
X87196462Y-21471768D01*
X87220698Y-21349925D01*
X91739300Y-21349925D01*
X91763532Y-21471742D01*
X91763536Y-21471760D01*
X91763538Y-21471768D01*
X91806441Y-21575347D01*
X91811082Y-21586551D01*
X91880104Y-21689849D01*
X91880105Y-21689850D01*
X91880110Y-21689856D01*
X91967943Y-21777689D01*
X91967949Y-21777694D01*
X91967950Y-21777695D01*
X92071244Y-21846715D01*
X92071249Y-21846717D01*
X92071251Y-21846718D01*
X92071252Y-21846719D01*
X92186033Y-21894263D01*
X92307877Y-21918499D01*
X92307881Y-21918500D01*
X92307882Y-21918500D01*
X92432121Y-21918500D01*
X92432122Y-21918499D01*
X92553969Y-21894263D01*
X92668750Y-21846719D01*
X92772049Y-21777697D01*
X92859898Y-21689848D01*
X92928920Y-21586549D01*
X92976464Y-21471768D01*
X93000701Y-21349919D01*
X93000701Y-21225681D01*
X92976464Y-21103832D01*
X92928920Y-20989051D01*
X92928919Y-20989050D01*
X92928918Y-20989048D01*
X92928916Y-20989043D01*
X92859896Y-20885749D01*
X92859895Y-20885748D01*
X92859890Y-20885742D01*
X92772057Y-20797909D01*
X92772051Y-20797904D01*
X92772050Y-20797903D01*
X92668752Y-20728881D01*
X92657548Y-20724240D01*
X92553969Y-20681337D01*
X92553961Y-20681335D01*
X92553957Y-20681334D01*
X92553943Y-20681331D01*
X92432126Y-20657100D01*
X92432124Y-20657100D01*
X92432120Y-20657100D01*
X92307882Y-20657100D01*
X92307877Y-20657100D01*
X92307875Y-20657100D01*
X92186057Y-20681331D01*
X92186035Y-20681336D01*
X92186033Y-20681336D01*
X92186032Y-20681337D01*
X92147772Y-20697184D01*
X92071248Y-20728881D01*
X91967950Y-20797903D01*
X91967949Y-20797904D01*
X91967943Y-20797909D01*
X91880110Y-20885742D01*
X91880105Y-20885748D01*
X91880104Y-20885749D01*
X91811082Y-20989047D01*
X91763537Y-21103834D01*
X91763532Y-21103856D01*
X91739301Y-21225673D01*
X91739301Y-21225674D01*
X91739301Y-21225676D01*
X91739301Y-21349923D01*
X91739301Y-21349925D01*
X91739300Y-21349925D01*
X87220698Y-21349925D01*
X87220699Y-21349919D01*
X87220699Y-21225681D01*
X87220697Y-21225673D01*
X87208580Y-21164756D01*
X87196462Y-21103832D01*
X87148918Y-20989051D01*
X87148917Y-20989050D01*
X87148916Y-20989048D01*
X87148914Y-20989043D01*
X87079894Y-20885749D01*
X87079893Y-20885748D01*
X87079888Y-20885742D01*
X86992055Y-20797909D01*
X86992049Y-20797904D01*
X86992048Y-20797903D01*
X86888750Y-20728881D01*
X86877546Y-20724240D01*
X86773967Y-20681337D01*
X86773959Y-20681335D01*
X86773955Y-20681334D01*
X86773941Y-20681331D01*
X86652124Y-20657100D01*
X86652122Y-20657100D01*
X86652118Y-20657100D01*
X86527880Y-20657100D01*
X86527875Y-20657100D01*
X86527873Y-20657100D01*
X86406055Y-20681331D01*
X86406033Y-20681336D01*
X86406031Y-20681336D01*
X86406030Y-20681337D01*
X86367770Y-20697184D01*
X86291246Y-20728881D01*
X86187948Y-20797903D01*
X86187947Y-20797904D01*
X86187941Y-20797909D01*
X86100108Y-20885742D01*
X86100103Y-20885748D01*
X86100102Y-20885749D01*
X86031080Y-20989047D01*
X85983535Y-21103834D01*
X85983530Y-21103856D01*
X85959299Y-21225673D01*
X85959299Y-21225674D01*
X85959299Y-21225676D01*
X85959299Y-21349923D01*
X85959299Y-21349925D01*
X85959298Y-21349925D01*
X27311104Y-21349925D01*
X27311104Y-14442328D01*
X27316127Y-14407392D01*
X27320531Y-14392394D01*
X27358276Y-14333643D01*
X27359645Y-14332456D01*
X27414524Y-14304976D01*
X27422083Y-14303332D01*
X27448436Y-14300499D01*
X121858170Y-14300499D01*
X121893106Y-14305522D01*
G37*
%TD.AperFunction*%
%TD*%
M02*
